M48
; DRILL file KiCad 10.0.5 date 2026-08-25T17:33:02
; FORMAT={-:-/ absolute / metric / decimal}
; #@! TF.CreationDate,2026-08-25T17:33:02+08:00
; #@! TF.GenerationSoftware,Kicad,Pcbnew,10.0.5
; #@! TF.FileFunction,Plated,1,4,PTH
FMAT,2
METRIC
; #@! TA.AperFunction,Plated,PTH,ViaDrill
T1C0.300
; #@! TA.AperFunction,Plated,PTH,ViaDrill
T2C0.400
; #@! TA.AperFunction,Plated,PTH,ComponentDrill
T3C0.600
; #@! TA.AperFunction,Plated,PTH,ComponentDrill
T4C1.000
%
G90
G05
T1
X46.5Y-64.0
X48.25Y-61.25
X49.374Y-61.856
X53.239Y-62.813
X55.5Y-58.0
T2
X13.5Y-13.75
X13.5Y-22.25
X13.5Y-29.75
X13.5Y-38.25
X13.5Y-45.75
X13.5Y-54.25
X13.5Y-61.75
X13.5Y-70.25
X13.5Y-77.75
X13.5Y-86.25
X13.5Y-93.75
X13.5Y-102.25
X31.329Y-83.479
X32.0Y-19.373
X32.0Y-35.389
X32.0Y-51.36
X32.0Y-67.371
X32.0Y-99.37
X32.935Y-36.85
X34.899Y-104.319
X34.95Y-23.387
X34.95Y-27.241
X38.804Y-90.09
X39.798Y-105.035
X41.94Y-55.901
X43.48Y-61.123
X43.786Y-105.444
X43.968Y-58.152
X45.249Y-54.425
X46.038Y-55.978
X47.506Y-53.699
X47.795Y-105.451
X47.825Y-83.825
X49.506Y-55.036
X50.003Y-60.004
X51.759Y-74.0
X53.214Y-58.75
X53.884Y-61.934
X55.198Y-75.698
X59.406Y-76.421
X61.185Y-65.825
X64.181Y-76.671
X64.43Y-57.65
X64.445Y-58.95
X64.45Y-55.588
X70.262Y-56.304
X70.911Y-55.602
X73.489Y-72.89
X73.93Y-74.857
X74.265Y-82.292
X75.225Y-58.743
X76.664Y-73.856
X76.807Y-80.959
X77.124Y-50.396
X77.486Y-60.321
X79.515Y-61.981
X80.131Y-56.75
X80.136Y-58.25
X80.867Y-60.845
X82.0Y-66.706
X82.394Y-82.237
X82.75Y-60.801
X84.75Y-60.783
X84.907Y-57.753
X85.045Y-77.282
X86.59Y-65.52
X86.597Y-49.52
X87.706Y-54.514
X88.422Y-66.001
X89.347Y-56.391
X89.668Y-54.71
X91.623Y-58.724
X92.153Y-54.327
X94.875Y-23.981
X95.19Y-22.247
X95.457Y-59.625
X96.708Y-81.397
X96.927Y-42.657
X98.0Y-24.355
X99.665Y-14.822
X100.609Y-80.009
X100.83Y-23.43
X101.51Y-15.908
X102.879Y-25.911
X102.959Y-78.278
X103.322Y-17.183
X104.131Y-32.609
X105.17Y-14.34
X107.127Y-81.196
X108.462Y-61.884
T4
X95.0Y-97.0
X97.54Y-97.0
X100.08Y-97.0
X103.0Y-43.0
X105.54Y-43.0
X106.0Y-62.0
X106.0Y-64.54
X106.0Y-67.08
X106.0Y-69.62
X106.0Y-72.16
X106.0Y-74.7
X106.0Y-97.0
X106.0Y-99.54
X106.0Y-102.08
X106.0Y-104.62
X106.0Y-107.16
T3
X104.32Y-17.68G85X105.42Y-17.68
G05
X104.32Y-26.32G85X105.42Y-26.32
G05
X108.75Y-17.68G85X109.35Y-17.68
G05
X108.75Y-26.32G85X109.35Y-26.32
G05
M30
