%TF.GenerationSoftware,KiCad,Pcbnew,10.0.5*%
%TF.CreationDate,2026-08-25T17:33:02+08:00*%
%TF.ProjectId,PCAP04_Acquisition_3CH_v1.5_100mm_C496550,50434150-3034-45f4-9163-717569736974,v1.5*%
%TF.SameCoordinates,Original*%
%TF.FileFunction,Drillmap*%
%TF.FilePolarity,Positive*%
%FSLAX45Y45*%
G04 Gerber Fmt 4.5, Leading zero omitted, Abs format (unit mm)*
G04 Created by KiCad (PCBNEW 10.0.5) date 2026-08-25 17:33:02*
%MOMM*%
%LPD*%
G01*
G04 APERTURE LIST*
%ADD10C,0.100000*%
%ADD11C,0.200000*%
G04 APERTURE END LIST*
D10*
X1000000Y-1000000D02*
X11000000Y-1000000D01*
X1000000Y-11000000D02*
X1000000Y-1000000D01*
X11000000Y-1000000D02*
X11000000Y-11000000D01*
X11000000Y-11000000D02*
X1000000Y-11000000D01*
D11*
D10*
X10507500Y-1878500D02*
X10572500Y-1943500D01*
X10572500Y-1878500D02*
X10507500Y-1943500D01*
X10507500Y-2456500D02*
X10572500Y-2521500D01*
X10572500Y-2456500D02*
X10507500Y-2521500D01*
D11*
X1255777Y-11316484D02*
X1255777Y-11116484D01*
X1255777Y-11116484D02*
X1303396Y-11116484D01*
X1303396Y-11116484D02*
X1331967Y-11126008D01*
X1331967Y-11126008D02*
X1351015Y-11145055D01*
X1351015Y-11145055D02*
X1360539Y-11164103D01*
X1360539Y-11164103D02*
X1370063Y-11202198D01*
X1370063Y-11202198D02*
X1370063Y-11230769D01*
X1370063Y-11230769D02*
X1360539Y-11268865D01*
X1360539Y-11268865D02*
X1351015Y-11287912D01*
X1351015Y-11287912D02*
X1331967Y-11306960D01*
X1331967Y-11306960D02*
X1303396Y-11316484D01*
X1303396Y-11316484D02*
X1255777Y-11316484D01*
X1455777Y-11316484D02*
X1455777Y-11183150D01*
X1455777Y-11221246D02*
X1465301Y-11202198D01*
X1465301Y-11202198D02*
X1474824Y-11192674D01*
X1474824Y-11192674D02*
X1493872Y-11183150D01*
X1493872Y-11183150D02*
X1512920Y-11183150D01*
X1579586Y-11316484D02*
X1579586Y-11183150D01*
X1579586Y-11116484D02*
X1570062Y-11126008D01*
X1570062Y-11126008D02*
X1579586Y-11135531D01*
X1579586Y-11135531D02*
X1589110Y-11126008D01*
X1589110Y-11126008D02*
X1579586Y-11116484D01*
X1579586Y-11116484D02*
X1579586Y-11135531D01*
X1703396Y-11316484D02*
X1684348Y-11306960D01*
X1684348Y-11306960D02*
X1674824Y-11287912D01*
X1674824Y-11287912D02*
X1674824Y-11116484D01*
X1808158Y-11316484D02*
X1789110Y-11306960D01*
X1789110Y-11306960D02*
X1779586Y-11287912D01*
X1779586Y-11287912D02*
X1779586Y-11116484D01*
X2036729Y-11316484D02*
X2036729Y-11116484D01*
X2036729Y-11116484D02*
X2103396Y-11259341D01*
X2103396Y-11259341D02*
X2170063Y-11116484D01*
X2170063Y-11116484D02*
X2170063Y-11316484D01*
X2351015Y-11316484D02*
X2351015Y-11211722D01*
X2351015Y-11211722D02*
X2341491Y-11192674D01*
X2341491Y-11192674D02*
X2322444Y-11183150D01*
X2322444Y-11183150D02*
X2284348Y-11183150D01*
X2284348Y-11183150D02*
X2265301Y-11192674D01*
X2351015Y-11306960D02*
X2331967Y-11316484D01*
X2331967Y-11316484D02*
X2284348Y-11316484D01*
X2284348Y-11316484D02*
X2265301Y-11306960D01*
X2265301Y-11306960D02*
X2255777Y-11287912D01*
X2255777Y-11287912D02*
X2255777Y-11268865D01*
X2255777Y-11268865D02*
X2265301Y-11249817D01*
X2265301Y-11249817D02*
X2284348Y-11240293D01*
X2284348Y-11240293D02*
X2331967Y-11240293D01*
X2331967Y-11240293D02*
X2351015Y-11230769D01*
X2446253Y-11183150D02*
X2446253Y-11383150D01*
X2446253Y-11192674D02*
X2465301Y-11183150D01*
X2465301Y-11183150D02*
X2503396Y-11183150D01*
X2503396Y-11183150D02*
X2522444Y-11192674D01*
X2522444Y-11192674D02*
X2531967Y-11202198D01*
X2531967Y-11202198D02*
X2541491Y-11221246D01*
X2541491Y-11221246D02*
X2541491Y-11278388D01*
X2541491Y-11278388D02*
X2531967Y-11297436D01*
X2531967Y-11297436D02*
X2522444Y-11306960D01*
X2522444Y-11306960D02*
X2503396Y-11316484D01*
X2503396Y-11316484D02*
X2465301Y-11316484D01*
X2465301Y-11316484D02*
X2446253Y-11306960D01*
X2627205Y-11297436D02*
X2636729Y-11306960D01*
X2636729Y-11306960D02*
X2627205Y-11316484D01*
X2627205Y-11316484D02*
X2617682Y-11306960D01*
X2617682Y-11306960D02*
X2627205Y-11297436D01*
X2627205Y-11297436D02*
X2627205Y-11316484D01*
X2627205Y-11192674D02*
X2636729Y-11202198D01*
X2636729Y-11202198D02*
X2627205Y-11211722D01*
X2627205Y-11211722D02*
X2617682Y-11202198D01*
X2617682Y-11202198D02*
X2627205Y-11192674D01*
X2627205Y-11192674D02*
X2627205Y-11211722D01*
D10*
X930000Y-11612500D02*
X995000Y-11677500D01*
X995000Y-11612500D02*
X930000Y-11677500D01*
D11*
X1293872Y-11536484D02*
X1312920Y-11536484D01*
X1312920Y-11536484D02*
X1331967Y-11546008D01*
X1331967Y-11546008D02*
X1341491Y-11555531D01*
X1341491Y-11555531D02*
X1351015Y-11574579D01*
X1351015Y-11574579D02*
X1360539Y-11612674D01*
X1360539Y-11612674D02*
X1360539Y-11660293D01*
X1360539Y-11660293D02*
X1351015Y-11698388D01*
X1351015Y-11698388D02*
X1341491Y-11717436D01*
X1341491Y-11717436D02*
X1331967Y-11726960D01*
X1331967Y-11726960D02*
X1312920Y-11736484D01*
X1312920Y-11736484D02*
X1293872Y-11736484D01*
X1293872Y-11736484D02*
X1274824Y-11726960D01*
X1274824Y-11726960D02*
X1265301Y-11717436D01*
X1265301Y-11717436D02*
X1255777Y-11698388D01*
X1255777Y-11698388D02*
X1246253Y-11660293D01*
X1246253Y-11660293D02*
X1246253Y-11612674D01*
X1246253Y-11612674D02*
X1255777Y-11574579D01*
X1255777Y-11574579D02*
X1265301Y-11555531D01*
X1265301Y-11555531D02*
X1274824Y-11546008D01*
X1274824Y-11546008D02*
X1293872Y-11536484D01*
X1446253Y-11717436D02*
X1455777Y-11726960D01*
X1455777Y-11726960D02*
X1446253Y-11736484D01*
X1446253Y-11736484D02*
X1436729Y-11726960D01*
X1436729Y-11726960D02*
X1446253Y-11717436D01*
X1446253Y-11717436D02*
X1446253Y-11736484D01*
X1627205Y-11536484D02*
X1589110Y-11536484D01*
X1589110Y-11536484D02*
X1570062Y-11546008D01*
X1570062Y-11546008D02*
X1560539Y-11555531D01*
X1560539Y-11555531D02*
X1541491Y-11584103D01*
X1541491Y-11584103D02*
X1531967Y-11622198D01*
X1531967Y-11622198D02*
X1531967Y-11698388D01*
X1531967Y-11698388D02*
X1541491Y-11717436D01*
X1541491Y-11717436D02*
X1551015Y-11726960D01*
X1551015Y-11726960D02*
X1570062Y-11736484D01*
X1570062Y-11736484D02*
X1608158Y-11736484D01*
X1608158Y-11736484D02*
X1627205Y-11726960D01*
X1627205Y-11726960D02*
X1636729Y-11717436D01*
X1636729Y-11717436D02*
X1646253Y-11698388D01*
X1646253Y-11698388D02*
X1646253Y-11650769D01*
X1646253Y-11650769D02*
X1636729Y-11631722D01*
X1636729Y-11631722D02*
X1627205Y-11622198D01*
X1627205Y-11622198D02*
X1608158Y-11612674D01*
X1608158Y-11612674D02*
X1570062Y-11612674D01*
X1570062Y-11612674D02*
X1551015Y-11622198D01*
X1551015Y-11622198D02*
X1541491Y-11631722D01*
X1541491Y-11631722D02*
X1531967Y-11650769D01*
X1827205Y-11536484D02*
X1731967Y-11536484D01*
X1731967Y-11536484D02*
X1722443Y-11631722D01*
X1722443Y-11631722D02*
X1731967Y-11622198D01*
X1731967Y-11622198D02*
X1751015Y-11612674D01*
X1751015Y-11612674D02*
X1798634Y-11612674D01*
X1798634Y-11612674D02*
X1817682Y-11622198D01*
X1817682Y-11622198D02*
X1827205Y-11631722D01*
X1827205Y-11631722D02*
X1836729Y-11650769D01*
X1836729Y-11650769D02*
X1836729Y-11698388D01*
X1836729Y-11698388D02*
X1827205Y-11717436D01*
X1827205Y-11717436D02*
X1817682Y-11726960D01*
X1817682Y-11726960D02*
X1798634Y-11736484D01*
X1798634Y-11736484D02*
X1751015Y-11736484D01*
X1751015Y-11736484D02*
X1731967Y-11726960D01*
X1731967Y-11726960D02*
X1722443Y-11717436D01*
X1960539Y-11536484D02*
X1979586Y-11536484D01*
X1979586Y-11536484D02*
X1998634Y-11546008D01*
X1998634Y-11546008D02*
X2008158Y-11555531D01*
X2008158Y-11555531D02*
X2017682Y-11574579D01*
X2017682Y-11574579D02*
X2027205Y-11612674D01*
X2027205Y-11612674D02*
X2027205Y-11660293D01*
X2027205Y-11660293D02*
X2017682Y-11698388D01*
X2017682Y-11698388D02*
X2008158Y-11717436D01*
X2008158Y-11717436D02*
X1998634Y-11726960D01*
X1998634Y-11726960D02*
X1979586Y-11736484D01*
X1979586Y-11736484D02*
X1960539Y-11736484D01*
X1960539Y-11736484D02*
X1941491Y-11726960D01*
X1941491Y-11726960D02*
X1931967Y-11717436D01*
X1931967Y-11717436D02*
X1922443Y-11698388D01*
X1922443Y-11698388D02*
X1912920Y-11660293D01*
X1912920Y-11660293D02*
X1912920Y-11612674D01*
X1912920Y-11612674D02*
X1922443Y-11574579D01*
X1922443Y-11574579D02*
X1931967Y-11555531D01*
X1931967Y-11555531D02*
X1941491Y-11546008D01*
X1941491Y-11546008D02*
X1960539Y-11536484D01*
X2112920Y-11736484D02*
X2112920Y-11603150D01*
X2112920Y-11622198D02*
X2122444Y-11612674D01*
X2122444Y-11612674D02*
X2141491Y-11603150D01*
X2141491Y-11603150D02*
X2170063Y-11603150D01*
X2170063Y-11603150D02*
X2189110Y-11612674D01*
X2189110Y-11612674D02*
X2198634Y-11631722D01*
X2198634Y-11631722D02*
X2198634Y-11736484D01*
X2198634Y-11631722D02*
X2208158Y-11612674D01*
X2208158Y-11612674D02*
X2227205Y-11603150D01*
X2227205Y-11603150D02*
X2255777Y-11603150D01*
X2255777Y-11603150D02*
X2274825Y-11612674D01*
X2274825Y-11612674D02*
X2284348Y-11631722D01*
X2284348Y-11631722D02*
X2284348Y-11736484D01*
X2379586Y-11736484D02*
X2379586Y-11603150D01*
X2379586Y-11622198D02*
X2389110Y-11612674D01*
X2389110Y-11612674D02*
X2408158Y-11603150D01*
X2408158Y-11603150D02*
X2436729Y-11603150D01*
X2436729Y-11603150D02*
X2455777Y-11612674D01*
X2455777Y-11612674D02*
X2465301Y-11631722D01*
X2465301Y-11631722D02*
X2465301Y-11736484D01*
X2465301Y-11631722D02*
X2474825Y-11612674D01*
X2474825Y-11612674D02*
X2493872Y-11603150D01*
X2493872Y-11603150D02*
X2522444Y-11603150D01*
X2522444Y-11603150D02*
X2541491Y-11612674D01*
X2541491Y-11612674D02*
X2551015Y-11631722D01*
X2551015Y-11631722D02*
X2551015Y-11736484D01*
X2941491Y-11526960D02*
X2770063Y-11784103D01*
X3198634Y-11536484D02*
X3217682Y-11536484D01*
X3217682Y-11536484D02*
X3236729Y-11546008D01*
X3236729Y-11546008D02*
X3246253Y-11555531D01*
X3246253Y-11555531D02*
X3255777Y-11574579D01*
X3255777Y-11574579D02*
X3265301Y-11612674D01*
X3265301Y-11612674D02*
X3265301Y-11660293D01*
X3265301Y-11660293D02*
X3255777Y-11698388D01*
X3255777Y-11698388D02*
X3246253Y-11717436D01*
X3246253Y-11717436D02*
X3236729Y-11726960D01*
X3236729Y-11726960D02*
X3217682Y-11736484D01*
X3217682Y-11736484D02*
X3198634Y-11736484D01*
X3198634Y-11736484D02*
X3179586Y-11726960D01*
X3179586Y-11726960D02*
X3170063Y-11717436D01*
X3170063Y-11717436D02*
X3160539Y-11698388D01*
X3160539Y-11698388D02*
X3151015Y-11660293D01*
X3151015Y-11660293D02*
X3151015Y-11612674D01*
X3151015Y-11612674D02*
X3160539Y-11574579D01*
X3160539Y-11574579D02*
X3170063Y-11555531D01*
X3170063Y-11555531D02*
X3179586Y-11546008D01*
X3179586Y-11546008D02*
X3198634Y-11536484D01*
X3351015Y-11717436D02*
X3360539Y-11726960D01*
X3360539Y-11726960D02*
X3351015Y-11736484D01*
X3351015Y-11736484D02*
X3341491Y-11726960D01*
X3341491Y-11726960D02*
X3351015Y-11717436D01*
X3351015Y-11717436D02*
X3351015Y-11736484D01*
X3484348Y-11536484D02*
X3503396Y-11536484D01*
X3503396Y-11536484D02*
X3522444Y-11546008D01*
X3522444Y-11546008D02*
X3531967Y-11555531D01*
X3531967Y-11555531D02*
X3541491Y-11574579D01*
X3541491Y-11574579D02*
X3551015Y-11612674D01*
X3551015Y-11612674D02*
X3551015Y-11660293D01*
X3551015Y-11660293D02*
X3541491Y-11698388D01*
X3541491Y-11698388D02*
X3531967Y-11717436D01*
X3531967Y-11717436D02*
X3522444Y-11726960D01*
X3522444Y-11726960D02*
X3503396Y-11736484D01*
X3503396Y-11736484D02*
X3484348Y-11736484D01*
X3484348Y-11736484D02*
X3465301Y-11726960D01*
X3465301Y-11726960D02*
X3455777Y-11717436D01*
X3455777Y-11717436D02*
X3446253Y-11698388D01*
X3446253Y-11698388D02*
X3436729Y-11660293D01*
X3436729Y-11660293D02*
X3436729Y-11612674D01*
X3436729Y-11612674D02*
X3446253Y-11574579D01*
X3446253Y-11574579D02*
X3455777Y-11555531D01*
X3455777Y-11555531D02*
X3465301Y-11546008D01*
X3465301Y-11546008D02*
X3484348Y-11536484D01*
X3627206Y-11555531D02*
X3636729Y-11546008D01*
X3636729Y-11546008D02*
X3655777Y-11536484D01*
X3655777Y-11536484D02*
X3703396Y-11536484D01*
X3703396Y-11536484D02*
X3722444Y-11546008D01*
X3722444Y-11546008D02*
X3731967Y-11555531D01*
X3731967Y-11555531D02*
X3741491Y-11574579D01*
X3741491Y-11574579D02*
X3741491Y-11593627D01*
X3741491Y-11593627D02*
X3731967Y-11622198D01*
X3731967Y-11622198D02*
X3617682Y-11736484D01*
X3617682Y-11736484D02*
X3741491Y-11736484D01*
X3922444Y-11536484D02*
X3827206Y-11536484D01*
X3827206Y-11536484D02*
X3817682Y-11631722D01*
X3817682Y-11631722D02*
X3827206Y-11622198D01*
X3827206Y-11622198D02*
X3846253Y-11612674D01*
X3846253Y-11612674D02*
X3893872Y-11612674D01*
X3893872Y-11612674D02*
X3912920Y-11622198D01*
X3912920Y-11622198D02*
X3922444Y-11631722D01*
X3922444Y-11631722D02*
X3931967Y-11650769D01*
X3931967Y-11650769D02*
X3931967Y-11698388D01*
X3931967Y-11698388D02*
X3922444Y-11717436D01*
X3922444Y-11717436D02*
X3912920Y-11726960D01*
X3912920Y-11726960D02*
X3893872Y-11736484D01*
X3893872Y-11736484D02*
X3846253Y-11736484D01*
X3846253Y-11736484D02*
X3827206Y-11726960D01*
X3827206Y-11726960D02*
X3817682Y-11717436D01*
X4103396Y-11536484D02*
X4065301Y-11536484D01*
X4065301Y-11536484D02*
X4046253Y-11546008D01*
X4046253Y-11546008D02*
X4036729Y-11555531D01*
X4036729Y-11555531D02*
X4017682Y-11584103D01*
X4017682Y-11584103D02*
X4008158Y-11622198D01*
X4008158Y-11622198D02*
X4008158Y-11698388D01*
X4008158Y-11698388D02*
X4017682Y-11717436D01*
X4017682Y-11717436D02*
X4027206Y-11726960D01*
X4027206Y-11726960D02*
X4046253Y-11736484D01*
X4046253Y-11736484D02*
X4084348Y-11736484D01*
X4084348Y-11736484D02*
X4103396Y-11726960D01*
X4103396Y-11726960D02*
X4112920Y-11717436D01*
X4112920Y-11717436D02*
X4122444Y-11698388D01*
X4122444Y-11698388D02*
X4122444Y-11650769D01*
X4122444Y-11650769D02*
X4112920Y-11631722D01*
X4112920Y-11631722D02*
X4103396Y-11622198D01*
X4103396Y-11622198D02*
X4084348Y-11612674D01*
X4084348Y-11612674D02*
X4046253Y-11612674D01*
X4046253Y-11612674D02*
X4027206Y-11622198D01*
X4027206Y-11622198D02*
X4017682Y-11631722D01*
X4017682Y-11631722D02*
X4008158Y-11650769D01*
X4198634Y-11536484D02*
X4198634Y-11574579D01*
X4274825Y-11536484D02*
X4274825Y-11574579D01*
X4570063Y-11812674D02*
X4560539Y-11803150D01*
X4560539Y-11803150D02*
X4541491Y-11774579D01*
X4541491Y-11774579D02*
X4531968Y-11755531D01*
X4531968Y-11755531D02*
X4522444Y-11726960D01*
X4522444Y-11726960D02*
X4512920Y-11679341D01*
X4512920Y-11679341D02*
X4512920Y-11641246D01*
X4512920Y-11641246D02*
X4522444Y-11593627D01*
X4522444Y-11593627D02*
X4531968Y-11565055D01*
X4531968Y-11565055D02*
X4541491Y-11546008D01*
X4541491Y-11546008D02*
X4560539Y-11517436D01*
X4560539Y-11517436D02*
X4570063Y-11507912D01*
X4636730Y-11555531D02*
X4646253Y-11546008D01*
X4646253Y-11546008D02*
X4665301Y-11536484D01*
X4665301Y-11536484D02*
X4712920Y-11536484D01*
X4712920Y-11536484D02*
X4731968Y-11546008D01*
X4731968Y-11546008D02*
X4741491Y-11555531D01*
X4741491Y-11555531D02*
X4751015Y-11574579D01*
X4751015Y-11574579D02*
X4751015Y-11593627D01*
X4751015Y-11593627D02*
X4741491Y-11622198D01*
X4741491Y-11622198D02*
X4627206Y-11736484D01*
X4627206Y-11736484D02*
X4751015Y-11736484D01*
X4989111Y-11736484D02*
X4989111Y-11536484D01*
X5074825Y-11736484D02*
X5074825Y-11631722D01*
X5074825Y-11631722D02*
X5065301Y-11612674D01*
X5065301Y-11612674D02*
X5046253Y-11603150D01*
X5046253Y-11603150D02*
X5017682Y-11603150D01*
X5017682Y-11603150D02*
X4998634Y-11612674D01*
X4998634Y-11612674D02*
X4989111Y-11622198D01*
X5198634Y-11736484D02*
X5179587Y-11726960D01*
X5179587Y-11726960D02*
X5170063Y-11717436D01*
X5170063Y-11717436D02*
X5160539Y-11698388D01*
X5160539Y-11698388D02*
X5160539Y-11641246D01*
X5160539Y-11641246D02*
X5170063Y-11622198D01*
X5170063Y-11622198D02*
X5179587Y-11612674D01*
X5179587Y-11612674D02*
X5198634Y-11603150D01*
X5198634Y-11603150D02*
X5227206Y-11603150D01*
X5227206Y-11603150D02*
X5246253Y-11612674D01*
X5246253Y-11612674D02*
X5255777Y-11622198D01*
X5255777Y-11622198D02*
X5265301Y-11641246D01*
X5265301Y-11641246D02*
X5265301Y-11698388D01*
X5265301Y-11698388D02*
X5255777Y-11717436D01*
X5255777Y-11717436D02*
X5246253Y-11726960D01*
X5246253Y-11726960D02*
X5227206Y-11736484D01*
X5227206Y-11736484D02*
X5198634Y-11736484D01*
X5379587Y-11736484D02*
X5360539Y-11726960D01*
X5360539Y-11726960D02*
X5351015Y-11707912D01*
X5351015Y-11707912D02*
X5351015Y-11536484D01*
X5531968Y-11726960D02*
X5512920Y-11736484D01*
X5512920Y-11736484D02*
X5474825Y-11736484D01*
X5474825Y-11736484D02*
X5455777Y-11726960D01*
X5455777Y-11726960D02*
X5446253Y-11707912D01*
X5446253Y-11707912D02*
X5446253Y-11631722D01*
X5446253Y-11631722D02*
X5455777Y-11612674D01*
X5455777Y-11612674D02*
X5474825Y-11603150D01*
X5474825Y-11603150D02*
X5512920Y-11603150D01*
X5512920Y-11603150D02*
X5531968Y-11612674D01*
X5531968Y-11612674D02*
X5541492Y-11631722D01*
X5541492Y-11631722D02*
X5541492Y-11650769D01*
X5541492Y-11650769D02*
X5446253Y-11669817D01*
X5617682Y-11726960D02*
X5636730Y-11736484D01*
X5636730Y-11736484D02*
X5674825Y-11736484D01*
X5674825Y-11736484D02*
X5693872Y-11726960D01*
X5693872Y-11726960D02*
X5703396Y-11707912D01*
X5703396Y-11707912D02*
X5703396Y-11698388D01*
X5703396Y-11698388D02*
X5693872Y-11679341D01*
X5693872Y-11679341D02*
X5674825Y-11669817D01*
X5674825Y-11669817D02*
X5646253Y-11669817D01*
X5646253Y-11669817D02*
X5627206Y-11660293D01*
X5627206Y-11660293D02*
X5617682Y-11641246D01*
X5617682Y-11641246D02*
X5617682Y-11631722D01*
X5617682Y-11631722D02*
X5627206Y-11612674D01*
X5627206Y-11612674D02*
X5646253Y-11603150D01*
X5646253Y-11603150D02*
X5674825Y-11603150D01*
X5674825Y-11603150D02*
X5693872Y-11612674D01*
X5770063Y-11812674D02*
X5779587Y-11803150D01*
X5779587Y-11803150D02*
X5798634Y-11774579D01*
X5798634Y-11774579D02*
X5808158Y-11755531D01*
X5808158Y-11755531D02*
X5817682Y-11726960D01*
X5817682Y-11726960D02*
X5827206Y-11679341D01*
X5827206Y-11679341D02*
X5827206Y-11641246D01*
X5827206Y-11641246D02*
X5817682Y-11593627D01*
X5817682Y-11593627D02*
X5808158Y-11565055D01*
X5808158Y-11565055D02*
X5798634Y-11546008D01*
X5798634Y-11546008D02*
X5779587Y-11517436D01*
X5779587Y-11517436D02*
X5770063Y-11507912D01*
X6131968Y-11812674D02*
X6122444Y-11803150D01*
X6122444Y-11803150D02*
X6103396Y-11774579D01*
X6103396Y-11774579D02*
X6093872Y-11755531D01*
X6093872Y-11755531D02*
X6084349Y-11726960D01*
X6084349Y-11726960D02*
X6074825Y-11679341D01*
X6074825Y-11679341D02*
X6074825Y-11641246D01*
X6074825Y-11641246D02*
X6084349Y-11593627D01*
X6084349Y-11593627D02*
X6093872Y-11565055D01*
X6093872Y-11565055D02*
X6103396Y-11546008D01*
X6103396Y-11546008D02*
X6122444Y-11517436D01*
X6122444Y-11517436D02*
X6131968Y-11507912D01*
X6208158Y-11603150D02*
X6208158Y-11736484D01*
X6208158Y-11622198D02*
X6217682Y-11612674D01*
X6217682Y-11612674D02*
X6236730Y-11603150D01*
X6236730Y-11603150D02*
X6265301Y-11603150D01*
X6265301Y-11603150D02*
X6284349Y-11612674D01*
X6284349Y-11612674D02*
X6293872Y-11631722D01*
X6293872Y-11631722D02*
X6293872Y-11736484D01*
X6417682Y-11736484D02*
X6398634Y-11726960D01*
X6398634Y-11726960D02*
X6389111Y-11717436D01*
X6389111Y-11717436D02*
X6379587Y-11698388D01*
X6379587Y-11698388D02*
X6379587Y-11641246D01*
X6379587Y-11641246D02*
X6389111Y-11622198D01*
X6389111Y-11622198D02*
X6398634Y-11612674D01*
X6398634Y-11612674D02*
X6417682Y-11603150D01*
X6417682Y-11603150D02*
X6446253Y-11603150D01*
X6446253Y-11603150D02*
X6465301Y-11612674D01*
X6465301Y-11612674D02*
X6474825Y-11622198D01*
X6474825Y-11622198D02*
X6484349Y-11641246D01*
X6484349Y-11641246D02*
X6484349Y-11698388D01*
X6484349Y-11698388D02*
X6474825Y-11717436D01*
X6474825Y-11717436D02*
X6465301Y-11726960D01*
X6465301Y-11726960D02*
X6446253Y-11736484D01*
X6446253Y-11736484D02*
X6417682Y-11736484D01*
X6541492Y-11603150D02*
X6617682Y-11603150D01*
X6570063Y-11536484D02*
X6570063Y-11707912D01*
X6570063Y-11707912D02*
X6579587Y-11726960D01*
X6579587Y-11726960D02*
X6598634Y-11736484D01*
X6598634Y-11736484D02*
X6617682Y-11736484D01*
X6836730Y-11603150D02*
X6836730Y-11803150D01*
X6836730Y-11612674D02*
X6855777Y-11603150D01*
X6855777Y-11603150D02*
X6893873Y-11603150D01*
X6893873Y-11603150D02*
X6912920Y-11612674D01*
X6912920Y-11612674D02*
X6922444Y-11622198D01*
X6922444Y-11622198D02*
X6931968Y-11641246D01*
X6931968Y-11641246D02*
X6931968Y-11698388D01*
X6931968Y-11698388D02*
X6922444Y-11717436D01*
X6922444Y-11717436D02*
X6912920Y-11726960D01*
X6912920Y-11726960D02*
X6893873Y-11736484D01*
X6893873Y-11736484D02*
X6855777Y-11736484D01*
X6855777Y-11736484D02*
X6836730Y-11726960D01*
X7046253Y-11736484D02*
X7027206Y-11726960D01*
X7027206Y-11726960D02*
X7017682Y-11707912D01*
X7017682Y-11707912D02*
X7017682Y-11536484D01*
X7208158Y-11736484D02*
X7208158Y-11631722D01*
X7208158Y-11631722D02*
X7198634Y-11612674D01*
X7198634Y-11612674D02*
X7179587Y-11603150D01*
X7179587Y-11603150D02*
X7141492Y-11603150D01*
X7141492Y-11603150D02*
X7122444Y-11612674D01*
X7208158Y-11726960D02*
X7189111Y-11736484D01*
X7189111Y-11736484D02*
X7141492Y-11736484D01*
X7141492Y-11736484D02*
X7122444Y-11726960D01*
X7122444Y-11726960D02*
X7112920Y-11707912D01*
X7112920Y-11707912D02*
X7112920Y-11688865D01*
X7112920Y-11688865D02*
X7122444Y-11669817D01*
X7122444Y-11669817D02*
X7141492Y-11660293D01*
X7141492Y-11660293D02*
X7189111Y-11660293D01*
X7189111Y-11660293D02*
X7208158Y-11650769D01*
X7274825Y-11603150D02*
X7351015Y-11603150D01*
X7303396Y-11536484D02*
X7303396Y-11707912D01*
X7303396Y-11707912D02*
X7312920Y-11726960D01*
X7312920Y-11726960D02*
X7331968Y-11736484D01*
X7331968Y-11736484D02*
X7351015Y-11736484D01*
X7493873Y-11726960D02*
X7474825Y-11736484D01*
X7474825Y-11736484D02*
X7436730Y-11736484D01*
X7436730Y-11736484D02*
X7417682Y-11726960D01*
X7417682Y-11726960D02*
X7408158Y-11707912D01*
X7408158Y-11707912D02*
X7408158Y-11631722D01*
X7408158Y-11631722D02*
X7417682Y-11612674D01*
X7417682Y-11612674D02*
X7436730Y-11603150D01*
X7436730Y-11603150D02*
X7474825Y-11603150D01*
X7474825Y-11603150D02*
X7493873Y-11612674D01*
X7493873Y-11612674D02*
X7503396Y-11631722D01*
X7503396Y-11631722D02*
X7503396Y-11650769D01*
X7503396Y-11650769D02*
X7408158Y-11669817D01*
X7674825Y-11736484D02*
X7674825Y-11536484D01*
X7674825Y-11726960D02*
X7655777Y-11736484D01*
X7655777Y-11736484D02*
X7617682Y-11736484D01*
X7617682Y-11736484D02*
X7598634Y-11726960D01*
X7598634Y-11726960D02*
X7589111Y-11717436D01*
X7589111Y-11717436D02*
X7579587Y-11698388D01*
X7579587Y-11698388D02*
X7579587Y-11641246D01*
X7579587Y-11641246D02*
X7589111Y-11622198D01*
X7589111Y-11622198D02*
X7598634Y-11612674D01*
X7598634Y-11612674D02*
X7617682Y-11603150D01*
X7617682Y-11603150D02*
X7655777Y-11603150D01*
X7655777Y-11603150D02*
X7674825Y-11612674D01*
X7751015Y-11812674D02*
X7760539Y-11803150D01*
X7760539Y-11803150D02*
X7779587Y-11774579D01*
X7779587Y-11774579D02*
X7789111Y-11755531D01*
X7789111Y-11755531D02*
X7798634Y-11726960D01*
X7798634Y-11726960D02*
X7808158Y-11679341D01*
X7808158Y-11679341D02*
X7808158Y-11641246D01*
X7808158Y-11641246D02*
X7798634Y-11593627D01*
X7798634Y-11593627D02*
X7789111Y-11565055D01*
X7789111Y-11565055D02*
X7779587Y-11546008D01*
X7779587Y-11546008D02*
X7760539Y-11517436D01*
X7760539Y-11517436D02*
X7751015Y-11507912D01*
M02*
