%TF.GenerationSoftware,KiCad,Pcbnew,10.0.5*%
%TF.CreationDate,2026-08-25T17:33:02+08:00*%
%TF.ProjectId,PCAP04_Acquisition_3CH_v1.5_100mm_C496550,50434150-3034-45f4-9163-717569736974,v1.5*%
%TF.SameCoordinates,Original*%
%TF.FileFunction,Drillmap*%
%TF.FilePolarity,Positive*%
%FSLAX45Y45*%
G04 Gerber Fmt 4.5, Leading zero omitted, Abs format (unit mm)*
G04 Created by KiCad (PCBNEW 10.0.5) date 2026-08-25 17:33:02*
%MOMM*%
%LPD*%
G01*
G04 APERTURE LIST*
%ADD10C,0.100000*%
%ADD11C,0.200000*%
G04 APERTURE END LIST*
D10*
X1000000Y-1000000D02*
X11000000Y-1000000D01*
X1000000Y-11000000D02*
X1000000Y-1000000D01*
X11000000Y-1000000D02*
X11000000Y-11000000D01*
X11000000Y-11000000D02*
X1000000Y-11000000D01*
D11*
D10*
X4635000Y-6385000D02*
X4665000Y-6415000D01*
X4665000Y-6385000D02*
X4635000Y-6415000D01*
X4810000Y-6110000D02*
X4840000Y-6140000D01*
X4840000Y-6110000D02*
X4810000Y-6140000D01*
X4922430Y-6170620D02*
X4952430Y-6200620D01*
X4952430Y-6170620D02*
X4922430Y-6200620D01*
X5308910Y-6266300D02*
X5338910Y-6296300D01*
X5338910Y-6266300D02*
X5308910Y-6296300D01*
X5535000Y-5785000D02*
X5565000Y-5815000D01*
X5565000Y-5785000D02*
X5535000Y-5815000D01*
X1370000Y-1375000D02*
G75*
G02*
X1330000Y-1375000I-20000J0D01*
G01*
X1330000Y-1375000D02*
G75*
G02*
X1370000Y-1375000I20000J0D01*
G01*
X1370000Y-2225000D02*
G75*
G02*
X1330000Y-2225000I-20000J0D01*
G01*
X1330000Y-2225000D02*
G75*
G02*
X1370000Y-2225000I20000J0D01*
G01*
X1370000Y-2975000D02*
G75*
G02*
X1330000Y-2975000I-20000J0D01*
G01*
X1330000Y-2975000D02*
G75*
G02*
X1370000Y-2975000I20000J0D01*
G01*
X1370000Y-3825000D02*
G75*
G02*
X1330000Y-3825000I-20000J0D01*
G01*
X1330000Y-3825000D02*
G75*
G02*
X1370000Y-3825000I20000J0D01*
G01*
X1370000Y-4575000D02*
G75*
G02*
X1330000Y-4575000I-20000J0D01*
G01*
X1330000Y-4575000D02*
G75*
G02*
X1370000Y-4575000I20000J0D01*
G01*
X1370000Y-5425000D02*
G75*
G02*
X1330000Y-5425000I-20000J0D01*
G01*
X1330000Y-5425000D02*
G75*
G02*
X1370000Y-5425000I20000J0D01*
G01*
X1370000Y-6175000D02*
G75*
G02*
X1330000Y-6175000I-20000J0D01*
G01*
X1330000Y-6175000D02*
G75*
G02*
X1370000Y-6175000I20000J0D01*
G01*
X1370000Y-7025000D02*
G75*
G02*
X1330000Y-7025000I-20000J0D01*
G01*
X1330000Y-7025000D02*
G75*
G02*
X1370000Y-7025000I20000J0D01*
G01*
X1370000Y-7775000D02*
G75*
G02*
X1330000Y-7775000I-20000J0D01*
G01*
X1330000Y-7775000D02*
G75*
G02*
X1370000Y-7775000I20000J0D01*
G01*
X1370000Y-8625000D02*
G75*
G02*
X1330000Y-8625000I-20000J0D01*
G01*
X1330000Y-8625000D02*
G75*
G02*
X1370000Y-8625000I20000J0D01*
G01*
X1370000Y-9375000D02*
G75*
G02*
X1330000Y-9375000I-20000J0D01*
G01*
X1330000Y-9375000D02*
G75*
G02*
X1370000Y-9375000I20000J0D01*
G01*
X1370000Y-10225000D02*
G75*
G02*
X1330000Y-10225000I-20000J0D01*
G01*
X1330000Y-10225000D02*
G75*
G02*
X1370000Y-10225000I20000J0D01*
G01*
X3152910Y-8347910D02*
G75*
G02*
X3112910Y-8347910I-20000J0D01*
G01*
X3112910Y-8347910D02*
G75*
G02*
X3152910Y-8347910I20000J0D01*
G01*
X3220000Y-1937350D02*
G75*
G02*
X3180000Y-1937350I-20000J0D01*
G01*
X3180000Y-1937350D02*
G75*
G02*
X3220000Y-1937350I20000J0D01*
G01*
X3220000Y-3538940D02*
G75*
G02*
X3180000Y-3538940I-20000J0D01*
G01*
X3180000Y-3538940D02*
G75*
G02*
X3220000Y-3538940I20000J0D01*
G01*
X3220000Y-5136040D02*
G75*
G02*
X3180000Y-5136040I-20000J0D01*
G01*
X3180000Y-5136040D02*
G75*
G02*
X3220000Y-5136040I20000J0D01*
G01*
X3220000Y-6737100D02*
G75*
G02*
X3180000Y-6737100I-20000J0D01*
G01*
X3180000Y-6737100D02*
G75*
G02*
X3220000Y-6737100I20000J0D01*
G01*
X3220000Y-9937020D02*
G75*
G02*
X3180000Y-9937020I-20000J0D01*
G01*
X3180000Y-9937020D02*
G75*
G02*
X3220000Y-9937020I20000J0D01*
G01*
X3313530Y-3685000D02*
G75*
G02*
X3273530Y-3685000I-20000J0D01*
G01*
X3273530Y-3685000D02*
G75*
G02*
X3313530Y-3685000I20000J0D01*
G01*
X3509880Y-10431910D02*
G75*
G02*
X3469880Y-10431910I-20000J0D01*
G01*
X3469880Y-10431910D02*
G75*
G02*
X3509880Y-10431910I20000J0D01*
G01*
X3515040Y-2338720D02*
G75*
G02*
X3475040Y-2338720I-20000J0D01*
G01*
X3475040Y-2338720D02*
G75*
G02*
X3515040Y-2338720I20000J0D01*
G01*
X3515040Y-2724110D02*
G75*
G02*
X3475040Y-2724110I-20000J0D01*
G01*
X3475040Y-2724110D02*
G75*
G02*
X3515040Y-2724110I20000J0D01*
G01*
X3900430Y-9009020D02*
G75*
G02*
X3860430Y-9009020I-20000J0D01*
G01*
X3860430Y-9009020D02*
G75*
G02*
X3900430Y-9009020I20000J0D01*
G01*
X3999800Y-10503530D02*
G75*
G02*
X3959800Y-10503530I-20000J0D01*
G01*
X3959800Y-10503530D02*
G75*
G02*
X3999800Y-10503530I20000J0D01*
G01*
X4213980Y-5590090D02*
G75*
G02*
X4173980Y-5590090I-20000J0D01*
G01*
X4173980Y-5590090D02*
G75*
G02*
X4213980Y-5590090I20000J0D01*
G01*
X4368000Y-6112340D02*
G75*
G02*
X4328000Y-6112340I-20000J0D01*
G01*
X4328000Y-6112340D02*
G75*
G02*
X4368000Y-6112340I20000J0D01*
G01*
X4398610Y-10544390D02*
G75*
G02*
X4358610Y-10544390I-20000J0D01*
G01*
X4358610Y-10544390D02*
G75*
G02*
X4398610Y-10544390I20000J0D01*
G01*
X4416750Y-5815200D02*
G75*
G02*
X4376750Y-5815200I-20000J0D01*
G01*
X4376750Y-5815200D02*
G75*
G02*
X4416750Y-5815200I20000J0D01*
G01*
X4544880Y-5442460D02*
G75*
G02*
X4504880Y-5442460I-20000J0D01*
G01*
X4504880Y-5442460D02*
G75*
G02*
X4544880Y-5442460I20000J0D01*
G01*
X4623750Y-5597850D02*
G75*
G02*
X4583750Y-5597850I-20000J0D01*
G01*
X4583750Y-5597850D02*
G75*
G02*
X4623750Y-5597850I20000J0D01*
G01*
X4770570Y-5369890D02*
G75*
G02*
X4730570Y-5369890I-20000J0D01*
G01*
X4730570Y-5369890D02*
G75*
G02*
X4770570Y-5369890I20000J0D01*
G01*
X4799460Y-10545130D02*
G75*
G02*
X4759460Y-10545130I-20000J0D01*
G01*
X4759460Y-10545130D02*
G75*
G02*
X4799460Y-10545130I20000J0D01*
G01*
X4802520Y-8382490D02*
G75*
G02*
X4762520Y-8382490I-20000J0D01*
G01*
X4762520Y-8382490D02*
G75*
G02*
X4802520Y-8382490I20000J0D01*
G01*
X4970610Y-5503610D02*
G75*
G02*
X4930610Y-5503610I-20000J0D01*
G01*
X4930610Y-5503610D02*
G75*
G02*
X4970610Y-5503610I20000J0D01*
G01*
X5020340Y-6000430D02*
G75*
G02*
X4980340Y-6000430I-20000J0D01*
G01*
X4980340Y-6000430D02*
G75*
G02*
X5020340Y-6000430I20000J0D01*
G01*
X5195950Y-7400000D02*
G75*
G02*
X5155950Y-7400000I-20000J0D01*
G01*
X5155950Y-7400000D02*
G75*
G02*
X5195950Y-7400000I20000J0D01*
G01*
X5341400Y-5875000D02*
G75*
G02*
X5301400Y-5875000I-20000J0D01*
G01*
X5301400Y-5875000D02*
G75*
G02*
X5341400Y-5875000I20000J0D01*
G01*
X5408450Y-6193450D02*
G75*
G02*
X5368450Y-6193450I-20000J0D01*
G01*
X5368450Y-6193450D02*
G75*
G02*
X5408450Y-6193450I20000J0D01*
G01*
X5539770Y-7569780D02*
G75*
G02*
X5499770Y-7569780I-20000J0D01*
G01*
X5499770Y-7569780D02*
G75*
G02*
X5539770Y-7569780I20000J0D01*
G01*
X5960560Y-7642150D02*
G75*
G02*
X5920560Y-7642150I-20000J0D01*
G01*
X5920560Y-7642150D02*
G75*
G02*
X5960560Y-7642150I20000J0D01*
G01*
X6138490Y-6582510D02*
G75*
G02*
X6098490Y-6582510I-20000J0D01*
G01*
X6098490Y-6582510D02*
G75*
G02*
X6138490Y-6582510I20000J0D01*
G01*
X6438090Y-7667090D02*
G75*
G02*
X6398090Y-7667090I-20000J0D01*
G01*
X6398090Y-7667090D02*
G75*
G02*
X6438090Y-7667090I20000J0D01*
G01*
X6462980Y-5765000D02*
G75*
G02*
X6422980Y-5765000I-20000J0D01*
G01*
X6422980Y-5765000D02*
G75*
G02*
X6462980Y-5765000I20000J0D01*
G01*
X6464460Y-5895000D02*
G75*
G02*
X6424460Y-5895000I-20000J0D01*
G01*
X6424460Y-5895000D02*
G75*
G02*
X6464460Y-5895000I20000J0D01*
G01*
X6464960Y-5558760D02*
G75*
G02*
X6424960Y-5558760I-20000J0D01*
G01*
X6424960Y-5558760D02*
G75*
G02*
X6464960Y-5558760I20000J0D01*
G01*
X7046220Y-5630440D02*
G75*
G02*
X7006220Y-5630440I-20000J0D01*
G01*
X7006220Y-5630440D02*
G75*
G02*
X7046220Y-5630440I20000J0D01*
G01*
X7111130Y-5560200D02*
G75*
G02*
X7071130Y-5560200I-20000J0D01*
G01*
X7071130Y-5560200D02*
G75*
G02*
X7111130Y-5560200I20000J0D01*
G01*
X7368940Y-7289020D02*
G75*
G02*
X7328940Y-7289020I-20000J0D01*
G01*
X7328940Y-7289020D02*
G75*
G02*
X7368940Y-7289020I20000J0D01*
G01*
X7413020Y-7485690D02*
G75*
G02*
X7373020Y-7485690I-20000J0D01*
G01*
X7373020Y-7485690D02*
G75*
G02*
X7413020Y-7485690I20000J0D01*
G01*
X7446460Y-8229210D02*
G75*
G02*
X7406460Y-8229210I-20000J0D01*
G01*
X7406460Y-8229210D02*
G75*
G02*
X7446460Y-8229210I20000J0D01*
G01*
X7542540Y-5874280D02*
G75*
G02*
X7502540Y-5874280I-20000J0D01*
G01*
X7502540Y-5874280D02*
G75*
G02*
X7542540Y-5874280I20000J0D01*
G01*
X7686380Y-7385620D02*
G75*
G02*
X7646380Y-7385620I-20000J0D01*
G01*
X7646380Y-7385620D02*
G75*
G02*
X7686380Y-7385620I20000J0D01*
G01*
X7700730Y-8095910D02*
G75*
G02*
X7660730Y-8095910I-20000J0D01*
G01*
X7660730Y-8095910D02*
G75*
G02*
X7700730Y-8095910I20000J0D01*
G01*
X7732390Y-5039610D02*
G75*
G02*
X7692390Y-5039610I-20000J0D01*
G01*
X7692390Y-5039610D02*
G75*
G02*
X7732390Y-5039610I20000J0D01*
G01*
X7768630Y-6032060D02*
G75*
G02*
X7728630Y-6032060I-20000J0D01*
G01*
X7728630Y-6032060D02*
G75*
G02*
X7768630Y-6032060I20000J0D01*
G01*
X7971540Y-6198100D02*
G75*
G02*
X7931540Y-6198100I-20000J0D01*
G01*
X7931540Y-6198100D02*
G75*
G02*
X7971540Y-6198100I20000J0D01*
G01*
X8033140Y-5675000D02*
G75*
G02*
X7993140Y-5675000I-20000J0D01*
G01*
X7993140Y-5675000D02*
G75*
G02*
X8033140Y-5675000I20000J0D01*
G01*
X8033610Y-5825000D02*
G75*
G02*
X7993610Y-5825000I-20000J0D01*
G01*
X7993610Y-5825000D02*
G75*
G02*
X8033610Y-5825000I20000J0D01*
G01*
X8106670Y-6084530D02*
G75*
G02*
X8066670Y-6084530I-20000J0D01*
G01*
X8066670Y-6084530D02*
G75*
G02*
X8106670Y-6084530I20000J0D01*
G01*
X8220000Y-6670600D02*
G75*
G02*
X8180000Y-6670600I-20000J0D01*
G01*
X8180000Y-6670600D02*
G75*
G02*
X8220000Y-6670600I20000J0D01*
G01*
X8259440Y-8223660D02*
G75*
G02*
X8219440Y-8223660I-20000J0D01*
G01*
X8219440Y-8223660D02*
G75*
G02*
X8259440Y-8223660I20000J0D01*
G01*
X8295000Y-6080080D02*
G75*
G02*
X8255000Y-6080080I-20000J0D01*
G01*
X8255000Y-6080080D02*
G75*
G02*
X8295000Y-6080080I20000J0D01*
G01*
X8495000Y-6078300D02*
G75*
G02*
X8455000Y-6078300I-20000J0D01*
G01*
X8455000Y-6078300D02*
G75*
G02*
X8495000Y-6078300I20000J0D01*
G01*
X8510660Y-5775300D02*
G75*
G02*
X8470660Y-5775300I-20000J0D01*
G01*
X8470660Y-5775300D02*
G75*
G02*
X8510660Y-5775300I20000J0D01*
G01*
X8524470Y-7728240D02*
G75*
G02*
X8484470Y-7728240I-20000J0D01*
G01*
X8484470Y-7728240D02*
G75*
G02*
X8524470Y-7728240I20000J0D01*
G01*
X8679010Y-6552000D02*
G75*
G02*
X8639010Y-6552000I-20000J0D01*
G01*
X8639010Y-6552000D02*
G75*
G02*
X8679010Y-6552000I20000J0D01*
G01*
X8679750Y-4952000D02*
G75*
G02*
X8639750Y-4952000I-20000J0D01*
G01*
X8639750Y-4952000D02*
G75*
G02*
X8679750Y-4952000I20000J0D01*
G01*
X8790550Y-5451410D02*
G75*
G02*
X8750550Y-5451410I-20000J0D01*
G01*
X8750550Y-5451410D02*
G75*
G02*
X8790550Y-5451410I20000J0D01*
G01*
X8862240Y-6600150D02*
G75*
G02*
X8822240Y-6600150I-20000J0D01*
G01*
X8822240Y-6600150D02*
G75*
G02*
X8862240Y-6600150I20000J0D01*
G01*
X8954720Y-5639080D02*
G75*
G02*
X8914720Y-5639080I-20000J0D01*
G01*
X8914720Y-5639080D02*
G75*
G02*
X8954720Y-5639080I20000J0D01*
G01*
X8986820Y-5471000D02*
G75*
G02*
X8946820Y-5471000I-20000J0D01*
G01*
X8946820Y-5471000D02*
G75*
G02*
X8986820Y-5471000I20000J0D01*
G01*
X9182330Y-5872400D02*
G75*
G02*
X9142330Y-5872400I-20000J0D01*
G01*
X9142330Y-5872400D02*
G75*
G02*
X9182330Y-5872400I20000J0D01*
G01*
X9235320Y-5432680D02*
G75*
G02*
X9195320Y-5432680I-20000J0D01*
G01*
X9195320Y-5432680D02*
G75*
G02*
X9235320Y-5432680I20000J0D01*
G01*
X9507530Y-2398080D02*
G75*
G02*
X9467530Y-2398080I-20000J0D01*
G01*
X9467530Y-2398080D02*
G75*
G02*
X9507530Y-2398080I20000J0D01*
G01*
X9538970Y-2224740D02*
G75*
G02*
X9498970Y-2224740I-20000J0D01*
G01*
X9498970Y-2224740D02*
G75*
G02*
X9538970Y-2224740I20000J0D01*
G01*
X9565690Y-5962460D02*
G75*
G02*
X9525690Y-5962460I-20000J0D01*
G01*
X9525690Y-5962460D02*
G75*
G02*
X9565690Y-5962460I20000J0D01*
G01*
X9690780Y-8139700D02*
G75*
G02*
X9650780Y-8139700I-20000J0D01*
G01*
X9650780Y-8139700D02*
G75*
G02*
X9690780Y-8139700I20000J0D01*
G01*
X9712720Y-4265670D02*
G75*
G02*
X9672720Y-4265670I-20000J0D01*
G01*
X9672720Y-4265670D02*
G75*
G02*
X9712720Y-4265670I20000J0D01*
G01*
X9820000Y-2435540D02*
G75*
G02*
X9780000Y-2435540I-20000J0D01*
G01*
X9780000Y-2435540D02*
G75*
G02*
X9820000Y-2435540I20000J0D01*
G01*
X9986550Y-1482240D02*
G75*
G02*
X9946550Y-1482240I-20000J0D01*
G01*
X9946550Y-1482240D02*
G75*
G02*
X9986550Y-1482240I20000J0D01*
G01*
X10080880Y-8000910D02*
G75*
G02*
X10040880Y-8000910I-20000J0D01*
G01*
X10040880Y-8000910D02*
G75*
G02*
X10080880Y-8000910I20000J0D01*
G01*
X10103000Y-2342990D02*
G75*
G02*
X10063000Y-2342990I-20000J0D01*
G01*
X10063000Y-2342990D02*
G75*
G02*
X10103000Y-2342990I20000J0D01*
G01*
X10171000Y-1590760D02*
G75*
G02*
X10131000Y-1590760I-20000J0D01*
G01*
X10131000Y-1590760D02*
G75*
G02*
X10171000Y-1590760I20000J0D01*
G01*
X10307920Y-2591110D02*
G75*
G02*
X10267920Y-2591110I-20000J0D01*
G01*
X10267920Y-2591110D02*
G75*
G02*
X10307920Y-2591110I20000J0D01*
G01*
X10315890Y-7827820D02*
G75*
G02*
X10275890Y-7827820I-20000J0D01*
G01*
X10275890Y-7827820D02*
G75*
G02*
X10315890Y-7827820I20000J0D01*
G01*
X10352180Y-1718270D02*
G75*
G02*
X10312180Y-1718270I-20000J0D01*
G01*
X10312180Y-1718270D02*
G75*
G02*
X10352180Y-1718270I20000J0D01*
G01*
X10433140Y-3260910D02*
G75*
G02*
X10393140Y-3260910I-20000J0D01*
G01*
X10393140Y-3260910D02*
G75*
G02*
X10433140Y-3260910I20000J0D01*
G01*
X10536960Y-1434040D02*
G75*
G02*
X10496960Y-1434040I-20000J0D01*
G01*
X10496960Y-1434040D02*
G75*
G02*
X10536960Y-1434040I20000J0D01*
G01*
X10732670Y-8119570D02*
G75*
G02*
X10692670Y-8119570I-20000J0D01*
G01*
X10692670Y-8119570D02*
G75*
G02*
X10732670Y-8119570I20000J0D01*
G01*
X10866190Y-6188440D02*
G75*
G02*
X10826190Y-6188440I-20000J0D01*
G01*
X10826190Y-6188440D02*
G75*
G02*
X10866190Y-6188440I20000J0D01*
G01*
X10487000Y-1738000D02*
X10487000Y-1798000D01*
X10457000Y-1768000D02*
X10517000Y-1768000D01*
X10432000Y-1798000D02*
X10542000Y-1798000D01*
X10542000Y-1738000D02*
G75*
G02*
X10542000Y-1798000I0J-30000D01*
G01*
X10542000Y-1738000D02*
X10432000Y-1738000D01*
X10432000Y-1738000D02*
G75*
G03*
X10432000Y-1798000I0J-30000D01*
G01*
X10487000Y-2602000D02*
X10487000Y-2662000D01*
X10457000Y-2632000D02*
X10517000Y-2632000D01*
X10432000Y-2662000D02*
X10542000Y-2662000D01*
X10542000Y-2602000D02*
G75*
G02*
X10542000Y-2662000I0J-30000D01*
G01*
X10542000Y-2602000D02*
X10432000Y-2602000D01*
X10432000Y-2602000D02*
G75*
G03*
X10432000Y-2662000I0J-30000D01*
G01*
X10905000Y-1738000D02*
X10905000Y-1798000D01*
X10875000Y-1768000D02*
X10935000Y-1768000D01*
X10875000Y-1798000D02*
X10935000Y-1798000D01*
X10935000Y-1738000D02*
G75*
G02*
X10935000Y-1798000I0J-30000D01*
G01*
X10935000Y-1738000D02*
X10875000Y-1738000D01*
X10875000Y-1738000D02*
G75*
G03*
X10875000Y-1798000I0J-30000D01*
G01*
X10905000Y-2602000D02*
X10905000Y-2662000D01*
X10875000Y-2632000D02*
X10935000Y-2632000D01*
X10875000Y-2662000D02*
X10935000Y-2662000D01*
X10935000Y-2602000D02*
G75*
G02*
X10935000Y-2662000I0J-30000D01*
G01*
X10935000Y-2602000D02*
X10875000Y-2602000D01*
X10875000Y-2602000D02*
G75*
G03*
X10875000Y-2662000I0J-30000D01*
G01*
X9535356Y-9735356D02*
X9535356Y-9664644D01*
X9464644Y-9664644D01*
X9464644Y-9735356D01*
X9535356Y-9735356D01*
X9789356Y-9735356D02*
X9789356Y-9664644D01*
X9718644Y-9664644D01*
X9718644Y-9735356D01*
X9789356Y-9735356D01*
X10043356Y-9735356D02*
X10043356Y-9664644D01*
X9972644Y-9664644D01*
X9972644Y-9735356D01*
X10043356Y-9735356D01*
X10335356Y-4335356D02*
X10335356Y-4264644D01*
X10264644Y-4264644D01*
X10264644Y-4335356D01*
X10335356Y-4335356D01*
X10589356Y-4335356D02*
X10589356Y-4264644D01*
X10518644Y-4264644D01*
X10518644Y-4335356D01*
X10589356Y-4335356D01*
X10635356Y-6235356D02*
X10635356Y-6164644D01*
X10564644Y-6164644D01*
X10564644Y-6235356D01*
X10635356Y-6235356D01*
X10635356Y-6489356D02*
X10635356Y-6418644D01*
X10564644Y-6418644D01*
X10564644Y-6489356D01*
X10635356Y-6489356D01*
X10635356Y-6743356D02*
X10635356Y-6672644D01*
X10564644Y-6672644D01*
X10564644Y-6743356D01*
X10635356Y-6743356D01*
X10635356Y-6997356D02*
X10635356Y-6926644D01*
X10564644Y-6926644D01*
X10564644Y-6997356D01*
X10635356Y-6997356D01*
X10635356Y-7251356D02*
X10635356Y-7180644D01*
X10564644Y-7180644D01*
X10564644Y-7251356D01*
X10635356Y-7251356D01*
X10635356Y-7505356D02*
X10635356Y-7434644D01*
X10564644Y-7434644D01*
X10564644Y-7505356D01*
X10635356Y-7505356D01*
X10635356Y-9735356D02*
X10635356Y-9664644D01*
X10564644Y-9664644D01*
X10564644Y-9735356D01*
X10635356Y-9735356D01*
X10635356Y-9989356D02*
X10635356Y-9918644D01*
X10564644Y-9918644D01*
X10564644Y-9989356D01*
X10635356Y-9989356D01*
X10635356Y-10243356D02*
X10635356Y-10172644D01*
X10564644Y-10172644D01*
X10564644Y-10243356D01*
X10635356Y-10243356D01*
X10635356Y-10497356D02*
X10635356Y-10426644D01*
X10564644Y-10426644D01*
X10564644Y-10497356D01*
X10635356Y-10497356D01*
X10635356Y-10751356D02*
X10635356Y-10680644D01*
X10564644Y-10680644D01*
X10564644Y-10751356D01*
X10635356Y-10751356D01*
D11*
X1255777Y-11316484D02*
X1255777Y-11116484D01*
X1255777Y-11116484D02*
X1303396Y-11116484D01*
X1303396Y-11116484D02*
X1331967Y-11126008D01*
X1331967Y-11126008D02*
X1351015Y-11145055D01*
X1351015Y-11145055D02*
X1360539Y-11164103D01*
X1360539Y-11164103D02*
X1370063Y-11202198D01*
X1370063Y-11202198D02*
X1370063Y-11230769D01*
X1370063Y-11230769D02*
X1360539Y-11268865D01*
X1360539Y-11268865D02*
X1351015Y-11287912D01*
X1351015Y-11287912D02*
X1331967Y-11306960D01*
X1331967Y-11306960D02*
X1303396Y-11316484D01*
X1303396Y-11316484D02*
X1255777Y-11316484D01*
X1455777Y-11316484D02*
X1455777Y-11183150D01*
X1455777Y-11221246D02*
X1465301Y-11202198D01*
X1465301Y-11202198D02*
X1474824Y-11192674D01*
X1474824Y-11192674D02*
X1493872Y-11183150D01*
X1493872Y-11183150D02*
X1512920Y-11183150D01*
X1579586Y-11316484D02*
X1579586Y-11183150D01*
X1579586Y-11116484D02*
X1570062Y-11126008D01*
X1570062Y-11126008D02*
X1579586Y-11135531D01*
X1579586Y-11135531D02*
X1589110Y-11126008D01*
X1589110Y-11126008D02*
X1579586Y-11116484D01*
X1579586Y-11116484D02*
X1579586Y-11135531D01*
X1703396Y-11316484D02*
X1684348Y-11306960D01*
X1684348Y-11306960D02*
X1674824Y-11287912D01*
X1674824Y-11287912D02*
X1674824Y-11116484D01*
X1808158Y-11316484D02*
X1789110Y-11306960D01*
X1789110Y-11306960D02*
X1779586Y-11287912D01*
X1779586Y-11287912D02*
X1779586Y-11116484D01*
X2036729Y-11316484D02*
X2036729Y-11116484D01*
X2036729Y-11116484D02*
X2103396Y-11259341D01*
X2103396Y-11259341D02*
X2170063Y-11116484D01*
X2170063Y-11116484D02*
X2170063Y-11316484D01*
X2351015Y-11316484D02*
X2351015Y-11211722D01*
X2351015Y-11211722D02*
X2341491Y-11192674D01*
X2341491Y-11192674D02*
X2322444Y-11183150D01*
X2322444Y-11183150D02*
X2284348Y-11183150D01*
X2284348Y-11183150D02*
X2265301Y-11192674D01*
X2351015Y-11306960D02*
X2331967Y-11316484D01*
X2331967Y-11316484D02*
X2284348Y-11316484D01*
X2284348Y-11316484D02*
X2265301Y-11306960D01*
X2265301Y-11306960D02*
X2255777Y-11287912D01*
X2255777Y-11287912D02*
X2255777Y-11268865D01*
X2255777Y-11268865D02*
X2265301Y-11249817D01*
X2265301Y-11249817D02*
X2284348Y-11240293D01*
X2284348Y-11240293D02*
X2331967Y-11240293D01*
X2331967Y-11240293D02*
X2351015Y-11230769D01*
X2446253Y-11183150D02*
X2446253Y-11383150D01*
X2446253Y-11192674D02*
X2465301Y-11183150D01*
X2465301Y-11183150D02*
X2503396Y-11183150D01*
X2503396Y-11183150D02*
X2522444Y-11192674D01*
X2522444Y-11192674D02*
X2531967Y-11202198D01*
X2531967Y-11202198D02*
X2541491Y-11221246D01*
X2541491Y-11221246D02*
X2541491Y-11278388D01*
X2541491Y-11278388D02*
X2531967Y-11297436D01*
X2531967Y-11297436D02*
X2522444Y-11306960D01*
X2522444Y-11306960D02*
X2503396Y-11316484D01*
X2503396Y-11316484D02*
X2465301Y-11316484D01*
X2465301Y-11316484D02*
X2446253Y-11306960D01*
X2627205Y-11297436D02*
X2636729Y-11306960D01*
X2636729Y-11306960D02*
X2627205Y-11316484D01*
X2627205Y-11316484D02*
X2617682Y-11306960D01*
X2617682Y-11306960D02*
X2627205Y-11297436D01*
X2627205Y-11297436D02*
X2627205Y-11316484D01*
X2627205Y-11192674D02*
X2636729Y-11202198D01*
X2636729Y-11202198D02*
X2627205Y-11211722D01*
X2627205Y-11211722D02*
X2617682Y-11202198D01*
X2617682Y-11202198D02*
X2627205Y-11192674D01*
X2627205Y-11192674D02*
X2627205Y-11211722D01*
D10*
X965000Y-11630000D02*
X995000Y-11660000D01*
X995000Y-11630000D02*
X965000Y-11660000D01*
D11*
X1293872Y-11536484D02*
X1312920Y-11536484D01*
X1312920Y-11536484D02*
X1331967Y-11546008D01*
X1331967Y-11546008D02*
X1341491Y-11555531D01*
X1341491Y-11555531D02*
X1351015Y-11574579D01*
X1351015Y-11574579D02*
X1360539Y-11612674D01*
X1360539Y-11612674D02*
X1360539Y-11660293D01*
X1360539Y-11660293D02*
X1351015Y-11698388D01*
X1351015Y-11698388D02*
X1341491Y-11717436D01*
X1341491Y-11717436D02*
X1331967Y-11726960D01*
X1331967Y-11726960D02*
X1312920Y-11736484D01*
X1312920Y-11736484D02*
X1293872Y-11736484D01*
X1293872Y-11736484D02*
X1274824Y-11726960D01*
X1274824Y-11726960D02*
X1265301Y-11717436D01*
X1265301Y-11717436D02*
X1255777Y-11698388D01*
X1255777Y-11698388D02*
X1246253Y-11660293D01*
X1246253Y-11660293D02*
X1246253Y-11612674D01*
X1246253Y-11612674D02*
X1255777Y-11574579D01*
X1255777Y-11574579D02*
X1265301Y-11555531D01*
X1265301Y-11555531D02*
X1274824Y-11546008D01*
X1274824Y-11546008D02*
X1293872Y-11536484D01*
X1446253Y-11717436D02*
X1455777Y-11726960D01*
X1455777Y-11726960D02*
X1446253Y-11736484D01*
X1446253Y-11736484D02*
X1436729Y-11726960D01*
X1436729Y-11726960D02*
X1446253Y-11717436D01*
X1446253Y-11717436D02*
X1446253Y-11736484D01*
X1522443Y-11536484D02*
X1646253Y-11536484D01*
X1646253Y-11536484D02*
X1579586Y-11612674D01*
X1579586Y-11612674D02*
X1608158Y-11612674D01*
X1608158Y-11612674D02*
X1627205Y-11622198D01*
X1627205Y-11622198D02*
X1636729Y-11631722D01*
X1636729Y-11631722D02*
X1646253Y-11650769D01*
X1646253Y-11650769D02*
X1646253Y-11698388D01*
X1646253Y-11698388D02*
X1636729Y-11717436D01*
X1636729Y-11717436D02*
X1627205Y-11726960D01*
X1627205Y-11726960D02*
X1608158Y-11736484D01*
X1608158Y-11736484D02*
X1551015Y-11736484D01*
X1551015Y-11736484D02*
X1531967Y-11726960D01*
X1531967Y-11726960D02*
X1522443Y-11717436D01*
X1770062Y-11536484D02*
X1789110Y-11536484D01*
X1789110Y-11536484D02*
X1808158Y-11546008D01*
X1808158Y-11546008D02*
X1817682Y-11555531D01*
X1817682Y-11555531D02*
X1827205Y-11574579D01*
X1827205Y-11574579D02*
X1836729Y-11612674D01*
X1836729Y-11612674D02*
X1836729Y-11660293D01*
X1836729Y-11660293D02*
X1827205Y-11698388D01*
X1827205Y-11698388D02*
X1817682Y-11717436D01*
X1817682Y-11717436D02*
X1808158Y-11726960D01*
X1808158Y-11726960D02*
X1789110Y-11736484D01*
X1789110Y-11736484D02*
X1770062Y-11736484D01*
X1770062Y-11736484D02*
X1751015Y-11726960D01*
X1751015Y-11726960D02*
X1741491Y-11717436D01*
X1741491Y-11717436D02*
X1731967Y-11698388D01*
X1731967Y-11698388D02*
X1722443Y-11660293D01*
X1722443Y-11660293D02*
X1722443Y-11612674D01*
X1722443Y-11612674D02*
X1731967Y-11574579D01*
X1731967Y-11574579D02*
X1741491Y-11555531D01*
X1741491Y-11555531D02*
X1751015Y-11546008D01*
X1751015Y-11546008D02*
X1770062Y-11536484D01*
X1960539Y-11536484D02*
X1979586Y-11536484D01*
X1979586Y-11536484D02*
X1998634Y-11546008D01*
X1998634Y-11546008D02*
X2008158Y-11555531D01*
X2008158Y-11555531D02*
X2017682Y-11574579D01*
X2017682Y-11574579D02*
X2027205Y-11612674D01*
X2027205Y-11612674D02*
X2027205Y-11660293D01*
X2027205Y-11660293D02*
X2017682Y-11698388D01*
X2017682Y-11698388D02*
X2008158Y-11717436D01*
X2008158Y-11717436D02*
X1998634Y-11726960D01*
X1998634Y-11726960D02*
X1979586Y-11736484D01*
X1979586Y-11736484D02*
X1960539Y-11736484D01*
X1960539Y-11736484D02*
X1941491Y-11726960D01*
X1941491Y-11726960D02*
X1931967Y-11717436D01*
X1931967Y-11717436D02*
X1922443Y-11698388D01*
X1922443Y-11698388D02*
X1912920Y-11660293D01*
X1912920Y-11660293D02*
X1912920Y-11612674D01*
X1912920Y-11612674D02*
X1922443Y-11574579D01*
X1922443Y-11574579D02*
X1931967Y-11555531D01*
X1931967Y-11555531D02*
X1941491Y-11546008D01*
X1941491Y-11546008D02*
X1960539Y-11536484D01*
X2112920Y-11736484D02*
X2112920Y-11603150D01*
X2112920Y-11622198D02*
X2122444Y-11612674D01*
X2122444Y-11612674D02*
X2141491Y-11603150D01*
X2141491Y-11603150D02*
X2170063Y-11603150D01*
X2170063Y-11603150D02*
X2189110Y-11612674D01*
X2189110Y-11612674D02*
X2198634Y-11631722D01*
X2198634Y-11631722D02*
X2198634Y-11736484D01*
X2198634Y-11631722D02*
X2208158Y-11612674D01*
X2208158Y-11612674D02*
X2227205Y-11603150D01*
X2227205Y-11603150D02*
X2255777Y-11603150D01*
X2255777Y-11603150D02*
X2274825Y-11612674D01*
X2274825Y-11612674D02*
X2284348Y-11631722D01*
X2284348Y-11631722D02*
X2284348Y-11736484D01*
X2379586Y-11736484D02*
X2379586Y-11603150D01*
X2379586Y-11622198D02*
X2389110Y-11612674D01*
X2389110Y-11612674D02*
X2408158Y-11603150D01*
X2408158Y-11603150D02*
X2436729Y-11603150D01*
X2436729Y-11603150D02*
X2455777Y-11612674D01*
X2455777Y-11612674D02*
X2465301Y-11631722D01*
X2465301Y-11631722D02*
X2465301Y-11736484D01*
X2465301Y-11631722D02*
X2474825Y-11612674D01*
X2474825Y-11612674D02*
X2493872Y-11603150D01*
X2493872Y-11603150D02*
X2522444Y-11603150D01*
X2522444Y-11603150D02*
X2541491Y-11612674D01*
X2541491Y-11612674D02*
X2551015Y-11631722D01*
X2551015Y-11631722D02*
X2551015Y-11736484D01*
X2941491Y-11526960D02*
X2770063Y-11784103D01*
X3198634Y-11536484D02*
X3217682Y-11536484D01*
X3217682Y-11536484D02*
X3236729Y-11546008D01*
X3236729Y-11546008D02*
X3246253Y-11555531D01*
X3246253Y-11555531D02*
X3255777Y-11574579D01*
X3255777Y-11574579D02*
X3265301Y-11612674D01*
X3265301Y-11612674D02*
X3265301Y-11660293D01*
X3265301Y-11660293D02*
X3255777Y-11698388D01*
X3255777Y-11698388D02*
X3246253Y-11717436D01*
X3246253Y-11717436D02*
X3236729Y-11726960D01*
X3236729Y-11726960D02*
X3217682Y-11736484D01*
X3217682Y-11736484D02*
X3198634Y-11736484D01*
X3198634Y-11736484D02*
X3179586Y-11726960D01*
X3179586Y-11726960D02*
X3170063Y-11717436D01*
X3170063Y-11717436D02*
X3160539Y-11698388D01*
X3160539Y-11698388D02*
X3151015Y-11660293D01*
X3151015Y-11660293D02*
X3151015Y-11612674D01*
X3151015Y-11612674D02*
X3160539Y-11574579D01*
X3160539Y-11574579D02*
X3170063Y-11555531D01*
X3170063Y-11555531D02*
X3179586Y-11546008D01*
X3179586Y-11546008D02*
X3198634Y-11536484D01*
X3351015Y-11717436D02*
X3360539Y-11726960D01*
X3360539Y-11726960D02*
X3351015Y-11736484D01*
X3351015Y-11736484D02*
X3341491Y-11726960D01*
X3341491Y-11726960D02*
X3351015Y-11717436D01*
X3351015Y-11717436D02*
X3351015Y-11736484D01*
X3484348Y-11536484D02*
X3503396Y-11536484D01*
X3503396Y-11536484D02*
X3522444Y-11546008D01*
X3522444Y-11546008D02*
X3531967Y-11555531D01*
X3531967Y-11555531D02*
X3541491Y-11574579D01*
X3541491Y-11574579D02*
X3551015Y-11612674D01*
X3551015Y-11612674D02*
X3551015Y-11660293D01*
X3551015Y-11660293D02*
X3541491Y-11698388D01*
X3541491Y-11698388D02*
X3531967Y-11717436D01*
X3531967Y-11717436D02*
X3522444Y-11726960D01*
X3522444Y-11726960D02*
X3503396Y-11736484D01*
X3503396Y-11736484D02*
X3484348Y-11736484D01*
X3484348Y-11736484D02*
X3465301Y-11726960D01*
X3465301Y-11726960D02*
X3455777Y-11717436D01*
X3455777Y-11717436D02*
X3446253Y-11698388D01*
X3446253Y-11698388D02*
X3436729Y-11660293D01*
X3436729Y-11660293D02*
X3436729Y-11612674D01*
X3436729Y-11612674D02*
X3446253Y-11574579D01*
X3446253Y-11574579D02*
X3455777Y-11555531D01*
X3455777Y-11555531D02*
X3465301Y-11546008D01*
X3465301Y-11546008D02*
X3484348Y-11536484D01*
X3741491Y-11736484D02*
X3627206Y-11736484D01*
X3684348Y-11736484D02*
X3684348Y-11536484D01*
X3684348Y-11536484D02*
X3665301Y-11565055D01*
X3665301Y-11565055D02*
X3646253Y-11584103D01*
X3646253Y-11584103D02*
X3627206Y-11593627D01*
X3931967Y-11736484D02*
X3817682Y-11736484D01*
X3874825Y-11736484D02*
X3874825Y-11536484D01*
X3874825Y-11536484D02*
X3855777Y-11565055D01*
X3855777Y-11565055D02*
X3836729Y-11584103D01*
X3836729Y-11584103D02*
X3817682Y-11593627D01*
X4046253Y-11622198D02*
X4027206Y-11612674D01*
X4027206Y-11612674D02*
X4017682Y-11603150D01*
X4017682Y-11603150D02*
X4008158Y-11584103D01*
X4008158Y-11584103D02*
X4008158Y-11574579D01*
X4008158Y-11574579D02*
X4017682Y-11555531D01*
X4017682Y-11555531D02*
X4027206Y-11546008D01*
X4027206Y-11546008D02*
X4046253Y-11536484D01*
X4046253Y-11536484D02*
X4084348Y-11536484D01*
X4084348Y-11536484D02*
X4103396Y-11546008D01*
X4103396Y-11546008D02*
X4112920Y-11555531D01*
X4112920Y-11555531D02*
X4122444Y-11574579D01*
X4122444Y-11574579D02*
X4122444Y-11584103D01*
X4122444Y-11584103D02*
X4112920Y-11603150D01*
X4112920Y-11603150D02*
X4103396Y-11612674D01*
X4103396Y-11612674D02*
X4084348Y-11622198D01*
X4084348Y-11622198D02*
X4046253Y-11622198D01*
X4046253Y-11622198D02*
X4027206Y-11631722D01*
X4027206Y-11631722D02*
X4017682Y-11641246D01*
X4017682Y-11641246D02*
X4008158Y-11660293D01*
X4008158Y-11660293D02*
X4008158Y-11698388D01*
X4008158Y-11698388D02*
X4017682Y-11717436D01*
X4017682Y-11717436D02*
X4027206Y-11726960D01*
X4027206Y-11726960D02*
X4046253Y-11736484D01*
X4046253Y-11736484D02*
X4084348Y-11736484D01*
X4084348Y-11736484D02*
X4103396Y-11726960D01*
X4103396Y-11726960D02*
X4112920Y-11717436D01*
X4112920Y-11717436D02*
X4122444Y-11698388D01*
X4122444Y-11698388D02*
X4122444Y-11660293D01*
X4122444Y-11660293D02*
X4112920Y-11641246D01*
X4112920Y-11641246D02*
X4103396Y-11631722D01*
X4103396Y-11631722D02*
X4084348Y-11622198D01*
X4198634Y-11536484D02*
X4198634Y-11574579D01*
X4274825Y-11536484D02*
X4274825Y-11574579D01*
X4570063Y-11812674D02*
X4560539Y-11803150D01*
X4560539Y-11803150D02*
X4541491Y-11774579D01*
X4541491Y-11774579D02*
X4531968Y-11755531D01*
X4531968Y-11755531D02*
X4522444Y-11726960D01*
X4522444Y-11726960D02*
X4512920Y-11679341D01*
X4512920Y-11679341D02*
X4512920Y-11641246D01*
X4512920Y-11641246D02*
X4522444Y-11593627D01*
X4522444Y-11593627D02*
X4531968Y-11565055D01*
X4531968Y-11565055D02*
X4541491Y-11546008D01*
X4541491Y-11546008D02*
X4560539Y-11517436D01*
X4560539Y-11517436D02*
X4570063Y-11507912D01*
X4741491Y-11536484D02*
X4646253Y-11536484D01*
X4646253Y-11536484D02*
X4636730Y-11631722D01*
X4636730Y-11631722D02*
X4646253Y-11622198D01*
X4646253Y-11622198D02*
X4665301Y-11612674D01*
X4665301Y-11612674D02*
X4712920Y-11612674D01*
X4712920Y-11612674D02*
X4731968Y-11622198D01*
X4731968Y-11622198D02*
X4741491Y-11631722D01*
X4741491Y-11631722D02*
X4751015Y-11650769D01*
X4751015Y-11650769D02*
X4751015Y-11698388D01*
X4751015Y-11698388D02*
X4741491Y-11717436D01*
X4741491Y-11717436D02*
X4731968Y-11726960D01*
X4731968Y-11726960D02*
X4712920Y-11736484D01*
X4712920Y-11736484D02*
X4665301Y-11736484D01*
X4665301Y-11736484D02*
X4646253Y-11726960D01*
X4646253Y-11726960D02*
X4636730Y-11717436D01*
X4989111Y-11736484D02*
X4989111Y-11536484D01*
X5074825Y-11736484D02*
X5074825Y-11631722D01*
X5074825Y-11631722D02*
X5065301Y-11612674D01*
X5065301Y-11612674D02*
X5046253Y-11603150D01*
X5046253Y-11603150D02*
X5017682Y-11603150D01*
X5017682Y-11603150D02*
X4998634Y-11612674D01*
X4998634Y-11612674D02*
X4989111Y-11622198D01*
X5198634Y-11736484D02*
X5179587Y-11726960D01*
X5179587Y-11726960D02*
X5170063Y-11717436D01*
X5170063Y-11717436D02*
X5160539Y-11698388D01*
X5160539Y-11698388D02*
X5160539Y-11641246D01*
X5160539Y-11641246D02*
X5170063Y-11622198D01*
X5170063Y-11622198D02*
X5179587Y-11612674D01*
X5179587Y-11612674D02*
X5198634Y-11603150D01*
X5198634Y-11603150D02*
X5227206Y-11603150D01*
X5227206Y-11603150D02*
X5246253Y-11612674D01*
X5246253Y-11612674D02*
X5255777Y-11622198D01*
X5255777Y-11622198D02*
X5265301Y-11641246D01*
X5265301Y-11641246D02*
X5265301Y-11698388D01*
X5265301Y-11698388D02*
X5255777Y-11717436D01*
X5255777Y-11717436D02*
X5246253Y-11726960D01*
X5246253Y-11726960D02*
X5227206Y-11736484D01*
X5227206Y-11736484D02*
X5198634Y-11736484D01*
X5379587Y-11736484D02*
X5360539Y-11726960D01*
X5360539Y-11726960D02*
X5351015Y-11707912D01*
X5351015Y-11707912D02*
X5351015Y-11536484D01*
X5531968Y-11726960D02*
X5512920Y-11736484D01*
X5512920Y-11736484D02*
X5474825Y-11736484D01*
X5474825Y-11736484D02*
X5455777Y-11726960D01*
X5455777Y-11726960D02*
X5446253Y-11707912D01*
X5446253Y-11707912D02*
X5446253Y-11631722D01*
X5446253Y-11631722D02*
X5455777Y-11612674D01*
X5455777Y-11612674D02*
X5474825Y-11603150D01*
X5474825Y-11603150D02*
X5512920Y-11603150D01*
X5512920Y-11603150D02*
X5531968Y-11612674D01*
X5531968Y-11612674D02*
X5541492Y-11631722D01*
X5541492Y-11631722D02*
X5541492Y-11650769D01*
X5541492Y-11650769D02*
X5446253Y-11669817D01*
X5617682Y-11726960D02*
X5636730Y-11736484D01*
X5636730Y-11736484D02*
X5674825Y-11736484D01*
X5674825Y-11736484D02*
X5693872Y-11726960D01*
X5693872Y-11726960D02*
X5703396Y-11707912D01*
X5703396Y-11707912D02*
X5703396Y-11698388D01*
X5703396Y-11698388D02*
X5693872Y-11679341D01*
X5693872Y-11679341D02*
X5674825Y-11669817D01*
X5674825Y-11669817D02*
X5646253Y-11669817D01*
X5646253Y-11669817D02*
X5627206Y-11660293D01*
X5627206Y-11660293D02*
X5617682Y-11641246D01*
X5617682Y-11641246D02*
X5617682Y-11631722D01*
X5617682Y-11631722D02*
X5627206Y-11612674D01*
X5627206Y-11612674D02*
X5646253Y-11603150D01*
X5646253Y-11603150D02*
X5674825Y-11603150D01*
X5674825Y-11603150D02*
X5693872Y-11612674D01*
X5770063Y-11812674D02*
X5779587Y-11803150D01*
X5779587Y-11803150D02*
X5798634Y-11774579D01*
X5798634Y-11774579D02*
X5808158Y-11755531D01*
X5808158Y-11755531D02*
X5817682Y-11726960D01*
X5817682Y-11726960D02*
X5827206Y-11679341D01*
X5827206Y-11679341D02*
X5827206Y-11641246D01*
X5827206Y-11641246D02*
X5817682Y-11593627D01*
X5817682Y-11593627D02*
X5808158Y-11565055D01*
X5808158Y-11565055D02*
X5798634Y-11546008D01*
X5798634Y-11546008D02*
X5779587Y-11517436D01*
X5779587Y-11517436D02*
X5770063Y-11507912D01*
D10*
X995000Y-11909000D02*
G75*
G02*
X955000Y-11909000I-20000J0D01*
G01*
X955000Y-11909000D02*
G75*
G02*
X995000Y-11909000I20000J0D01*
G01*
D11*
X1293872Y-11800484D02*
X1312920Y-11800484D01*
X1312920Y-11800484D02*
X1331967Y-11810008D01*
X1331967Y-11810008D02*
X1341491Y-11819531D01*
X1341491Y-11819531D02*
X1351015Y-11838579D01*
X1351015Y-11838579D02*
X1360539Y-11876674D01*
X1360539Y-11876674D02*
X1360539Y-11924293D01*
X1360539Y-11924293D02*
X1351015Y-11962388D01*
X1351015Y-11962388D02*
X1341491Y-11981436D01*
X1341491Y-11981436D02*
X1331967Y-11990960D01*
X1331967Y-11990960D02*
X1312920Y-12000484D01*
X1312920Y-12000484D02*
X1293872Y-12000484D01*
X1293872Y-12000484D02*
X1274824Y-11990960D01*
X1274824Y-11990960D02*
X1265301Y-11981436D01*
X1265301Y-11981436D02*
X1255777Y-11962388D01*
X1255777Y-11962388D02*
X1246253Y-11924293D01*
X1246253Y-11924293D02*
X1246253Y-11876674D01*
X1246253Y-11876674D02*
X1255777Y-11838579D01*
X1255777Y-11838579D02*
X1265301Y-11819531D01*
X1265301Y-11819531D02*
X1274824Y-11810008D01*
X1274824Y-11810008D02*
X1293872Y-11800484D01*
X1446253Y-11981436D02*
X1455777Y-11990960D01*
X1455777Y-11990960D02*
X1446253Y-12000484D01*
X1446253Y-12000484D02*
X1436729Y-11990960D01*
X1436729Y-11990960D02*
X1446253Y-11981436D01*
X1446253Y-11981436D02*
X1446253Y-12000484D01*
X1627205Y-11867150D02*
X1627205Y-12000484D01*
X1579586Y-11790960D02*
X1531967Y-11933817D01*
X1531967Y-11933817D02*
X1655777Y-11933817D01*
X1770062Y-11800484D02*
X1789110Y-11800484D01*
X1789110Y-11800484D02*
X1808158Y-11810008D01*
X1808158Y-11810008D02*
X1817682Y-11819531D01*
X1817682Y-11819531D02*
X1827205Y-11838579D01*
X1827205Y-11838579D02*
X1836729Y-11876674D01*
X1836729Y-11876674D02*
X1836729Y-11924293D01*
X1836729Y-11924293D02*
X1827205Y-11962388D01*
X1827205Y-11962388D02*
X1817682Y-11981436D01*
X1817682Y-11981436D02*
X1808158Y-11990960D01*
X1808158Y-11990960D02*
X1789110Y-12000484D01*
X1789110Y-12000484D02*
X1770062Y-12000484D01*
X1770062Y-12000484D02*
X1751015Y-11990960D01*
X1751015Y-11990960D02*
X1741491Y-11981436D01*
X1741491Y-11981436D02*
X1731967Y-11962388D01*
X1731967Y-11962388D02*
X1722443Y-11924293D01*
X1722443Y-11924293D02*
X1722443Y-11876674D01*
X1722443Y-11876674D02*
X1731967Y-11838579D01*
X1731967Y-11838579D02*
X1741491Y-11819531D01*
X1741491Y-11819531D02*
X1751015Y-11810008D01*
X1751015Y-11810008D02*
X1770062Y-11800484D01*
X1960539Y-11800484D02*
X1979586Y-11800484D01*
X1979586Y-11800484D02*
X1998634Y-11810008D01*
X1998634Y-11810008D02*
X2008158Y-11819531D01*
X2008158Y-11819531D02*
X2017682Y-11838579D01*
X2017682Y-11838579D02*
X2027205Y-11876674D01*
X2027205Y-11876674D02*
X2027205Y-11924293D01*
X2027205Y-11924293D02*
X2017682Y-11962388D01*
X2017682Y-11962388D02*
X2008158Y-11981436D01*
X2008158Y-11981436D02*
X1998634Y-11990960D01*
X1998634Y-11990960D02*
X1979586Y-12000484D01*
X1979586Y-12000484D02*
X1960539Y-12000484D01*
X1960539Y-12000484D02*
X1941491Y-11990960D01*
X1941491Y-11990960D02*
X1931967Y-11981436D01*
X1931967Y-11981436D02*
X1922443Y-11962388D01*
X1922443Y-11962388D02*
X1912920Y-11924293D01*
X1912920Y-11924293D02*
X1912920Y-11876674D01*
X1912920Y-11876674D02*
X1922443Y-11838579D01*
X1922443Y-11838579D02*
X1931967Y-11819531D01*
X1931967Y-11819531D02*
X1941491Y-11810008D01*
X1941491Y-11810008D02*
X1960539Y-11800484D01*
X2112920Y-12000484D02*
X2112920Y-11867150D01*
X2112920Y-11886198D02*
X2122444Y-11876674D01*
X2122444Y-11876674D02*
X2141491Y-11867150D01*
X2141491Y-11867150D02*
X2170063Y-11867150D01*
X2170063Y-11867150D02*
X2189110Y-11876674D01*
X2189110Y-11876674D02*
X2198634Y-11895722D01*
X2198634Y-11895722D02*
X2198634Y-12000484D01*
X2198634Y-11895722D02*
X2208158Y-11876674D01*
X2208158Y-11876674D02*
X2227205Y-11867150D01*
X2227205Y-11867150D02*
X2255777Y-11867150D01*
X2255777Y-11867150D02*
X2274825Y-11876674D01*
X2274825Y-11876674D02*
X2284348Y-11895722D01*
X2284348Y-11895722D02*
X2284348Y-12000484D01*
X2379586Y-12000484D02*
X2379586Y-11867150D01*
X2379586Y-11886198D02*
X2389110Y-11876674D01*
X2389110Y-11876674D02*
X2408158Y-11867150D01*
X2408158Y-11867150D02*
X2436729Y-11867150D01*
X2436729Y-11867150D02*
X2455777Y-11876674D01*
X2455777Y-11876674D02*
X2465301Y-11895722D01*
X2465301Y-11895722D02*
X2465301Y-12000484D01*
X2465301Y-11895722D02*
X2474825Y-11876674D01*
X2474825Y-11876674D02*
X2493872Y-11867150D01*
X2493872Y-11867150D02*
X2522444Y-11867150D01*
X2522444Y-11867150D02*
X2541491Y-11876674D01*
X2541491Y-11876674D02*
X2551015Y-11895722D01*
X2551015Y-11895722D02*
X2551015Y-12000484D01*
X2941491Y-11790960D02*
X2770063Y-12048103D01*
X3198634Y-11800484D02*
X3217682Y-11800484D01*
X3217682Y-11800484D02*
X3236729Y-11810008D01*
X3236729Y-11810008D02*
X3246253Y-11819531D01*
X3246253Y-11819531D02*
X3255777Y-11838579D01*
X3255777Y-11838579D02*
X3265301Y-11876674D01*
X3265301Y-11876674D02*
X3265301Y-11924293D01*
X3265301Y-11924293D02*
X3255777Y-11962388D01*
X3255777Y-11962388D02*
X3246253Y-11981436D01*
X3246253Y-11981436D02*
X3236729Y-11990960D01*
X3236729Y-11990960D02*
X3217682Y-12000484D01*
X3217682Y-12000484D02*
X3198634Y-12000484D01*
X3198634Y-12000484D02*
X3179586Y-11990960D01*
X3179586Y-11990960D02*
X3170063Y-11981436D01*
X3170063Y-11981436D02*
X3160539Y-11962388D01*
X3160539Y-11962388D02*
X3151015Y-11924293D01*
X3151015Y-11924293D02*
X3151015Y-11876674D01*
X3151015Y-11876674D02*
X3160539Y-11838579D01*
X3160539Y-11838579D02*
X3170063Y-11819531D01*
X3170063Y-11819531D02*
X3179586Y-11810008D01*
X3179586Y-11810008D02*
X3198634Y-11800484D01*
X3351015Y-11981436D02*
X3360539Y-11990960D01*
X3360539Y-11990960D02*
X3351015Y-12000484D01*
X3351015Y-12000484D02*
X3341491Y-11990960D01*
X3341491Y-11990960D02*
X3351015Y-11981436D01*
X3351015Y-11981436D02*
X3351015Y-12000484D01*
X3484348Y-11800484D02*
X3503396Y-11800484D01*
X3503396Y-11800484D02*
X3522444Y-11810008D01*
X3522444Y-11810008D02*
X3531967Y-11819531D01*
X3531967Y-11819531D02*
X3541491Y-11838579D01*
X3541491Y-11838579D02*
X3551015Y-11876674D01*
X3551015Y-11876674D02*
X3551015Y-11924293D01*
X3551015Y-11924293D02*
X3541491Y-11962388D01*
X3541491Y-11962388D02*
X3531967Y-11981436D01*
X3531967Y-11981436D02*
X3522444Y-11990960D01*
X3522444Y-11990960D02*
X3503396Y-12000484D01*
X3503396Y-12000484D02*
X3484348Y-12000484D01*
X3484348Y-12000484D02*
X3465301Y-11990960D01*
X3465301Y-11990960D02*
X3455777Y-11981436D01*
X3455777Y-11981436D02*
X3446253Y-11962388D01*
X3446253Y-11962388D02*
X3436729Y-11924293D01*
X3436729Y-11924293D02*
X3436729Y-11876674D01*
X3436729Y-11876674D02*
X3446253Y-11838579D01*
X3446253Y-11838579D02*
X3455777Y-11819531D01*
X3455777Y-11819531D02*
X3465301Y-11810008D01*
X3465301Y-11810008D02*
X3484348Y-11800484D01*
X3741491Y-12000484D02*
X3627206Y-12000484D01*
X3684348Y-12000484D02*
X3684348Y-11800484D01*
X3684348Y-11800484D02*
X3665301Y-11829055D01*
X3665301Y-11829055D02*
X3646253Y-11848103D01*
X3646253Y-11848103D02*
X3627206Y-11857627D01*
X3922444Y-11800484D02*
X3827206Y-11800484D01*
X3827206Y-11800484D02*
X3817682Y-11895722D01*
X3817682Y-11895722D02*
X3827206Y-11886198D01*
X3827206Y-11886198D02*
X3846253Y-11876674D01*
X3846253Y-11876674D02*
X3893872Y-11876674D01*
X3893872Y-11876674D02*
X3912920Y-11886198D01*
X3912920Y-11886198D02*
X3922444Y-11895722D01*
X3922444Y-11895722D02*
X3931967Y-11914769D01*
X3931967Y-11914769D02*
X3931967Y-11962388D01*
X3931967Y-11962388D02*
X3922444Y-11981436D01*
X3922444Y-11981436D02*
X3912920Y-11990960D01*
X3912920Y-11990960D02*
X3893872Y-12000484D01*
X3893872Y-12000484D02*
X3846253Y-12000484D01*
X3846253Y-12000484D02*
X3827206Y-11990960D01*
X3827206Y-11990960D02*
X3817682Y-11981436D01*
X3998634Y-11800484D02*
X4131967Y-11800484D01*
X4131967Y-11800484D02*
X4046253Y-12000484D01*
X4198634Y-11800484D02*
X4198634Y-11838579D01*
X4274825Y-11800484D02*
X4274825Y-11838579D01*
X4570063Y-12076674D02*
X4560539Y-12067150D01*
X4560539Y-12067150D02*
X4541491Y-12038579D01*
X4541491Y-12038579D02*
X4531968Y-12019531D01*
X4531968Y-12019531D02*
X4522444Y-11990960D01*
X4522444Y-11990960D02*
X4512920Y-11943341D01*
X4512920Y-11943341D02*
X4512920Y-11905246D01*
X4512920Y-11905246D02*
X4522444Y-11857627D01*
X4522444Y-11857627D02*
X4531968Y-11829055D01*
X4531968Y-11829055D02*
X4541491Y-11810008D01*
X4541491Y-11810008D02*
X4560539Y-11781436D01*
X4560539Y-11781436D02*
X4570063Y-11771912D01*
X4655777Y-12000484D02*
X4693872Y-12000484D01*
X4693872Y-12000484D02*
X4712920Y-11990960D01*
X4712920Y-11990960D02*
X4722444Y-11981436D01*
X4722444Y-11981436D02*
X4741491Y-11952865D01*
X4741491Y-11952865D02*
X4751015Y-11914769D01*
X4751015Y-11914769D02*
X4751015Y-11838579D01*
X4751015Y-11838579D02*
X4741491Y-11819531D01*
X4741491Y-11819531D02*
X4731968Y-11810008D01*
X4731968Y-11810008D02*
X4712920Y-11800484D01*
X4712920Y-11800484D02*
X4674825Y-11800484D01*
X4674825Y-11800484D02*
X4655777Y-11810008D01*
X4655777Y-11810008D02*
X4646253Y-11819531D01*
X4646253Y-11819531D02*
X4636730Y-11838579D01*
X4636730Y-11838579D02*
X4636730Y-11886198D01*
X4636730Y-11886198D02*
X4646253Y-11905246D01*
X4646253Y-11905246D02*
X4655777Y-11914769D01*
X4655777Y-11914769D02*
X4674825Y-11924293D01*
X4674825Y-11924293D02*
X4712920Y-11924293D01*
X4712920Y-11924293D02*
X4731968Y-11914769D01*
X4731968Y-11914769D02*
X4741491Y-11905246D01*
X4741491Y-11905246D02*
X4751015Y-11886198D01*
X4874825Y-11800484D02*
X4893872Y-11800484D01*
X4893872Y-11800484D02*
X4912920Y-11810008D01*
X4912920Y-11810008D02*
X4922444Y-11819531D01*
X4922444Y-11819531D02*
X4931968Y-11838579D01*
X4931968Y-11838579D02*
X4941491Y-11876674D01*
X4941491Y-11876674D02*
X4941491Y-11924293D01*
X4941491Y-11924293D02*
X4931968Y-11962388D01*
X4931968Y-11962388D02*
X4922444Y-11981436D01*
X4922444Y-11981436D02*
X4912920Y-11990960D01*
X4912920Y-11990960D02*
X4893872Y-12000484D01*
X4893872Y-12000484D02*
X4874825Y-12000484D01*
X4874825Y-12000484D02*
X4855777Y-11990960D01*
X4855777Y-11990960D02*
X4846253Y-11981436D01*
X4846253Y-11981436D02*
X4836730Y-11962388D01*
X4836730Y-11962388D02*
X4827206Y-11924293D01*
X4827206Y-11924293D02*
X4827206Y-11876674D01*
X4827206Y-11876674D02*
X4836730Y-11838579D01*
X4836730Y-11838579D02*
X4846253Y-11819531D01*
X4846253Y-11819531D02*
X4855777Y-11810008D01*
X4855777Y-11810008D02*
X4874825Y-11800484D01*
X5179587Y-12000484D02*
X5179587Y-11800484D01*
X5265301Y-12000484D02*
X5265301Y-11895722D01*
X5265301Y-11895722D02*
X5255777Y-11876674D01*
X5255777Y-11876674D02*
X5236730Y-11867150D01*
X5236730Y-11867150D02*
X5208158Y-11867150D01*
X5208158Y-11867150D02*
X5189111Y-11876674D01*
X5189111Y-11876674D02*
X5179587Y-11886198D01*
X5389111Y-12000484D02*
X5370063Y-11990960D01*
X5370063Y-11990960D02*
X5360539Y-11981436D01*
X5360539Y-11981436D02*
X5351015Y-11962388D01*
X5351015Y-11962388D02*
X5351015Y-11905246D01*
X5351015Y-11905246D02*
X5360539Y-11886198D01*
X5360539Y-11886198D02*
X5370063Y-11876674D01*
X5370063Y-11876674D02*
X5389111Y-11867150D01*
X5389111Y-11867150D02*
X5417682Y-11867150D01*
X5417682Y-11867150D02*
X5436730Y-11876674D01*
X5436730Y-11876674D02*
X5446253Y-11886198D01*
X5446253Y-11886198D02*
X5455777Y-11905246D01*
X5455777Y-11905246D02*
X5455777Y-11962388D01*
X5455777Y-11962388D02*
X5446253Y-11981436D01*
X5446253Y-11981436D02*
X5436730Y-11990960D01*
X5436730Y-11990960D02*
X5417682Y-12000484D01*
X5417682Y-12000484D02*
X5389111Y-12000484D01*
X5570063Y-12000484D02*
X5551015Y-11990960D01*
X5551015Y-11990960D02*
X5541492Y-11971912D01*
X5541492Y-11971912D02*
X5541492Y-11800484D01*
X5722444Y-11990960D02*
X5703396Y-12000484D01*
X5703396Y-12000484D02*
X5665301Y-12000484D01*
X5665301Y-12000484D02*
X5646253Y-11990960D01*
X5646253Y-11990960D02*
X5636730Y-11971912D01*
X5636730Y-11971912D02*
X5636730Y-11895722D01*
X5636730Y-11895722D02*
X5646253Y-11876674D01*
X5646253Y-11876674D02*
X5665301Y-11867150D01*
X5665301Y-11867150D02*
X5703396Y-11867150D01*
X5703396Y-11867150D02*
X5722444Y-11876674D01*
X5722444Y-11876674D02*
X5731968Y-11895722D01*
X5731968Y-11895722D02*
X5731968Y-11914769D01*
X5731968Y-11914769D02*
X5636730Y-11933817D01*
X5808158Y-11990960D02*
X5827206Y-12000484D01*
X5827206Y-12000484D02*
X5865301Y-12000484D01*
X5865301Y-12000484D02*
X5884349Y-11990960D01*
X5884349Y-11990960D02*
X5893872Y-11971912D01*
X5893872Y-11971912D02*
X5893872Y-11962388D01*
X5893872Y-11962388D02*
X5884349Y-11943341D01*
X5884349Y-11943341D02*
X5865301Y-11933817D01*
X5865301Y-11933817D02*
X5836730Y-11933817D01*
X5836730Y-11933817D02*
X5817682Y-11924293D01*
X5817682Y-11924293D02*
X5808158Y-11905246D01*
X5808158Y-11905246D02*
X5808158Y-11895722D01*
X5808158Y-11895722D02*
X5817682Y-11876674D01*
X5817682Y-11876674D02*
X5836730Y-11867150D01*
X5836730Y-11867150D02*
X5865301Y-11867150D01*
X5865301Y-11867150D02*
X5884349Y-11876674D01*
X5960539Y-12076674D02*
X5970063Y-12067150D01*
X5970063Y-12067150D02*
X5989111Y-12038579D01*
X5989111Y-12038579D02*
X5998634Y-12019531D01*
X5998634Y-12019531D02*
X6008158Y-11990960D01*
X6008158Y-11990960D02*
X6017682Y-11943341D01*
X6017682Y-11943341D02*
X6017682Y-11905246D01*
X6017682Y-11905246D02*
X6008158Y-11857627D01*
X6008158Y-11857627D02*
X5998634Y-11829055D01*
X5998634Y-11829055D02*
X5989111Y-11810008D01*
X5989111Y-11810008D02*
X5970063Y-11781436D01*
X5970063Y-11781436D02*
X5960539Y-11771912D01*
D10*
X965000Y-12143000D02*
X965000Y-12203000D01*
X935000Y-12173000D02*
X995000Y-12173000D01*
D11*
X1293872Y-12064484D02*
X1312920Y-12064484D01*
X1312920Y-12064484D02*
X1331967Y-12074008D01*
X1331967Y-12074008D02*
X1341491Y-12083531D01*
X1341491Y-12083531D02*
X1351015Y-12102579D01*
X1351015Y-12102579D02*
X1360539Y-12140674D01*
X1360539Y-12140674D02*
X1360539Y-12188293D01*
X1360539Y-12188293D02*
X1351015Y-12226388D01*
X1351015Y-12226388D02*
X1341491Y-12245436D01*
X1341491Y-12245436D02*
X1331967Y-12254960D01*
X1331967Y-12254960D02*
X1312920Y-12264484D01*
X1312920Y-12264484D02*
X1293872Y-12264484D01*
X1293872Y-12264484D02*
X1274824Y-12254960D01*
X1274824Y-12254960D02*
X1265301Y-12245436D01*
X1265301Y-12245436D02*
X1255777Y-12226388D01*
X1255777Y-12226388D02*
X1246253Y-12188293D01*
X1246253Y-12188293D02*
X1246253Y-12140674D01*
X1246253Y-12140674D02*
X1255777Y-12102579D01*
X1255777Y-12102579D02*
X1265301Y-12083531D01*
X1265301Y-12083531D02*
X1274824Y-12074008D01*
X1274824Y-12074008D02*
X1293872Y-12064484D01*
X1446253Y-12245436D02*
X1455777Y-12254960D01*
X1455777Y-12254960D02*
X1446253Y-12264484D01*
X1446253Y-12264484D02*
X1436729Y-12254960D01*
X1436729Y-12254960D02*
X1446253Y-12245436D01*
X1446253Y-12245436D02*
X1446253Y-12264484D01*
X1627205Y-12064484D02*
X1589110Y-12064484D01*
X1589110Y-12064484D02*
X1570062Y-12074008D01*
X1570062Y-12074008D02*
X1560539Y-12083531D01*
X1560539Y-12083531D02*
X1541491Y-12112103D01*
X1541491Y-12112103D02*
X1531967Y-12150198D01*
X1531967Y-12150198D02*
X1531967Y-12226388D01*
X1531967Y-12226388D02*
X1541491Y-12245436D01*
X1541491Y-12245436D02*
X1551015Y-12254960D01*
X1551015Y-12254960D02*
X1570062Y-12264484D01*
X1570062Y-12264484D02*
X1608158Y-12264484D01*
X1608158Y-12264484D02*
X1627205Y-12254960D01*
X1627205Y-12254960D02*
X1636729Y-12245436D01*
X1636729Y-12245436D02*
X1646253Y-12226388D01*
X1646253Y-12226388D02*
X1646253Y-12178769D01*
X1646253Y-12178769D02*
X1636729Y-12159722D01*
X1636729Y-12159722D02*
X1627205Y-12150198D01*
X1627205Y-12150198D02*
X1608158Y-12140674D01*
X1608158Y-12140674D02*
X1570062Y-12140674D01*
X1570062Y-12140674D02*
X1551015Y-12150198D01*
X1551015Y-12150198D02*
X1541491Y-12159722D01*
X1541491Y-12159722D02*
X1531967Y-12178769D01*
X1770062Y-12064484D02*
X1789110Y-12064484D01*
X1789110Y-12064484D02*
X1808158Y-12074008D01*
X1808158Y-12074008D02*
X1817682Y-12083531D01*
X1817682Y-12083531D02*
X1827205Y-12102579D01*
X1827205Y-12102579D02*
X1836729Y-12140674D01*
X1836729Y-12140674D02*
X1836729Y-12188293D01*
X1836729Y-12188293D02*
X1827205Y-12226388D01*
X1827205Y-12226388D02*
X1817682Y-12245436D01*
X1817682Y-12245436D02*
X1808158Y-12254960D01*
X1808158Y-12254960D02*
X1789110Y-12264484D01*
X1789110Y-12264484D02*
X1770062Y-12264484D01*
X1770062Y-12264484D02*
X1751015Y-12254960D01*
X1751015Y-12254960D02*
X1741491Y-12245436D01*
X1741491Y-12245436D02*
X1731967Y-12226388D01*
X1731967Y-12226388D02*
X1722443Y-12188293D01*
X1722443Y-12188293D02*
X1722443Y-12140674D01*
X1722443Y-12140674D02*
X1731967Y-12102579D01*
X1731967Y-12102579D02*
X1741491Y-12083531D01*
X1741491Y-12083531D02*
X1751015Y-12074008D01*
X1751015Y-12074008D02*
X1770062Y-12064484D01*
X1960539Y-12064484D02*
X1979586Y-12064484D01*
X1979586Y-12064484D02*
X1998634Y-12074008D01*
X1998634Y-12074008D02*
X2008158Y-12083531D01*
X2008158Y-12083531D02*
X2017682Y-12102579D01*
X2017682Y-12102579D02*
X2027205Y-12140674D01*
X2027205Y-12140674D02*
X2027205Y-12188293D01*
X2027205Y-12188293D02*
X2017682Y-12226388D01*
X2017682Y-12226388D02*
X2008158Y-12245436D01*
X2008158Y-12245436D02*
X1998634Y-12254960D01*
X1998634Y-12254960D02*
X1979586Y-12264484D01*
X1979586Y-12264484D02*
X1960539Y-12264484D01*
X1960539Y-12264484D02*
X1941491Y-12254960D01*
X1941491Y-12254960D02*
X1931967Y-12245436D01*
X1931967Y-12245436D02*
X1922443Y-12226388D01*
X1922443Y-12226388D02*
X1912920Y-12188293D01*
X1912920Y-12188293D02*
X1912920Y-12140674D01*
X1912920Y-12140674D02*
X1922443Y-12102579D01*
X1922443Y-12102579D02*
X1931967Y-12083531D01*
X1931967Y-12083531D02*
X1941491Y-12074008D01*
X1941491Y-12074008D02*
X1960539Y-12064484D01*
X2112920Y-12264484D02*
X2112920Y-12131150D01*
X2112920Y-12150198D02*
X2122444Y-12140674D01*
X2122444Y-12140674D02*
X2141491Y-12131150D01*
X2141491Y-12131150D02*
X2170063Y-12131150D01*
X2170063Y-12131150D02*
X2189110Y-12140674D01*
X2189110Y-12140674D02*
X2198634Y-12159722D01*
X2198634Y-12159722D02*
X2198634Y-12264484D01*
X2198634Y-12159722D02*
X2208158Y-12140674D01*
X2208158Y-12140674D02*
X2227205Y-12131150D01*
X2227205Y-12131150D02*
X2255777Y-12131150D01*
X2255777Y-12131150D02*
X2274825Y-12140674D01*
X2274825Y-12140674D02*
X2284348Y-12159722D01*
X2284348Y-12159722D02*
X2284348Y-12264484D01*
X2379586Y-12264484D02*
X2379586Y-12131150D01*
X2379586Y-12150198D02*
X2389110Y-12140674D01*
X2389110Y-12140674D02*
X2408158Y-12131150D01*
X2408158Y-12131150D02*
X2436729Y-12131150D01*
X2436729Y-12131150D02*
X2455777Y-12140674D01*
X2455777Y-12140674D02*
X2465301Y-12159722D01*
X2465301Y-12159722D02*
X2465301Y-12264484D01*
X2465301Y-12159722D02*
X2474825Y-12140674D01*
X2474825Y-12140674D02*
X2493872Y-12131150D01*
X2493872Y-12131150D02*
X2522444Y-12131150D01*
X2522444Y-12131150D02*
X2541491Y-12140674D01*
X2541491Y-12140674D02*
X2551015Y-12159722D01*
X2551015Y-12159722D02*
X2551015Y-12264484D01*
X2941491Y-12054960D02*
X2770063Y-12312103D01*
X3198634Y-12064484D02*
X3217682Y-12064484D01*
X3217682Y-12064484D02*
X3236729Y-12074008D01*
X3236729Y-12074008D02*
X3246253Y-12083531D01*
X3246253Y-12083531D02*
X3255777Y-12102579D01*
X3255777Y-12102579D02*
X3265301Y-12140674D01*
X3265301Y-12140674D02*
X3265301Y-12188293D01*
X3265301Y-12188293D02*
X3255777Y-12226388D01*
X3255777Y-12226388D02*
X3246253Y-12245436D01*
X3246253Y-12245436D02*
X3236729Y-12254960D01*
X3236729Y-12254960D02*
X3217682Y-12264484D01*
X3217682Y-12264484D02*
X3198634Y-12264484D01*
X3198634Y-12264484D02*
X3179586Y-12254960D01*
X3179586Y-12254960D02*
X3170063Y-12245436D01*
X3170063Y-12245436D02*
X3160539Y-12226388D01*
X3160539Y-12226388D02*
X3151015Y-12188293D01*
X3151015Y-12188293D02*
X3151015Y-12140674D01*
X3151015Y-12140674D02*
X3160539Y-12102579D01*
X3160539Y-12102579D02*
X3170063Y-12083531D01*
X3170063Y-12083531D02*
X3179586Y-12074008D01*
X3179586Y-12074008D02*
X3198634Y-12064484D01*
X3351015Y-12245436D02*
X3360539Y-12254960D01*
X3360539Y-12254960D02*
X3351015Y-12264484D01*
X3351015Y-12264484D02*
X3341491Y-12254960D01*
X3341491Y-12254960D02*
X3351015Y-12245436D01*
X3351015Y-12245436D02*
X3351015Y-12264484D01*
X3484348Y-12064484D02*
X3503396Y-12064484D01*
X3503396Y-12064484D02*
X3522444Y-12074008D01*
X3522444Y-12074008D02*
X3531967Y-12083531D01*
X3531967Y-12083531D02*
X3541491Y-12102579D01*
X3541491Y-12102579D02*
X3551015Y-12140674D01*
X3551015Y-12140674D02*
X3551015Y-12188293D01*
X3551015Y-12188293D02*
X3541491Y-12226388D01*
X3541491Y-12226388D02*
X3531967Y-12245436D01*
X3531967Y-12245436D02*
X3522444Y-12254960D01*
X3522444Y-12254960D02*
X3503396Y-12264484D01*
X3503396Y-12264484D02*
X3484348Y-12264484D01*
X3484348Y-12264484D02*
X3465301Y-12254960D01*
X3465301Y-12254960D02*
X3455777Y-12245436D01*
X3455777Y-12245436D02*
X3446253Y-12226388D01*
X3446253Y-12226388D02*
X3436729Y-12188293D01*
X3436729Y-12188293D02*
X3436729Y-12140674D01*
X3436729Y-12140674D02*
X3446253Y-12102579D01*
X3446253Y-12102579D02*
X3455777Y-12083531D01*
X3455777Y-12083531D02*
X3465301Y-12074008D01*
X3465301Y-12074008D02*
X3484348Y-12064484D01*
X3627206Y-12083531D02*
X3636729Y-12074008D01*
X3636729Y-12074008D02*
X3655777Y-12064484D01*
X3655777Y-12064484D02*
X3703396Y-12064484D01*
X3703396Y-12064484D02*
X3722444Y-12074008D01*
X3722444Y-12074008D02*
X3731967Y-12083531D01*
X3731967Y-12083531D02*
X3741491Y-12102579D01*
X3741491Y-12102579D02*
X3741491Y-12121627D01*
X3741491Y-12121627D02*
X3731967Y-12150198D01*
X3731967Y-12150198D02*
X3617682Y-12264484D01*
X3617682Y-12264484D02*
X3741491Y-12264484D01*
X3808158Y-12064484D02*
X3931967Y-12064484D01*
X3931967Y-12064484D02*
X3865301Y-12140674D01*
X3865301Y-12140674D02*
X3893872Y-12140674D01*
X3893872Y-12140674D02*
X3912920Y-12150198D01*
X3912920Y-12150198D02*
X3922444Y-12159722D01*
X3922444Y-12159722D02*
X3931967Y-12178769D01*
X3931967Y-12178769D02*
X3931967Y-12226388D01*
X3931967Y-12226388D02*
X3922444Y-12245436D01*
X3922444Y-12245436D02*
X3912920Y-12254960D01*
X3912920Y-12254960D02*
X3893872Y-12264484D01*
X3893872Y-12264484D02*
X3836729Y-12264484D01*
X3836729Y-12264484D02*
X3817682Y-12254960D01*
X3817682Y-12254960D02*
X3808158Y-12245436D01*
X4103396Y-12064484D02*
X4065301Y-12064484D01*
X4065301Y-12064484D02*
X4046253Y-12074008D01*
X4046253Y-12074008D02*
X4036729Y-12083531D01*
X4036729Y-12083531D02*
X4017682Y-12112103D01*
X4017682Y-12112103D02*
X4008158Y-12150198D01*
X4008158Y-12150198D02*
X4008158Y-12226388D01*
X4008158Y-12226388D02*
X4017682Y-12245436D01*
X4017682Y-12245436D02*
X4027206Y-12254960D01*
X4027206Y-12254960D02*
X4046253Y-12264484D01*
X4046253Y-12264484D02*
X4084348Y-12264484D01*
X4084348Y-12264484D02*
X4103396Y-12254960D01*
X4103396Y-12254960D02*
X4112920Y-12245436D01*
X4112920Y-12245436D02*
X4122444Y-12226388D01*
X4122444Y-12226388D02*
X4122444Y-12178769D01*
X4122444Y-12178769D02*
X4112920Y-12159722D01*
X4112920Y-12159722D02*
X4103396Y-12150198D01*
X4103396Y-12150198D02*
X4084348Y-12140674D01*
X4084348Y-12140674D02*
X4046253Y-12140674D01*
X4046253Y-12140674D02*
X4027206Y-12150198D01*
X4027206Y-12150198D02*
X4017682Y-12159722D01*
X4017682Y-12159722D02*
X4008158Y-12178769D01*
X4198634Y-12064484D02*
X4198634Y-12102579D01*
X4274825Y-12064484D02*
X4274825Y-12102579D01*
X4570063Y-12340674D02*
X4560539Y-12331150D01*
X4560539Y-12331150D02*
X4541491Y-12302579D01*
X4541491Y-12302579D02*
X4531968Y-12283531D01*
X4531968Y-12283531D02*
X4522444Y-12254960D01*
X4522444Y-12254960D02*
X4512920Y-12207341D01*
X4512920Y-12207341D02*
X4512920Y-12169246D01*
X4512920Y-12169246D02*
X4522444Y-12121627D01*
X4522444Y-12121627D02*
X4531968Y-12093055D01*
X4531968Y-12093055D02*
X4541491Y-12074008D01*
X4541491Y-12074008D02*
X4560539Y-12045436D01*
X4560539Y-12045436D02*
X4570063Y-12035912D01*
X4684349Y-12064484D02*
X4703396Y-12064484D01*
X4703396Y-12064484D02*
X4722444Y-12074008D01*
X4722444Y-12074008D02*
X4731968Y-12083531D01*
X4731968Y-12083531D02*
X4741491Y-12102579D01*
X4741491Y-12102579D02*
X4751015Y-12140674D01*
X4751015Y-12140674D02*
X4751015Y-12188293D01*
X4751015Y-12188293D02*
X4741491Y-12226388D01*
X4741491Y-12226388D02*
X4731968Y-12245436D01*
X4731968Y-12245436D02*
X4722444Y-12254960D01*
X4722444Y-12254960D02*
X4703396Y-12264484D01*
X4703396Y-12264484D02*
X4684349Y-12264484D01*
X4684349Y-12264484D02*
X4665301Y-12254960D01*
X4665301Y-12254960D02*
X4655777Y-12245436D01*
X4655777Y-12245436D02*
X4646253Y-12226388D01*
X4646253Y-12226388D02*
X4636730Y-12188293D01*
X4636730Y-12188293D02*
X4636730Y-12140674D01*
X4636730Y-12140674D02*
X4646253Y-12102579D01*
X4646253Y-12102579D02*
X4655777Y-12083531D01*
X4655777Y-12083531D02*
X4665301Y-12074008D01*
X4665301Y-12074008D02*
X4684349Y-12064484D01*
X4989111Y-12264484D02*
X4989111Y-12064484D01*
X5074825Y-12264484D02*
X5074825Y-12159722D01*
X5074825Y-12159722D02*
X5065301Y-12140674D01*
X5065301Y-12140674D02*
X5046253Y-12131150D01*
X5046253Y-12131150D02*
X5017682Y-12131150D01*
X5017682Y-12131150D02*
X4998634Y-12140674D01*
X4998634Y-12140674D02*
X4989111Y-12150198D01*
X5198634Y-12264484D02*
X5179587Y-12254960D01*
X5179587Y-12254960D02*
X5170063Y-12245436D01*
X5170063Y-12245436D02*
X5160539Y-12226388D01*
X5160539Y-12226388D02*
X5160539Y-12169246D01*
X5160539Y-12169246D02*
X5170063Y-12150198D01*
X5170063Y-12150198D02*
X5179587Y-12140674D01*
X5179587Y-12140674D02*
X5198634Y-12131150D01*
X5198634Y-12131150D02*
X5227206Y-12131150D01*
X5227206Y-12131150D02*
X5246253Y-12140674D01*
X5246253Y-12140674D02*
X5255777Y-12150198D01*
X5255777Y-12150198D02*
X5265301Y-12169246D01*
X5265301Y-12169246D02*
X5265301Y-12226388D01*
X5265301Y-12226388D02*
X5255777Y-12245436D01*
X5255777Y-12245436D02*
X5246253Y-12254960D01*
X5246253Y-12254960D02*
X5227206Y-12264484D01*
X5227206Y-12264484D02*
X5198634Y-12264484D01*
X5379587Y-12264484D02*
X5360539Y-12254960D01*
X5360539Y-12254960D02*
X5351015Y-12235912D01*
X5351015Y-12235912D02*
X5351015Y-12064484D01*
X5531968Y-12254960D02*
X5512920Y-12264484D01*
X5512920Y-12264484D02*
X5474825Y-12264484D01*
X5474825Y-12264484D02*
X5455777Y-12254960D01*
X5455777Y-12254960D02*
X5446253Y-12235912D01*
X5446253Y-12235912D02*
X5446253Y-12159722D01*
X5446253Y-12159722D02*
X5455777Y-12140674D01*
X5455777Y-12140674D02*
X5474825Y-12131150D01*
X5474825Y-12131150D02*
X5512920Y-12131150D01*
X5512920Y-12131150D02*
X5531968Y-12140674D01*
X5531968Y-12140674D02*
X5541492Y-12159722D01*
X5541492Y-12159722D02*
X5541492Y-12178769D01*
X5541492Y-12178769D02*
X5446253Y-12197817D01*
X5617682Y-12254960D02*
X5636730Y-12264484D01*
X5636730Y-12264484D02*
X5674825Y-12264484D01*
X5674825Y-12264484D02*
X5693872Y-12254960D01*
X5693872Y-12254960D02*
X5703396Y-12235912D01*
X5703396Y-12235912D02*
X5703396Y-12226388D01*
X5703396Y-12226388D02*
X5693872Y-12207341D01*
X5693872Y-12207341D02*
X5674825Y-12197817D01*
X5674825Y-12197817D02*
X5646253Y-12197817D01*
X5646253Y-12197817D02*
X5627206Y-12188293D01*
X5627206Y-12188293D02*
X5617682Y-12169246D01*
X5617682Y-12169246D02*
X5617682Y-12159722D01*
X5617682Y-12159722D02*
X5627206Y-12140674D01*
X5627206Y-12140674D02*
X5646253Y-12131150D01*
X5646253Y-12131150D02*
X5674825Y-12131150D01*
X5674825Y-12131150D02*
X5693872Y-12140674D01*
X5941492Y-12188293D02*
X6093873Y-12188293D01*
X6017682Y-12264484D02*
X6017682Y-12112103D01*
X6427206Y-12131150D02*
X6427206Y-12264484D01*
X6379587Y-12054960D02*
X6331968Y-12197817D01*
X6331968Y-12197817D02*
X6455777Y-12197817D01*
X6674825Y-12254960D02*
X6693873Y-12264484D01*
X6693873Y-12264484D02*
X6731968Y-12264484D01*
X6731968Y-12264484D02*
X6751015Y-12254960D01*
X6751015Y-12254960D02*
X6760539Y-12235912D01*
X6760539Y-12235912D02*
X6760539Y-12226388D01*
X6760539Y-12226388D02*
X6751015Y-12207341D01*
X6751015Y-12207341D02*
X6731968Y-12197817D01*
X6731968Y-12197817D02*
X6703396Y-12197817D01*
X6703396Y-12197817D02*
X6684349Y-12188293D01*
X6684349Y-12188293D02*
X6674825Y-12169246D01*
X6674825Y-12169246D02*
X6674825Y-12159722D01*
X6674825Y-12159722D02*
X6684349Y-12140674D01*
X6684349Y-12140674D02*
X6703396Y-12131150D01*
X6703396Y-12131150D02*
X6731968Y-12131150D01*
X6731968Y-12131150D02*
X6751015Y-12140674D01*
X6874825Y-12264484D02*
X6855777Y-12254960D01*
X6855777Y-12254960D02*
X6846254Y-12235912D01*
X6846254Y-12235912D02*
X6846254Y-12064484D01*
X6979587Y-12264484D02*
X6960539Y-12254960D01*
X6960539Y-12254960D02*
X6951015Y-12245436D01*
X6951015Y-12245436D02*
X6941492Y-12226388D01*
X6941492Y-12226388D02*
X6941492Y-12169246D01*
X6941492Y-12169246D02*
X6951015Y-12150198D01*
X6951015Y-12150198D02*
X6960539Y-12140674D01*
X6960539Y-12140674D02*
X6979587Y-12131150D01*
X6979587Y-12131150D02*
X7008158Y-12131150D01*
X7008158Y-12131150D02*
X7027206Y-12140674D01*
X7027206Y-12140674D02*
X7036730Y-12150198D01*
X7036730Y-12150198D02*
X7046254Y-12169246D01*
X7046254Y-12169246D02*
X7046254Y-12226388D01*
X7046254Y-12226388D02*
X7036730Y-12245436D01*
X7036730Y-12245436D02*
X7027206Y-12254960D01*
X7027206Y-12254960D02*
X7008158Y-12264484D01*
X7008158Y-12264484D02*
X6979587Y-12264484D01*
X7103396Y-12131150D02*
X7179587Y-12131150D01*
X7131968Y-12064484D02*
X7131968Y-12235912D01*
X7131968Y-12235912D02*
X7141492Y-12254960D01*
X7141492Y-12254960D02*
X7160539Y-12264484D01*
X7160539Y-12264484D02*
X7179587Y-12264484D01*
X7236730Y-12254960D02*
X7255777Y-12264484D01*
X7255777Y-12264484D02*
X7293873Y-12264484D01*
X7293873Y-12264484D02*
X7312920Y-12254960D01*
X7312920Y-12254960D02*
X7322444Y-12235912D01*
X7322444Y-12235912D02*
X7322444Y-12226388D01*
X7322444Y-12226388D02*
X7312920Y-12207341D01*
X7312920Y-12207341D02*
X7293873Y-12197817D01*
X7293873Y-12197817D02*
X7265301Y-12197817D01*
X7265301Y-12197817D02*
X7246254Y-12188293D01*
X7246254Y-12188293D02*
X7236730Y-12169246D01*
X7236730Y-12169246D02*
X7236730Y-12159722D01*
X7236730Y-12159722D02*
X7246254Y-12140674D01*
X7246254Y-12140674D02*
X7265301Y-12131150D01*
X7265301Y-12131150D02*
X7293873Y-12131150D01*
X7293873Y-12131150D02*
X7312920Y-12140674D01*
X7389111Y-12340674D02*
X7398635Y-12331150D01*
X7398635Y-12331150D02*
X7417682Y-12302579D01*
X7417682Y-12302579D02*
X7427206Y-12283531D01*
X7427206Y-12283531D02*
X7436730Y-12254960D01*
X7436730Y-12254960D02*
X7446254Y-12207341D01*
X7446254Y-12207341D02*
X7446254Y-12169246D01*
X7446254Y-12169246D02*
X7436730Y-12121627D01*
X7436730Y-12121627D02*
X7427206Y-12093055D01*
X7427206Y-12093055D02*
X7417682Y-12074008D01*
X7417682Y-12074008D02*
X7398635Y-12045436D01*
X7398635Y-12045436D02*
X7389111Y-12035912D01*
D10*
X980356Y-12472356D02*
X980356Y-12401644D01*
X909644Y-12401644D01*
X909644Y-12472356D01*
X980356Y-12472356D01*
D11*
X1360539Y-12528484D02*
X1246253Y-12528484D01*
X1303396Y-12528484D02*
X1303396Y-12328484D01*
X1303396Y-12328484D02*
X1284348Y-12357055D01*
X1284348Y-12357055D02*
X1265301Y-12376103D01*
X1265301Y-12376103D02*
X1246253Y-12385627D01*
X1446253Y-12509436D02*
X1455777Y-12518960D01*
X1455777Y-12518960D02*
X1446253Y-12528484D01*
X1446253Y-12528484D02*
X1436729Y-12518960D01*
X1436729Y-12518960D02*
X1446253Y-12509436D01*
X1446253Y-12509436D02*
X1446253Y-12528484D01*
X1579586Y-12328484D02*
X1598634Y-12328484D01*
X1598634Y-12328484D02*
X1617682Y-12338008D01*
X1617682Y-12338008D02*
X1627205Y-12347531D01*
X1627205Y-12347531D02*
X1636729Y-12366579D01*
X1636729Y-12366579D02*
X1646253Y-12404674D01*
X1646253Y-12404674D02*
X1646253Y-12452293D01*
X1646253Y-12452293D02*
X1636729Y-12490388D01*
X1636729Y-12490388D02*
X1627205Y-12509436D01*
X1627205Y-12509436D02*
X1617682Y-12518960D01*
X1617682Y-12518960D02*
X1598634Y-12528484D01*
X1598634Y-12528484D02*
X1579586Y-12528484D01*
X1579586Y-12528484D02*
X1560539Y-12518960D01*
X1560539Y-12518960D02*
X1551015Y-12509436D01*
X1551015Y-12509436D02*
X1541491Y-12490388D01*
X1541491Y-12490388D02*
X1531967Y-12452293D01*
X1531967Y-12452293D02*
X1531967Y-12404674D01*
X1531967Y-12404674D02*
X1541491Y-12366579D01*
X1541491Y-12366579D02*
X1551015Y-12347531D01*
X1551015Y-12347531D02*
X1560539Y-12338008D01*
X1560539Y-12338008D02*
X1579586Y-12328484D01*
X1770062Y-12328484D02*
X1789110Y-12328484D01*
X1789110Y-12328484D02*
X1808158Y-12338008D01*
X1808158Y-12338008D02*
X1817682Y-12347531D01*
X1817682Y-12347531D02*
X1827205Y-12366579D01*
X1827205Y-12366579D02*
X1836729Y-12404674D01*
X1836729Y-12404674D02*
X1836729Y-12452293D01*
X1836729Y-12452293D02*
X1827205Y-12490388D01*
X1827205Y-12490388D02*
X1817682Y-12509436D01*
X1817682Y-12509436D02*
X1808158Y-12518960D01*
X1808158Y-12518960D02*
X1789110Y-12528484D01*
X1789110Y-12528484D02*
X1770062Y-12528484D01*
X1770062Y-12528484D02*
X1751015Y-12518960D01*
X1751015Y-12518960D02*
X1741491Y-12509436D01*
X1741491Y-12509436D02*
X1731967Y-12490388D01*
X1731967Y-12490388D02*
X1722443Y-12452293D01*
X1722443Y-12452293D02*
X1722443Y-12404674D01*
X1722443Y-12404674D02*
X1731967Y-12366579D01*
X1731967Y-12366579D02*
X1741491Y-12347531D01*
X1741491Y-12347531D02*
X1751015Y-12338008D01*
X1751015Y-12338008D02*
X1770062Y-12328484D01*
X1960539Y-12328484D02*
X1979586Y-12328484D01*
X1979586Y-12328484D02*
X1998634Y-12338008D01*
X1998634Y-12338008D02*
X2008158Y-12347531D01*
X2008158Y-12347531D02*
X2017682Y-12366579D01*
X2017682Y-12366579D02*
X2027205Y-12404674D01*
X2027205Y-12404674D02*
X2027205Y-12452293D01*
X2027205Y-12452293D02*
X2017682Y-12490388D01*
X2017682Y-12490388D02*
X2008158Y-12509436D01*
X2008158Y-12509436D02*
X1998634Y-12518960D01*
X1998634Y-12518960D02*
X1979586Y-12528484D01*
X1979586Y-12528484D02*
X1960539Y-12528484D01*
X1960539Y-12528484D02*
X1941491Y-12518960D01*
X1941491Y-12518960D02*
X1931967Y-12509436D01*
X1931967Y-12509436D02*
X1922443Y-12490388D01*
X1922443Y-12490388D02*
X1912920Y-12452293D01*
X1912920Y-12452293D02*
X1912920Y-12404674D01*
X1912920Y-12404674D02*
X1922443Y-12366579D01*
X1922443Y-12366579D02*
X1931967Y-12347531D01*
X1931967Y-12347531D02*
X1941491Y-12338008D01*
X1941491Y-12338008D02*
X1960539Y-12328484D01*
X2112920Y-12528484D02*
X2112920Y-12395150D01*
X2112920Y-12414198D02*
X2122444Y-12404674D01*
X2122444Y-12404674D02*
X2141491Y-12395150D01*
X2141491Y-12395150D02*
X2170063Y-12395150D01*
X2170063Y-12395150D02*
X2189110Y-12404674D01*
X2189110Y-12404674D02*
X2198634Y-12423722D01*
X2198634Y-12423722D02*
X2198634Y-12528484D01*
X2198634Y-12423722D02*
X2208158Y-12404674D01*
X2208158Y-12404674D02*
X2227205Y-12395150D01*
X2227205Y-12395150D02*
X2255777Y-12395150D01*
X2255777Y-12395150D02*
X2274825Y-12404674D01*
X2274825Y-12404674D02*
X2284348Y-12423722D01*
X2284348Y-12423722D02*
X2284348Y-12528484D01*
X2379586Y-12528484D02*
X2379586Y-12395150D01*
X2379586Y-12414198D02*
X2389110Y-12404674D01*
X2389110Y-12404674D02*
X2408158Y-12395150D01*
X2408158Y-12395150D02*
X2436729Y-12395150D01*
X2436729Y-12395150D02*
X2455777Y-12404674D01*
X2455777Y-12404674D02*
X2465301Y-12423722D01*
X2465301Y-12423722D02*
X2465301Y-12528484D01*
X2465301Y-12423722D02*
X2474825Y-12404674D01*
X2474825Y-12404674D02*
X2493872Y-12395150D01*
X2493872Y-12395150D02*
X2522444Y-12395150D01*
X2522444Y-12395150D02*
X2541491Y-12404674D01*
X2541491Y-12404674D02*
X2551015Y-12423722D01*
X2551015Y-12423722D02*
X2551015Y-12528484D01*
X2941491Y-12318960D02*
X2770063Y-12576103D01*
X3198634Y-12328484D02*
X3217682Y-12328484D01*
X3217682Y-12328484D02*
X3236729Y-12338008D01*
X3236729Y-12338008D02*
X3246253Y-12347531D01*
X3246253Y-12347531D02*
X3255777Y-12366579D01*
X3255777Y-12366579D02*
X3265301Y-12404674D01*
X3265301Y-12404674D02*
X3265301Y-12452293D01*
X3265301Y-12452293D02*
X3255777Y-12490388D01*
X3255777Y-12490388D02*
X3246253Y-12509436D01*
X3246253Y-12509436D02*
X3236729Y-12518960D01*
X3236729Y-12518960D02*
X3217682Y-12528484D01*
X3217682Y-12528484D02*
X3198634Y-12528484D01*
X3198634Y-12528484D02*
X3179586Y-12518960D01*
X3179586Y-12518960D02*
X3170063Y-12509436D01*
X3170063Y-12509436D02*
X3160539Y-12490388D01*
X3160539Y-12490388D02*
X3151015Y-12452293D01*
X3151015Y-12452293D02*
X3151015Y-12404674D01*
X3151015Y-12404674D02*
X3160539Y-12366579D01*
X3160539Y-12366579D02*
X3170063Y-12347531D01*
X3170063Y-12347531D02*
X3179586Y-12338008D01*
X3179586Y-12338008D02*
X3198634Y-12328484D01*
X3351015Y-12509436D02*
X3360539Y-12518960D01*
X3360539Y-12518960D02*
X3351015Y-12528484D01*
X3351015Y-12528484D02*
X3341491Y-12518960D01*
X3341491Y-12518960D02*
X3351015Y-12509436D01*
X3351015Y-12509436D02*
X3351015Y-12528484D01*
X3484348Y-12328484D02*
X3503396Y-12328484D01*
X3503396Y-12328484D02*
X3522444Y-12338008D01*
X3522444Y-12338008D02*
X3531967Y-12347531D01*
X3531967Y-12347531D02*
X3541491Y-12366579D01*
X3541491Y-12366579D02*
X3551015Y-12404674D01*
X3551015Y-12404674D02*
X3551015Y-12452293D01*
X3551015Y-12452293D02*
X3541491Y-12490388D01*
X3541491Y-12490388D02*
X3531967Y-12509436D01*
X3531967Y-12509436D02*
X3522444Y-12518960D01*
X3522444Y-12518960D02*
X3503396Y-12528484D01*
X3503396Y-12528484D02*
X3484348Y-12528484D01*
X3484348Y-12528484D02*
X3465301Y-12518960D01*
X3465301Y-12518960D02*
X3455777Y-12509436D01*
X3455777Y-12509436D02*
X3446253Y-12490388D01*
X3446253Y-12490388D02*
X3436729Y-12452293D01*
X3436729Y-12452293D02*
X3436729Y-12404674D01*
X3436729Y-12404674D02*
X3446253Y-12366579D01*
X3446253Y-12366579D02*
X3455777Y-12347531D01*
X3455777Y-12347531D02*
X3465301Y-12338008D01*
X3465301Y-12338008D02*
X3484348Y-12328484D01*
X3617682Y-12328484D02*
X3741491Y-12328484D01*
X3741491Y-12328484D02*
X3674825Y-12404674D01*
X3674825Y-12404674D02*
X3703396Y-12404674D01*
X3703396Y-12404674D02*
X3722444Y-12414198D01*
X3722444Y-12414198D02*
X3731967Y-12423722D01*
X3731967Y-12423722D02*
X3741491Y-12442769D01*
X3741491Y-12442769D02*
X3741491Y-12490388D01*
X3741491Y-12490388D02*
X3731967Y-12509436D01*
X3731967Y-12509436D02*
X3722444Y-12518960D01*
X3722444Y-12518960D02*
X3703396Y-12528484D01*
X3703396Y-12528484D02*
X3646253Y-12528484D01*
X3646253Y-12528484D02*
X3627206Y-12518960D01*
X3627206Y-12518960D02*
X3617682Y-12509436D01*
X3836729Y-12528484D02*
X3874825Y-12528484D01*
X3874825Y-12528484D02*
X3893872Y-12518960D01*
X3893872Y-12518960D02*
X3903396Y-12509436D01*
X3903396Y-12509436D02*
X3922444Y-12480865D01*
X3922444Y-12480865D02*
X3931967Y-12442769D01*
X3931967Y-12442769D02*
X3931967Y-12366579D01*
X3931967Y-12366579D02*
X3922444Y-12347531D01*
X3922444Y-12347531D02*
X3912920Y-12338008D01*
X3912920Y-12338008D02*
X3893872Y-12328484D01*
X3893872Y-12328484D02*
X3855777Y-12328484D01*
X3855777Y-12328484D02*
X3836729Y-12338008D01*
X3836729Y-12338008D02*
X3827206Y-12347531D01*
X3827206Y-12347531D02*
X3817682Y-12366579D01*
X3817682Y-12366579D02*
X3817682Y-12414198D01*
X3817682Y-12414198D02*
X3827206Y-12433246D01*
X3827206Y-12433246D02*
X3836729Y-12442769D01*
X3836729Y-12442769D02*
X3855777Y-12452293D01*
X3855777Y-12452293D02*
X3893872Y-12452293D01*
X3893872Y-12452293D02*
X3912920Y-12442769D01*
X3912920Y-12442769D02*
X3922444Y-12433246D01*
X3922444Y-12433246D02*
X3931967Y-12414198D01*
X4103396Y-12395150D02*
X4103396Y-12528484D01*
X4055777Y-12318960D02*
X4008158Y-12461817D01*
X4008158Y-12461817D02*
X4131967Y-12461817D01*
X4198634Y-12328484D02*
X4198634Y-12366579D01*
X4274825Y-12328484D02*
X4274825Y-12366579D01*
X4570063Y-12604674D02*
X4560539Y-12595150D01*
X4560539Y-12595150D02*
X4541491Y-12566579D01*
X4541491Y-12566579D02*
X4531968Y-12547531D01*
X4531968Y-12547531D02*
X4522444Y-12518960D01*
X4522444Y-12518960D02*
X4512920Y-12471341D01*
X4512920Y-12471341D02*
X4512920Y-12433246D01*
X4512920Y-12433246D02*
X4522444Y-12385627D01*
X4522444Y-12385627D02*
X4531968Y-12357055D01*
X4531968Y-12357055D02*
X4541491Y-12338008D01*
X4541491Y-12338008D02*
X4560539Y-12309436D01*
X4560539Y-12309436D02*
X4570063Y-12299912D01*
X4751015Y-12528484D02*
X4636730Y-12528484D01*
X4693872Y-12528484D02*
X4693872Y-12328484D01*
X4693872Y-12328484D02*
X4674825Y-12357055D01*
X4674825Y-12357055D02*
X4655777Y-12376103D01*
X4655777Y-12376103D02*
X4636730Y-12385627D01*
X4922444Y-12328484D02*
X4884349Y-12328484D01*
X4884349Y-12328484D02*
X4865301Y-12338008D01*
X4865301Y-12338008D02*
X4855777Y-12347531D01*
X4855777Y-12347531D02*
X4836730Y-12376103D01*
X4836730Y-12376103D02*
X4827206Y-12414198D01*
X4827206Y-12414198D02*
X4827206Y-12490388D01*
X4827206Y-12490388D02*
X4836730Y-12509436D01*
X4836730Y-12509436D02*
X4846253Y-12518960D01*
X4846253Y-12518960D02*
X4865301Y-12528484D01*
X4865301Y-12528484D02*
X4903396Y-12528484D01*
X4903396Y-12528484D02*
X4922444Y-12518960D01*
X4922444Y-12518960D02*
X4931968Y-12509436D01*
X4931968Y-12509436D02*
X4941491Y-12490388D01*
X4941491Y-12490388D02*
X4941491Y-12442769D01*
X4941491Y-12442769D02*
X4931968Y-12423722D01*
X4931968Y-12423722D02*
X4922444Y-12414198D01*
X4922444Y-12414198D02*
X4903396Y-12404674D01*
X4903396Y-12404674D02*
X4865301Y-12404674D01*
X4865301Y-12404674D02*
X4846253Y-12414198D01*
X4846253Y-12414198D02*
X4836730Y-12423722D01*
X4836730Y-12423722D02*
X4827206Y-12442769D01*
X5179587Y-12528484D02*
X5179587Y-12328484D01*
X5265301Y-12528484D02*
X5265301Y-12423722D01*
X5265301Y-12423722D02*
X5255777Y-12404674D01*
X5255777Y-12404674D02*
X5236730Y-12395150D01*
X5236730Y-12395150D02*
X5208158Y-12395150D01*
X5208158Y-12395150D02*
X5189111Y-12404674D01*
X5189111Y-12404674D02*
X5179587Y-12414198D01*
X5389111Y-12528484D02*
X5370063Y-12518960D01*
X5370063Y-12518960D02*
X5360539Y-12509436D01*
X5360539Y-12509436D02*
X5351015Y-12490388D01*
X5351015Y-12490388D02*
X5351015Y-12433246D01*
X5351015Y-12433246D02*
X5360539Y-12414198D01*
X5360539Y-12414198D02*
X5370063Y-12404674D01*
X5370063Y-12404674D02*
X5389111Y-12395150D01*
X5389111Y-12395150D02*
X5417682Y-12395150D01*
X5417682Y-12395150D02*
X5436730Y-12404674D01*
X5436730Y-12404674D02*
X5446253Y-12414198D01*
X5446253Y-12414198D02*
X5455777Y-12433246D01*
X5455777Y-12433246D02*
X5455777Y-12490388D01*
X5455777Y-12490388D02*
X5446253Y-12509436D01*
X5446253Y-12509436D02*
X5436730Y-12518960D01*
X5436730Y-12518960D02*
X5417682Y-12528484D01*
X5417682Y-12528484D02*
X5389111Y-12528484D01*
X5570063Y-12528484D02*
X5551015Y-12518960D01*
X5551015Y-12518960D02*
X5541492Y-12499912D01*
X5541492Y-12499912D02*
X5541492Y-12328484D01*
X5722444Y-12518960D02*
X5703396Y-12528484D01*
X5703396Y-12528484D02*
X5665301Y-12528484D01*
X5665301Y-12528484D02*
X5646253Y-12518960D01*
X5646253Y-12518960D02*
X5636730Y-12499912D01*
X5636730Y-12499912D02*
X5636730Y-12423722D01*
X5636730Y-12423722D02*
X5646253Y-12404674D01*
X5646253Y-12404674D02*
X5665301Y-12395150D01*
X5665301Y-12395150D02*
X5703396Y-12395150D01*
X5703396Y-12395150D02*
X5722444Y-12404674D01*
X5722444Y-12404674D02*
X5731968Y-12423722D01*
X5731968Y-12423722D02*
X5731968Y-12442769D01*
X5731968Y-12442769D02*
X5636730Y-12461817D01*
X5808158Y-12518960D02*
X5827206Y-12528484D01*
X5827206Y-12528484D02*
X5865301Y-12528484D01*
X5865301Y-12528484D02*
X5884349Y-12518960D01*
X5884349Y-12518960D02*
X5893872Y-12499912D01*
X5893872Y-12499912D02*
X5893872Y-12490388D01*
X5893872Y-12490388D02*
X5884349Y-12471341D01*
X5884349Y-12471341D02*
X5865301Y-12461817D01*
X5865301Y-12461817D02*
X5836730Y-12461817D01*
X5836730Y-12461817D02*
X5817682Y-12452293D01*
X5817682Y-12452293D02*
X5808158Y-12433246D01*
X5808158Y-12433246D02*
X5808158Y-12423722D01*
X5808158Y-12423722D02*
X5817682Y-12404674D01*
X5817682Y-12404674D02*
X5836730Y-12395150D01*
X5836730Y-12395150D02*
X5865301Y-12395150D01*
X5865301Y-12395150D02*
X5884349Y-12404674D01*
X5960539Y-12604674D02*
X5970063Y-12595150D01*
X5970063Y-12595150D02*
X5989111Y-12566579D01*
X5989111Y-12566579D02*
X5998634Y-12547531D01*
X5998634Y-12547531D02*
X6008158Y-12518960D01*
X6008158Y-12518960D02*
X6017682Y-12471341D01*
X6017682Y-12471341D02*
X6017682Y-12433246D01*
X6017682Y-12433246D02*
X6008158Y-12385627D01*
X6008158Y-12385627D02*
X5998634Y-12357055D01*
X5998634Y-12357055D02*
X5989111Y-12338008D01*
X5989111Y-12338008D02*
X5970063Y-12309436D01*
X5970063Y-12309436D02*
X5960539Y-12299912D01*
M02*
