%TF.GenerationSoftware,KiCad,Pcbnew,10.0.5*%
%TF.CreationDate,2026-08-25T17:32:45+08:00*%
%TF.ProjectId,PCAP04_Acquisition_3CH_v1.5_100mm_C496550,50434150-3034-45f4-9163-717569736974,v1.5*%
%TF.SameCoordinates,Original*%
%TF.FileFunction,Copper,L1,Top*%
%TF.FilePolarity,Positive*%
%FSLAX46Y46*%
G04 Gerber Fmt 4.6, Leading zero omitted, Abs format (unit mm)*
G04 Created by KiCad (PCBNEW 10.0.5) date 2026-08-25 17:32:45*
%MOMM*%
%LPD*%
G01*
G04 APERTURE LIST*
G04 Aperture macros list*
%AMRoundRect*
0 Rectangle with rounded corners*
0 $1 Rounding radius*
0 $2 $3 $4 $5 $6 $7 $8 $9 X,Y pos of 4 corners*
0 Add a 4 corners polygon primitive as box body*
4,1,4,$2,$3,$4,$5,$6,$7,$8,$9,$2,$3,0*
0 Add four circle primitives for the rounded corners*
1,1,$1+$1,$2,$3*
1,1,$1+$1,$4,$5*
1,1,$1+$1,$6,$7*
1,1,$1+$1,$8,$9*
0 Add four rect primitives between the rounded corners*
20,1,$1+$1,$2,$3,$4,$5,0*
20,1,$1+$1,$4,$5,$6,$7,0*
20,1,$1+$1,$6,$7,$8,$9,0*
20,1,$1+$1,$8,$9,$2,$3,0*%
G04 Aperture macros list end*
%TA.AperFunction,SMDPad,CuDef*%
%ADD10RoundRect,0.135000X-0.135000X-0.185000X0.135000X-0.185000X0.135000X0.185000X-0.135000X0.185000X0*%
%TD*%
%TA.AperFunction,SMDPad,CuDef*%
%ADD11RoundRect,0.300000X-2.100000X-0.300000X2.100000X-0.300000X2.100000X0.300000X-2.100000X0.300000X0*%
%TD*%
%TA.AperFunction,SMDPad,CuDef*%
%ADD12RoundRect,0.050000X0.300000X-0.150000X0.300000X0.150000X-0.300000X0.150000X-0.300000X-0.150000X0*%
%TD*%
%TA.AperFunction,SMDPad,CuDef*%
%ADD13RoundRect,0.225000X0.250000X-0.225000X0.250000X0.225000X-0.250000X0.225000X-0.250000X-0.225000X0*%
%TD*%
%TA.AperFunction,SMDPad,CuDef*%
%ADD14RoundRect,0.150000X0.512500X0.150000X-0.512500X0.150000X-0.512500X-0.150000X0.512500X-0.150000X0*%
%TD*%
%TA.AperFunction,SMDPad,CuDef*%
%ADD15RoundRect,0.225000X-0.225000X-0.250000X0.225000X-0.250000X0.225000X0.250000X-0.225000X0.250000X0*%
%TD*%
%TA.AperFunction,SMDPad,CuDef*%
%ADD16RoundRect,0.250000X-0.375000X-0.625000X0.375000X-0.625000X0.375000X0.625000X-0.375000X0.625000X0*%
%TD*%
%TA.AperFunction,SMDPad,CuDef*%
%ADD17RoundRect,0.140000X0.170000X-0.140000X0.170000X0.140000X-0.170000X0.140000X-0.170000X-0.140000X0*%
%TD*%
%TA.AperFunction,SMDPad,CuDef*%
%ADD18RoundRect,0.150000X-0.512500X-0.150000X0.512500X-0.150000X0.512500X0.150000X-0.512500X0.150000X0*%
%TD*%
%TA.AperFunction,SMDPad,CuDef*%
%ADD19RoundRect,0.075000X-0.662500X-0.075000X0.662500X-0.075000X0.662500X0.075000X-0.662500X0.075000X0*%
%TD*%
%TA.AperFunction,SMDPad,CuDef*%
%ADD20RoundRect,0.075000X-0.075000X-0.662500X0.075000X-0.662500X0.075000X0.662500X-0.075000X0.662500X0*%
%TD*%
%TA.AperFunction,SMDPad,CuDef*%
%ADD21RoundRect,0.135000X0.185000X-0.135000X0.185000X0.135000X-0.185000X0.135000X-0.185000X-0.135000X0*%
%TD*%
%TA.AperFunction,SMDPad,CuDef*%
%ADD22RoundRect,0.250000X0.475000X-0.250000X0.475000X0.250000X-0.475000X0.250000X-0.475000X-0.250000X0*%
%TD*%
%TA.AperFunction,SMDPad,CuDef*%
%ADD23RoundRect,0.225000X-0.250000X0.225000X-0.250000X-0.225000X0.250000X-0.225000X0.250000X0.225000X0*%
%TD*%
%TA.AperFunction,ComponentPad*%
%ADD24R,1.700000X1.700000*%
%TD*%
%TA.AperFunction,ComponentPad*%
%ADD25C,1.700000*%
%TD*%
%TA.AperFunction,SMDPad,CuDef*%
%ADD26RoundRect,0.250000X-0.250000X-0.475000X0.250000X-0.475000X0.250000X0.475000X-0.250000X0.475000X0*%
%TD*%
%TA.AperFunction,SMDPad,CuDef*%
%ADD27RoundRect,0.140000X-0.140000X-0.170000X0.140000X-0.170000X0.140000X0.170000X-0.140000X0.170000X0*%
%TD*%
%TA.AperFunction,SMDPad,CuDef*%
%ADD28RoundRect,0.200000X-0.200000X-0.275000X0.200000X-0.275000X0.200000X0.275000X-0.200000X0.275000X0*%
%TD*%
%TA.AperFunction,SMDPad,CuDef*%
%ADD29RoundRect,0.100000X-0.637500X-0.100000X0.637500X-0.100000X0.637500X0.100000X-0.637500X0.100000X0*%
%TD*%
%TA.AperFunction,SMDPad,CuDef*%
%ADD30RoundRect,0.140000X0.140000X0.170000X-0.140000X0.170000X-0.140000X-0.170000X0.140000X-0.170000X0*%
%TD*%
%TA.AperFunction,SMDPad,CuDef*%
%ADD31RoundRect,0.135000X0.135000X0.185000X-0.135000X0.185000X-0.135000X-0.185000X0.135000X-0.185000X0*%
%TD*%
%TA.AperFunction,SMDPad,CuDef*%
%ADD32RoundRect,0.150000X0.575000X-0.150000X0.575000X0.150000X-0.575000X0.150000X-0.575000X-0.150000X0*%
%TD*%
%TA.AperFunction,SMDPad,CuDef*%
%ADD33RoundRect,0.075000X0.650000X-0.075000X0.650000X0.075000X-0.650000X0.075000X-0.650000X-0.075000X0*%
%TD*%
%TA.AperFunction,ComponentPad*%
%ADD34O,2.100000X1.000000*%
%TD*%
%TA.AperFunction,ComponentPad*%
%ADD35O,1.600000X1.000000*%
%TD*%
%TA.AperFunction,SMDPad,CuDef*%
%ADD36RoundRect,0.150000X0.150000X-0.512500X0.150000X0.512500X-0.150000X0.512500X-0.150000X-0.512500X0*%
%TD*%
%TA.AperFunction,SMDPad,CuDef*%
%ADD37RoundRect,0.225000X0.225000X0.250000X-0.225000X0.250000X-0.225000X-0.250000X0.225000X-0.250000X0*%
%TD*%
%TA.AperFunction,SMDPad,CuDef*%
%ADD38RoundRect,0.250000X0.300000X-0.300000X0.300000X0.300000X-0.300000X0.300000X-0.300000X-0.300000X0*%
%TD*%
%TA.AperFunction,SMDPad,CuDef*%
%ADD39RoundRect,0.237500X-0.287500X-0.237500X0.287500X-0.237500X0.287500X0.237500X-0.287500X0.237500X0*%
%TD*%
%TA.AperFunction,SMDPad,CuDef*%
%ADD40R,1.050000X0.650000*%
%TD*%
%TA.AperFunction,SMDPad,CuDef*%
%ADD41RoundRect,0.062500X-0.350000X-0.062500X0.350000X-0.062500X0.350000X0.062500X-0.350000X0.062500X0*%
%TD*%
%TA.AperFunction,SMDPad,CuDef*%
%ADD42RoundRect,0.062500X-0.062500X-0.350000X0.062500X-0.350000X0.062500X0.350000X-0.062500X0.350000X0*%
%TD*%
%TA.AperFunction,HeatsinkPad*%
%ADD43R,2.700000X2.700000*%
%TD*%
%TA.AperFunction,ViaPad*%
%ADD44C,0.650000*%
%TD*%
%TA.AperFunction,ViaPad*%
%ADD45C,0.900000*%
%TD*%
%TA.AperFunction,ViaPad*%
%ADD46C,0.800000*%
%TD*%
%TA.AperFunction,ViaPad*%
%ADD47C,0.600000*%
%TD*%
%TA.AperFunction,Conductor*%
%ADD48C,0.200000*%
%TD*%
%TA.AperFunction,Conductor*%
%ADD49C,0.250000*%
%TD*%
%TA.AperFunction,Conductor*%
%ADD50C,0.800000*%
%TD*%
G04 APERTURE END LIST*
D10*
%TO.P,RIRQ1,1,1*%
%TO.N,PCAP_IRQ*%
X56990000Y-63000000D03*
%TO.P,RIRQ1,2,2*%
%TO.N,Net-(U2-PB1-PCAP_IRQ)*%
X58010000Y-63000000D03*
%TD*%
D11*
%TO.P,J5,1,CENTER*%
%TO.N,Net-(J5-CENTER)*%
X12700000Y-34000000D03*
%TO.P,J5,2,SHIELD*%
%TO.N,CHASSIS*%
X12700000Y-31450000D03*
X12700000Y-36550000D03*
%TD*%
D10*
%TO.P,RCS1,1,1*%
%TO.N,PCAP_CS_N*%
X56990000Y-58000000D03*
%TO.P,RCS1,2,2*%
%TO.N,Net-(U6-Y3)*%
X58010000Y-58000000D03*
%TD*%
D12*
%TO.P,ESD2,1,K*%
%TO.N,Net-(ESD2-K)*%
X32000000Y-20850000D03*
%TO.P,ESD2,2,A*%
%TO.N,CHASSIS*%
X32000000Y-20150000D03*
%TD*%
%TO.P,ESD1,1,K*%
%TO.N,Net-(ESD1-K)*%
X32000000Y-68850000D03*
%TO.P,ESD1,2,A*%
%TO.N,CHASSIS*%
X32000000Y-68150000D03*
%TD*%
D10*
%TO.P,RPC2,1,1*%
%TO.N,Net-(J4-CENTER)*%
X27490000Y-18000000D03*
%TO.P,RPC2,2,2*%
%TO.N,Net-(ESD2-K)*%
X28510000Y-18000000D03*
%TD*%
D13*
%TO.P,C13,1,1*%
%TO.N,+5V_AIN*%
X84000000Y-79275000D03*
%TO.P,C13,2,2*%
%TO.N,GND*%
X84000000Y-77725000D03*
%TD*%
D14*
%TO.P,U4,1,IN*%
%TO.N,+5V_AIN*%
X81137500Y-82950000D03*
%TO.P,U4,2,GND*%
%TO.N,GND*%
X81137500Y-82000000D03*
%TO.P,U4,3,EN*%
%TO.N,+5V_AIN*%
X81137500Y-81050000D03*
%TO.P,U4,4,NC*%
%TO.N,unconnected-(U4-NC-Pad4)*%
X78862500Y-81050000D03*
%TO.P,U4,5,OUT*%
%TO.N,+3V3A*%
X78862500Y-82950000D03*
%TD*%
D13*
%TO.P,C10,1,1*%
%TO.N,+3V3D*%
X82000000Y-69275000D03*
%TO.P,C10,2,2*%
%TO.N,GND*%
X82000000Y-67725000D03*
%TD*%
D12*
%TO.P,ESD4,1,K*%
%TO.N,Net-(ESD4-K)*%
X32000000Y-84850000D03*
%TO.P,ESD4,2,A*%
%TO.N,CHASSIS*%
X32000000Y-84150000D03*
%TD*%
D15*
%TO.P,CCH0,1,1*%
%TO.N,CHASSIS*%
X45225000Y-105000000D03*
%TO.P,CCH0,2,2*%
%TO.N,GND*%
X46775000Y-105000000D03*
%TD*%
D16*
%TO.P,F1,1,1*%
%TO.N,Net-(J1-VBUS_A4)*%
X96600000Y-30500000D03*
%TO.P,F1,2,2*%
%TO.N,+5V_USB*%
X99400000Y-30500000D03*
%TD*%
D17*
%TO.P,C8,1,1*%
%TO.N,+3V3D*%
X87500000Y-50480000D03*
%TO.P,C8,2,2*%
%TO.N,GND*%
X87500000Y-49520000D03*
%TD*%
D18*
%TO.P,U3,1,IN*%
%TO.N,+5V_IN*%
X98862500Y-81050000D03*
%TO.P,U3,2,GND*%
%TO.N,GND*%
X98862500Y-82000000D03*
%TO.P,U3,3,EN*%
%TO.N,+5V_IN*%
X98862500Y-82950000D03*
%TO.P,U3,4,NC*%
%TO.N,unconnected-(U3-NC-Pad4)*%
X101137500Y-82950000D03*
%TO.P,U3,5,OUT*%
%TO.N,+3V3D*%
X101137500Y-81050000D03*
%TD*%
D10*
%TO.P,RPC4,1,1*%
%TO.N,Net-(J6-CENTER)*%
X27490000Y-82000000D03*
%TO.P,RPC4,2,2*%
%TO.N,Net-(ESD4-K)*%
X28510000Y-82000000D03*
%TD*%
D19*
%TO.P,U2,1,PC13*%
%TO.N,unconnected-(U2-PC13-Pad1)*%
X78837500Y-55250000D03*
%TO.P,U2,2,PC14-OSC32_IN*%
%TO.N,unconnected-(U2-PC14-OSC32_IN-Pad2)*%
X78837500Y-55750000D03*
%TO.P,U2,3,PC15-OSC32_OUT*%
%TO.N,unconnected-(U2-PC15-OSC32_OUT-Pad3)*%
X78837500Y-56250000D03*
%TO.P,U2,4,VBAT*%
%TO.N,+3V3D*%
X78837500Y-56750000D03*
%TO.P,U2,5,VREF+*%
X78837500Y-57250000D03*
%TO.P,U2,6,VDD/VDDA*%
X78837500Y-57750000D03*
%TO.P,U2,7,VSS/VSSA*%
%TO.N,GND*%
X78837500Y-58250000D03*
%TO.P,U2,8,PF0-OSC_IN*%
%TO.N,unconnected-(U2-PF0-OSC_IN-Pad8)*%
X78837500Y-58750000D03*
%TO.P,U2,9,PF1-OSC_OUT*%
%TO.N,unconnected-(U2-PF1-OSC_OUT-Pad9)*%
X78837500Y-59250000D03*
%TO.P,U2,10,PF2-NRST*%
%TO.N,NRST*%
X78837500Y-59750000D03*
%TO.P,U2,11,PA0*%
%TO.N,PCAP_PWR_SENSE*%
X78837500Y-60250000D03*
%TO.P,U2,12,PA1*%
%TO.N,unconnected-(U2-PA1-Pad12)*%
X78837500Y-60750000D03*
D20*
%TO.P,U2,13,PA2-UART_TX*%
%TO.N,UART_TX*%
X80250000Y-62162500D03*
%TO.P,U2,14,PA3-UART_RX*%
%TO.N,UART_RX*%
X80750000Y-62162500D03*
%TO.P,U2,15,PA4*%
%TO.N,unconnected-(U2-PA4-Pad15)*%
X81250000Y-62162500D03*
%TO.P,U2,16,PA5-SPI1_SCK*%
%TO.N,Net-(U2-PA5-SPI1_SCK)*%
X81750000Y-62162500D03*
%TO.P,U2,17,PA6-SPI1_MISO*%
%TO.N,Net-(U2-PA6-SPI1_MISO)*%
X82250000Y-62162500D03*
%TO.P,U2,18,PA7-SPI1_MOSI*%
%TO.N,Net-(U2-PA7-SPI1_MOSI)*%
X82750000Y-62162500D03*
%TO.P,U2,19,PB0-PCAP_CS*%
%TO.N,Net-(U2-PB0-PCAP_CS)*%
X83250000Y-62162500D03*
%TO.P,U2,20,PB1-PCAP_IRQ*%
%TO.N,Net-(U2-PB1-PCAP_IRQ)*%
X83750000Y-62162500D03*
%TO.P,U2,21,PB2-PCAP_PWR_EN*%
%TO.N,PCAP_PWR_EN*%
X84250000Y-62162500D03*
%TO.P,U2,22,PB10-SPI_OE_N*%
%TO.N,PCAP_SPI_OE_N*%
X84750000Y-62162500D03*
%TO.P,U2,23,PB11-HOST_READY*%
%TO.N,HOST_READY*%
X85250000Y-62162500D03*
%TO.P,U2,24,PB12-MEAS_BUSY*%
%TO.N,MEAS_BUSY*%
X85750000Y-62162500D03*
D19*
%TO.P,U2,25,PB13*%
%TO.N,unconnected-(U2-PB13-Pad25)*%
X87162500Y-60750000D03*
%TO.P,U2,26,PB14*%
%TO.N,unconnected-(U2-PB14-Pad26)*%
X87162500Y-60250000D03*
%TO.P,U2,27,PB15*%
%TO.N,unconnected-(U2-PB15-Pad27)*%
X87162500Y-59750000D03*
%TO.P,U2,28,PA8*%
%TO.N,unconnected-(U2-PA8-Pad28)*%
X87162500Y-59250000D03*
%TO.P,U2,29,PA9*%
%TO.N,unconnected-(U2-PA9-Pad29)*%
X87162500Y-58750000D03*
%TO.P,U2,30,PC6*%
%TO.N,unconnected-(U2-PC6-Pad30)*%
X87162500Y-58250000D03*
%TO.P,U2,31,PC7*%
%TO.N,unconnected-(U2-PC7-Pad31)*%
X87162500Y-57750000D03*
%TO.P,U2,32,PA10*%
%TO.N,unconnected-(U2-PA10-Pad32)*%
X87162500Y-57250000D03*
%TO.P,U2,33,PA11-USB_DM*%
%TO.N,USB_DM*%
X87162500Y-56750000D03*
%TO.P,U2,34,PA12-USB_DP*%
%TO.N,USB_DP*%
X87162500Y-56250000D03*
%TO.P,U2,35,PA13-SWDIO*%
%TO.N,SWDIO*%
X87162500Y-55750000D03*
%TO.P,U2,36,PA14-SWCLK-BOOT0*%
%TO.N,SWCLK_BOOT0*%
X87162500Y-55250000D03*
D20*
%TO.P,U2,37,PA15*%
%TO.N,unconnected-(U2-PA15-Pad37)*%
X85750000Y-53837500D03*
%TO.P,U2,38,PD0*%
%TO.N,unconnected-(U2-PD0-Pad38)*%
X85250000Y-53837500D03*
%TO.P,U2,39,PD1*%
%TO.N,unconnected-(U2-PD1-Pad39)*%
X84750000Y-53837500D03*
%TO.P,U2,40,PD2*%
%TO.N,unconnected-(U2-PD2-Pad40)*%
X84250000Y-53837500D03*
%TO.P,U2,41,PD3*%
%TO.N,unconnected-(U2-PD3-Pad41)*%
X83750000Y-53837500D03*
%TO.P,U2,42,PB3*%
%TO.N,unconnected-(U2-PB3-Pad42)*%
X83250000Y-53837500D03*
%TO.P,U2,43,PB4*%
%TO.N,unconnected-(U2-PB4-Pad43)*%
X82750000Y-53837500D03*
%TO.P,U2,44,PB5*%
%TO.N,unconnected-(U2-PB5-Pad44)*%
X82250000Y-53837500D03*
%TO.P,U2,45,PB6*%
%TO.N,unconnected-(U2-PB6-Pad45)*%
X81750000Y-53837500D03*
%TO.P,U2,46,PB7*%
%TO.N,unconnected-(U2-PB7-Pad46)*%
X81250000Y-53837500D03*
%TO.P,U2,47,PB8*%
%TO.N,unconnected-(U2-PB8-Pad47)*%
X80750000Y-53837500D03*
%TO.P,U2,48,PB9*%
%TO.N,unconnected-(U2-PB9-Pad48)*%
X80250000Y-53837500D03*
%TD*%
D21*
%TO.P,RPS2,1,1*%
%TO.N,PCAP_PWR_SENSE*%
X73000000Y-75510000D03*
%TO.P,RPS2,2,2*%
%TO.N,GND*%
X73000000Y-74490000D03*
%TD*%
D22*
%TO.P,C14,1,1*%
%TO.N,+3V3A*%
X75500000Y-82950000D03*
%TO.P,C14,2,2*%
%TO.N,GND*%
X75500000Y-81050000D03*
%TD*%
D10*
%TO.P,RIRQPD1,1,1*%
%TO.N,PCAP_IRQ*%
X59490000Y-66500000D03*
%TO.P,RIRQPD1,2,2*%
%TO.N,GND*%
X60510000Y-66500000D03*
%TD*%
%TO.P,RMOSI1,1,1*%
%TO.N,PCAP_MOSI*%
X56990000Y-54000000D03*
%TO.P,RMOSI1,2,2*%
%TO.N,Net-(U6-Y2)*%
X58010000Y-54000000D03*
%TD*%
D23*
%TO.P,CTEST1,1,1*%
%TO.N,Net-(ESD4-K)*%
X36000000Y-89225000D03*
%TO.P,CTEST1,2,2*%
%TO.N,Net-(ESD5-K)*%
X36000000Y-90775000D03*
%TD*%
D24*
%TO.P,J9,1,1*%
%TO.N,+3V3D*%
X106000000Y-97000000D03*
D25*
%TO.P,J9,2,2*%
%TO.N,SWDIO*%
X106000000Y-99540000D03*
%TO.P,J9,3,3*%
%TO.N,SWCLK_BOOT0*%
X106000000Y-102080000D03*
%TO.P,J9,4,4*%
%TO.N,NRST*%
X106000000Y-104620000D03*
%TO.P,J9,5,5*%
%TO.N,GND*%
X106000000Y-107160000D03*
%TD*%
D11*
%TO.P,J7,1,CENTER*%
%TO.N,Net-(J7-CENTER)*%
X12700000Y-98000000D03*
%TO.P,J7,2,SHIELD*%
%TO.N,CHASSIS*%
X12700000Y-95450000D03*
X12700000Y-100550000D03*
%TD*%
%TO.P,J2,1,CENTER*%
%TO.N,Net-(J2-CENTER)*%
X12700000Y-50000000D03*
%TO.P,J2,2,SHIELD*%
%TO.N,CHASSIS*%
X12700000Y-47450000D03*
X12700000Y-52550000D03*
%TD*%
D24*
%TO.P,J8,1,1*%
%TO.N,+5V_EXT*%
X103000000Y-43000000D03*
D25*
%TO.P,J8,2,2*%
%TO.N,GND*%
X105540000Y-43000000D03*
%TD*%
D12*
%TO.P,ESD0,1,K*%
%TO.N,Net-(ESD0-K)*%
X32000000Y-52850000D03*
%TO.P,ESD0,2,A*%
%TO.N,CHASSIS*%
X32000000Y-52150000D03*
%TD*%
D11*
%TO.P,J3,1,CENTER*%
%TO.N,Net-(J3-CENTER)*%
X12700000Y-66000000D03*
%TO.P,J3,2,SHIELD*%
%TO.N,CHASSIS*%
X12700000Y-63450000D03*
X12700000Y-68550000D03*
%TD*%
D10*
%TO.P,ROEPU1,1,1*%
%TO.N,+3V3D*%
X68490000Y-48000000D03*
%TO.P,ROEPU1,2,2*%
%TO.N,PCAP_SPI_OE_N*%
X69510000Y-48000000D03*
%TD*%
%TO.P,RCC2,1,1*%
%TO.N,Net-(J1-CC2_B5)*%
X103490000Y-15000000D03*
%TO.P,RCC2,2,2*%
%TO.N,GND*%
X104510000Y-15000000D03*
%TD*%
D26*
%TO.P,C3,1,1*%
%TO.N,+3V3P*%
X51050000Y-61000000D03*
%TO.P,C3,2,2*%
%TO.N,GND*%
X52950000Y-61000000D03*
%TD*%
D27*
%TO.P,C5,1,1*%
%TO.N,/VDD18_LOCAL*%
X42520000Y-62000000D03*
%TO.P,C5,2,2*%
%TO.N,GND*%
X43480000Y-62000000D03*
%TD*%
D28*
%TO.P,RCH0,1,1*%
%TO.N,CHASSIS*%
X37175000Y-105000000D03*
%TO.P,RCH0,2,2*%
%TO.N,GND*%
X38825000Y-105000000D03*
%TD*%
D29*
%TO.P,U6,1,1OE*%
%TO.N,PCAP_SPI_OE_N*%
X63137500Y-55050000D03*
%TO.P,U6,2,A1*%
%TO.N,Net-(U2-PA5-SPI1_SCK)*%
X63137500Y-55700000D03*
%TO.P,U6,3,Y1*%
%TO.N,Net-(U6-Y1)*%
X63137500Y-56350000D03*
%TO.P,U6,4,2OE*%
%TO.N,PCAP_SPI_OE_N*%
X63137500Y-57000000D03*
%TO.P,U6,5,A2*%
%TO.N,Net-(U2-PA7-SPI1_MOSI)*%
X63137500Y-57650000D03*
%TO.P,U6,6,Y2*%
%TO.N,Net-(U6-Y2)*%
X63137500Y-58300000D03*
%TO.P,U6,7,GND*%
%TO.N,GND*%
X63137500Y-58950000D03*
%TO.P,U6,8,Y3*%
%TO.N,Net-(U6-Y3)*%
X68862500Y-58950000D03*
%TO.P,U6,9,A3*%
%TO.N,Net-(U2-PB0-PCAP_CS)*%
X68862500Y-58300000D03*
%TO.P,U6,10,3OE*%
%TO.N,PCAP_SPI_OE_N*%
X68862500Y-57650000D03*
%TO.P,U6,11,Y4*%
%TO.N,Net-(U2-PA6-SPI1_MISO)*%
X68862500Y-57000000D03*
%TO.P,U6,12,A4*%
%TO.N,PCAP_MISO*%
X68862500Y-56350000D03*
%TO.P,U6,13,4OE*%
%TO.N,PCAP_SPI_OE_N*%
X68862500Y-55700000D03*
%TO.P,U6,14,VCC*%
%TO.N,+3V3D*%
X68862500Y-55050000D03*
%TD*%
D30*
%TO.P,C1,1,1*%
%TO.N,+3V3P*%
X44480000Y-59000000D03*
%TO.P,C1,2,2*%
%TO.N,GND*%
X43520000Y-59000000D03*
%TD*%
D17*
%TO.P,C15,1,1*%
%TO.N,PCAP_PWR_SENSE*%
X76000000Y-75480000D03*
%TO.P,C15,2,2*%
%TO.N,GND*%
X76000000Y-74520000D03*
%TD*%
%TO.P,C6,1,1*%
%TO.N,+3V3D*%
X78000000Y-50480000D03*
%TO.P,C6,2,2*%
%TO.N,GND*%
X78000000Y-49520000D03*
%TD*%
D12*
%TO.P,ESD3,1,K*%
%TO.N,Net-(ESD3-K)*%
X32000000Y-36850000D03*
%TO.P,ESD3,2,A*%
%TO.N,CHASSIS*%
X32000000Y-36150000D03*
%TD*%
D10*
%TO.P,RENPD1,1,1*%
%TO.N,PCAP_PWR_EN*%
X62490000Y-76000000D03*
%TO.P,RENPD1,2,2*%
%TO.N,GND*%
X63510000Y-76000000D03*
%TD*%
%TO.P,RPC1,1,1*%
%TO.N,Net-(J3-CENTER)*%
X27490000Y-66000000D03*
%TO.P,RPC1,2,2*%
%TO.N,Net-(ESD1-K)*%
X28510000Y-66000000D03*
%TD*%
%TO.P,RNRST1,1,1*%
%TO.N,+3V3D*%
X90490000Y-52000000D03*
%TO.P,RNRST1,2,2*%
%TO.N,NRST*%
X91510000Y-52000000D03*
%TD*%
D11*
%TO.P,J6,1,CENTER*%
%TO.N,Net-(J6-CENTER)*%
X12700000Y-82000000D03*
%TO.P,J6,2,SHIELD*%
%TO.N,CHASSIS*%
X12700000Y-79450000D03*
X12700000Y-84550000D03*
%TD*%
D27*
%TO.P,CNRST1,1,1*%
%TO.N,NRST*%
X90520000Y-55000000D03*
%TO.P,CNRST1,2,2*%
%TO.N,GND*%
X91480000Y-55000000D03*
%TD*%
D24*
%TO.P,J10,1,1*%
%TO.N,+3V3D*%
X106000000Y-62000000D03*
D25*
%TO.P,J10,2,2*%
%TO.N,UART_TX*%
X106000000Y-64540000D03*
%TO.P,J10,3,3*%
%TO.N,UART_RX*%
X106000000Y-67080000D03*
%TO.P,J10,4,4*%
%TO.N,HOST_READY*%
X106000000Y-69620000D03*
%TO.P,J10,5,5*%
%TO.N,MEAS_BUSY*%
X106000000Y-72160000D03*
%TO.P,J10,6,6*%
%TO.N,GND*%
X106000000Y-74700000D03*
%TD*%
D31*
%TO.P,RCS_PU1,1,1*%
%TO.N,PCAP_CS_N*%
X46510000Y-62500000D03*
%TO.P,RCS_PU1,2,2*%
%TO.N,+3V3P*%
X45490000Y-62500000D03*
%TD*%
D10*
%TO.P,RCC1,1,1*%
%TO.N,Net-(J1-CC1_A5)*%
X100490000Y-15000000D03*
%TO.P,RCC1,2,2*%
%TO.N,GND*%
X101510000Y-15000000D03*
%TD*%
D24*
%TO.P,J11,1,1*%
%TO.N,+5V_USB*%
X95000000Y-97000000D03*
D25*
%TO.P,J11,2,2*%
%TO.N,+5V_IN*%
X97540000Y-97000000D03*
%TO.P,J11,3,3*%
%TO.N,+5V_EXT*%
X100080000Y-97000000D03*
%TD*%
D27*
%TO.P,C2,1,1*%
%TO.N,+3V3P*%
X51220000Y-58750000D03*
%TO.P,C2,2,2*%
%TO.N,GND*%
X52180000Y-58750000D03*
%TD*%
D32*
%TO.P,J1,A1,GND_A1*%
%TO.N,GND*%
X103955000Y-25250000D03*
%TO.P,J1,A4,VBUS_A4*%
%TO.N,Net-(J1-VBUS_A4)*%
X103955000Y-24450000D03*
D33*
%TO.P,J1,A5,CC1_A5*%
%TO.N,Net-(J1-CC1_A5)*%
X103955000Y-23250000D03*
%TO.P,J1,A6,D+_A6*%
%TO.N,Net-(J1-D+_A6)*%
X103955000Y-22250000D03*
%TO.P,J1,A7,D-_A7*%
%TO.N,Net-(J1-D-_A7)*%
X103955000Y-21750000D03*
%TO.P,J1,A8,SBU1_A8*%
%TO.N,unconnected-(J1-SBU1_A8-PadA8)*%
X103955000Y-20750000D03*
D32*
%TO.P,J1,A9,VBUS_A9*%
%TO.N,Net-(J1-VBUS_A4)*%
X103955000Y-19550000D03*
%TO.P,J1,A12,GND_A12*%
%TO.N,GND*%
X103955000Y-18750000D03*
%TO.P,J1,B1,GND_B1*%
X103955000Y-18750000D03*
%TO.P,J1,B4,VBUS_B4*%
%TO.N,Net-(J1-VBUS_A4)*%
X103955000Y-19550000D03*
D33*
%TO.P,J1,B5,CC2_B5*%
%TO.N,Net-(J1-CC2_B5)*%
X103955000Y-20250000D03*
%TO.P,J1,B6,D+_B6*%
%TO.N,Net-(J1-D+_A6)*%
X103955000Y-21250000D03*
%TO.P,J1,B7,D-_B7*%
%TO.N,Net-(J1-D-_A7)*%
X103955000Y-22750000D03*
%TO.P,J1,B8,SBU2_B8*%
%TO.N,unconnected-(J1-SBU2_B8-PadB8)*%
X103955000Y-23750000D03*
D32*
%TO.P,J1,B9,VBUS_B9*%
%TO.N,Net-(J1-VBUS_A4)*%
X103955000Y-24450000D03*
%TO.P,J1,B12,GND_B12*%
%TO.N,GND*%
X103955000Y-25250000D03*
D34*
%TO.P,J1,SH,SHIELD*%
%TO.N,CHASSIS*%
X104870000Y-26320000D03*
D35*
X109050000Y-26320000D03*
D34*
X104870000Y-17680000D03*
D35*
X109050000Y-17680000D03*
%TD*%
D10*
%TO.P,RPC3,1,1*%
%TO.N,Net-(J5-CENTER)*%
X27490000Y-34000000D03*
%TO.P,RPC3,2,2*%
%TO.N,Net-(ESD3-K)*%
X28510000Y-34000000D03*
%TD*%
D36*
%TO.P,U7,1,D+_IN*%
%TO.N,Net-(J1-D+_A6)*%
X97050000Y-23137500D03*
%TO.P,U7,2,GND*%
%TO.N,GND*%
X98000000Y-23137500D03*
%TO.P,U7,3,D-_IN*%
%TO.N,Net-(J1-D-_A7)*%
X98950000Y-23137500D03*
%TO.P,U7,4,D-_OUT*%
%TO.N,USB_DM*%
X98950000Y-20862500D03*
%TO.P,U7,5,VBUS*%
%TO.N,+5V_USB*%
X98000000Y-20862500D03*
%TO.P,U7,6,D+_OUT*%
%TO.N,USB_DP*%
X97050000Y-20862500D03*
%TD*%
D13*
%TO.P,C11,1,1*%
%TO.N,+5V_IN*%
X104000000Y-79275000D03*
%TO.P,C11,2,2*%
%TO.N,GND*%
X104000000Y-77725000D03*
%TD*%
D10*
%TO.P,RPC5,1,1*%
%TO.N,Net-(J7-CENTER)*%
X27490000Y-98000000D03*
%TO.P,RPC5,2,2*%
%TO.N,Net-(ESD5-K)*%
X28510000Y-98000000D03*
%TD*%
D13*
%TO.P,C12,1,1*%
%TO.N,+3V3D*%
X95500000Y-82775000D03*
%TO.P,C12,2,2*%
%TO.N,GND*%
X95500000Y-81225000D03*
%TD*%
D28*
%TO.P,RCH1,1,1*%
%TO.N,CHASSIS*%
X41175000Y-105000000D03*
%TO.P,RCH1,2,2*%
%TO.N,GND*%
X42825000Y-105000000D03*
%TD*%
D37*
%TO.P,C4,1,1*%
%TO.N,/VDD18_LOCAL*%
X44525000Y-56000000D03*
%TO.P,C4,2,2*%
%TO.N,GND*%
X42975000Y-56000000D03*
%TD*%
D38*
%TO.P,D1,1,K*%
%TO.N,+5V_USB*%
X103000000Y-35400000D03*
%TO.P,D1,2,A*%
%TO.N,GND*%
X103000000Y-32600000D03*
%TD*%
D22*
%TO.P,C7,1,1*%
%TO.N,+3V3P*%
X50500000Y-74950000D03*
%TO.P,C7,2,2*%
%TO.N,GND*%
X50500000Y-73050000D03*
%TD*%
D10*
%TO.P,RPS1,1,1*%
%TO.N,+3V3P*%
X68490000Y-73000000D03*
%TO.P,RPS1,2,2*%
%TO.N,PCAP_PWR_SENSE*%
X69510000Y-73000000D03*
%TD*%
D12*
%TO.P,ESD5,1,K*%
%TO.N,Net-(ESD5-K)*%
X32000000Y-100850000D03*
%TO.P,ESD5,2,A*%
%TO.N,CHASSIS*%
X32000000Y-100150000D03*
%TD*%
D17*
%TO.P,C9,1,1*%
%TO.N,+3V3D*%
X87500000Y-66480000D03*
%TO.P,C9,2,2*%
%TO.N,GND*%
X87500000Y-65520000D03*
%TD*%
D10*
%TO.P,RSCK1,1,1*%
%TO.N,PCAP_SCK*%
X56990000Y-50000000D03*
%TO.P,RSCK1,2,2*%
%TO.N,Net-(U6-Y1)*%
X58010000Y-50000000D03*
%TD*%
D39*
%TO.P,FB1,1,1*%
%TO.N,+5V_IN*%
X87125000Y-82000000D03*
%TO.P,FB1,2,2*%
%TO.N,+5V_AIN*%
X88875000Y-82000000D03*
%TD*%
D21*
%TO.P,RQOD1,1,1*%
%TO.N,Net-(U5-QOD)*%
X58500000Y-73010000D03*
%TO.P,RQOD1,2,2*%
%TO.N,+3V3P*%
X58500000Y-71990000D03*
%TD*%
D40*
%TO.P,SW1,1,1*%
%TO.N,NRST*%
X92425000Y-57425000D03*
X96575000Y-57425000D03*
%TO.P,SW1,2,2*%
%TO.N,GND*%
X92425000Y-59575000D03*
X96575000Y-59575000D03*
%TD*%
D18*
%TO.P,U5,1,VIN*%
%TO.N,+3V3A*%
X53862500Y-73050000D03*
%TO.P,U5,2,GND*%
%TO.N,GND*%
X53862500Y-74000000D03*
%TO.P,U5,3,ON*%
%TO.N,PCAP_PWR_EN*%
X53862500Y-74950000D03*
%TO.P,U5,4,CT*%
%TO.N,Net-(U5-CT)*%
X56137500Y-74950000D03*
%TO.P,U5,5,QOD*%
%TO.N,Net-(U5-QOD)*%
X56137500Y-74000000D03*
%TO.P,U5,6,VOUT*%
%TO.N,+3V3P*%
X56137500Y-73050000D03*
%TD*%
D41*
%TO.P,U1,1,PC3*%
%TO.N,Net-(ESD3-K)*%
X46037500Y-56750000D03*
%TO.P,U1,2,GND1*%
%TO.N,GND*%
X46037500Y-57250000D03*
%TO.P,U1,3,VDD18*%
%TO.N,/VDD18_LOCAL*%
X46037500Y-57750000D03*
%TO.P,U1,4,VDD33A*%
%TO.N,+3V3P*%
X46037500Y-58250000D03*
%TO.P,U1,5,PT1*%
%TO.N,unconnected-(U1-PT1-Pad5)*%
X46037500Y-58750000D03*
%TO.P,U1,6,PT0REF*%
%TO.N,unconnected-(U1-PT0REF-Pad6)*%
X46037500Y-59250000D03*
D42*
%TO.P,U1,7,PTOUT*%
%TO.N,unconnected-(U1-PTOUT-Pad7)*%
X46750000Y-59962500D03*
%TO.P,U1,8,GND2*%
%TO.N,GND*%
X47250000Y-59962500D03*
%TO.P,U1,9,SSN*%
%TO.N,PCAP_CS_N*%
X47750000Y-59962500D03*
%TO.P,U1,10,MISO*%
%TO.N,PCAP_MISO*%
X48250000Y-59962500D03*
%TO.P,U1,11,PG5_IRQ*%
%TO.N,PCAP_IRQ*%
X48750000Y-59962500D03*
%TO.P,U1,12,PG2*%
%TO.N,unconnected-(U1-PG2-Pad12)*%
X49250000Y-59962500D03*
D41*
%TO.P,U1,13,IIC_EN*%
%TO.N,GND*%
X49962500Y-59250000D03*
%TO.P,U1,14,VDD33B*%
%TO.N,+3V3P*%
X49962500Y-58750000D03*
%TO.P,U1,15,MOSI*%
%TO.N,PCAP_MOSI*%
X49962500Y-58250000D03*
%TO.P,U1,16,SCK*%
%TO.N,PCAP_SCK*%
X49962500Y-57750000D03*
%TO.P,U1,17,PG3*%
%TO.N,unconnected-(U1-PG3-Pad17)*%
X49962500Y-57250000D03*
%TO.P,U1,18,PG4*%
%TO.N,unconnected-(U1-PG4-Pad18)*%
X49962500Y-56750000D03*
D42*
%TO.P,U1,19,PCAUX*%
%TO.N,unconnected-(U1-PCAUX-Pad19)*%
X49250000Y-56037500D03*
%TO.P,U1,20,PC4*%
%TO.N,Net-(ESD4-K)*%
X48750000Y-56037500D03*
%TO.P,U1,21,PC5*%
%TO.N,Net-(ESD5-K)*%
X48250000Y-56037500D03*
%TO.P,U1,22,PC0*%
%TO.N,Net-(ESD0-K)*%
X47750000Y-56037500D03*
%TO.P,U1,23,PC1*%
%TO.N,Net-(ESD1-K)*%
X47250000Y-56037500D03*
%TO.P,U1,24,PC2*%
%TO.N,Net-(ESD2-K)*%
X46750000Y-56037500D03*
D43*
%TO.P,U1,25,EP_GND*%
%TO.N,GND*%
X48000000Y-58000000D03*
%TD*%
D17*
%TO.P,CCT1,1,1*%
%TO.N,Net-(U5-CT)*%
X58500000Y-77480000D03*
%TO.P,CCT1,2,2*%
%TO.N,GND*%
X58500000Y-76520000D03*
%TD*%
D11*
%TO.P,J4,1,CENTER*%
%TO.N,Net-(J4-CENTER)*%
X12700000Y-18000000D03*
%TO.P,J4,2,SHIELD*%
%TO.N,CHASSIS*%
X12700000Y-15450000D03*
X12700000Y-20550000D03*
%TD*%
D10*
%TO.P,RPC0,1,1*%
%TO.N,Net-(J2-CENTER)*%
X27490000Y-50000000D03*
%TO.P,RPC0,2,2*%
%TO.N,Net-(ESD0-K)*%
X28510000Y-50000000D03*
%TD*%
D44*
%TO.N,PCAP_IRQ*%
X53239100Y-62813000D03*
X49374300Y-61856200D03*
D45*
%TO.N,CHASSIS*%
X13500000Y-70250000D03*
X13500000Y-22250000D03*
D46*
X32000000Y-35389400D03*
D45*
X13500000Y-54250000D03*
X13500000Y-77750000D03*
X13500000Y-102250000D03*
X13500000Y-38250000D03*
X13500000Y-13750000D03*
D46*
X32000000Y-99370200D03*
X32000000Y-67371000D03*
D45*
X13500000Y-93750000D03*
D46*
X32000000Y-19373500D03*
X34950400Y-27241100D03*
X34898800Y-104319100D03*
D45*
X13500000Y-29750000D03*
D46*
X31329100Y-83479100D03*
X32000000Y-51360400D03*
D45*
X13500000Y-45750000D03*
X13500000Y-61750000D03*
X13500000Y-86250000D03*
D44*
%TO.N,PCAP_CS_N*%
X46500000Y-64000000D03*
X55500000Y-58000000D03*
D46*
%TO.N,Net-(ESD2-K)*%
X45248800Y-54424600D03*
X34950400Y-23387200D03*
%TO.N,GND*%
X82000000Y-66706000D03*
X59405600Y-76421500D03*
X76807300Y-80959100D03*
X43786100Y-105443900D03*
X53214000Y-58750000D03*
X91623300Y-58724000D03*
X103321800Y-17182700D03*
X101510000Y-15907600D03*
X105169600Y-14340400D03*
X82394400Y-82236600D03*
X50003400Y-60004300D03*
X104131400Y-32609100D03*
X51759500Y-74000000D03*
X77123900Y-50396100D03*
X100608800Y-80009100D03*
X86597500Y-49520000D03*
X47794600Y-105451300D03*
X41939800Y-55900900D03*
X98000000Y-24355400D03*
X102879200Y-25911100D03*
X39798000Y-105035300D03*
X102958900Y-78278200D03*
X76663800Y-73856200D03*
X92153200Y-54326800D03*
X43480000Y-61123400D03*
X80136100Y-58250000D03*
X95456900Y-59624600D03*
X73930200Y-74856900D03*
X85044700Y-77282400D03*
X86590100Y-65520000D03*
X96707800Y-81397000D03*
X53884500Y-61934500D03*
X64180900Y-76670900D03*
X64444600Y-58950000D03*
X61184900Y-65825100D03*
X43967500Y-58152000D03*
%TO.N,+3V3A*%
X55197700Y-75697800D03*
X74264600Y-82292100D03*
%TO.N,+3V3D*%
X80131400Y-56750000D03*
X88422400Y-66001500D03*
X107126700Y-81195700D03*
%TO.N,Net-(ESD4-K)*%
X47825200Y-83824900D03*
X49506100Y-55036100D03*
%TO.N,+5V_USB*%
X96927200Y-42656700D03*
%TO.N,NRST*%
X108461900Y-61884400D03*
%TO.N,PCAP_PWR_SENSE*%
X77486300Y-60320600D03*
X73489400Y-72890200D03*
%TO.N,UART_TX*%
X79515400Y-61981000D03*
%TO.N,UART_RX*%
X80866700Y-60845300D03*
%TO.N,Net-(U2-PA5-SPI1_SCK)*%
X75225400Y-58742800D03*
X64449600Y-55587600D03*
%TO.N,Net-(U2-PA7-SPI1_MOSI)*%
X64429800Y-57650000D03*
X82750000Y-60800800D03*
%TO.N,PCAP_SPI_OE_N*%
X70911300Y-55602000D03*
X84750000Y-60783000D03*
%TO.N,USB_DM*%
X94875300Y-23980800D03*
X89347200Y-56390800D03*
%TO.N,USB_DP*%
X89668200Y-54710000D03*
X95189700Y-22247400D03*
%TO.N,SWDIO*%
X84906600Y-57753000D03*
%TO.N,SWCLK_BOOT0*%
X87705500Y-54514100D03*
%TO.N,Net-(ESD5-K)*%
X47505700Y-53698900D03*
X38804300Y-90090200D03*
%TO.N,PCAP_MISO*%
X70262200Y-56304400D03*
D47*
X48250000Y-61250000D03*
D46*
%TO.N,Net-(ESD3-K)*%
X46037500Y-55978500D03*
X32935300Y-36850000D03*
%TO.N,Net-(J1-CC1_A5)*%
X100830000Y-23429900D03*
X99665500Y-14822400D03*
%TD*%
%TO.N,PCAP_IRQ*%
D48*
X59490000Y-66500000D02*
X56990000Y-64000000D01*
X56803000Y-62813000D02*
X56990000Y-63000000D01*
X56990000Y-64000000D02*
X56990000Y-63000000D01*
X48849900Y-61331800D02*
X49374300Y-61856200D01*
X53239100Y-62813000D02*
X56803000Y-62813000D01*
X48849900Y-60062400D02*
X48849900Y-61331800D01*
X48750000Y-59962500D02*
X48849900Y-60062400D01*
%TO.N,Net-(U2-PB1-PCAP_IRQ)*%
D49*
X58010000Y-63000000D02*
X59401900Y-64391900D01*
X83750000Y-63046200D02*
X83750000Y-62162500D01*
X82404300Y-64391900D02*
X83750000Y-63046200D01*
X59401900Y-64391900D02*
X82404300Y-64391900D01*
%TO.N,Net-(J5-CENTER)*%
X12700000Y-34000000D02*
X27490000Y-34000000D01*
%TO.N,CHASSIS*%
D50*
X12700000Y-31450000D02*
X13500000Y-29750000D01*
X12700000Y-95450000D02*
X13500000Y-93750000D01*
X12700000Y-36550000D02*
X13500000Y-38250000D01*
X12700000Y-47450000D02*
X13500000Y-45750000D01*
D49*
X36494100Y-104319100D02*
X37175000Y-105000000D01*
X37939500Y-105764500D02*
X40410500Y-105764500D01*
X32000000Y-67371000D02*
X32000000Y-68150000D01*
D50*
X12700000Y-84550000D02*
X13500000Y-86250000D01*
D49*
X32000000Y-84150000D02*
X31329100Y-83479100D01*
D50*
X12700000Y-52550000D02*
X13500000Y-54250000D01*
D49*
X44471400Y-104246400D02*
X45225000Y-105000000D01*
X32000000Y-19373500D02*
X32000000Y-20150000D01*
D50*
X12700000Y-79450000D02*
X13500000Y-77750000D01*
X12700000Y-100550000D02*
X13500000Y-102250000D01*
D49*
X37175000Y-105000000D02*
X37939500Y-105764500D01*
X32000000Y-35389400D02*
X32000000Y-36150000D01*
X41928600Y-104246400D02*
X44471400Y-104246400D01*
D50*
X12700000Y-68550000D02*
X13500000Y-70250000D01*
D49*
X40410500Y-105764500D02*
X41175000Y-105000000D01*
X32000000Y-100150000D02*
X32000000Y-99370200D01*
D50*
X12700000Y-15450000D02*
X13500000Y-13750000D01*
D49*
X34898800Y-104319100D02*
X36494100Y-104319100D01*
X41175000Y-105000000D02*
X41928600Y-104246400D01*
D50*
X12700000Y-20550000D02*
X13500000Y-22250000D01*
D49*
X32000000Y-51360400D02*
X32000000Y-52150000D01*
D50*
X12700000Y-63450000D02*
X13500000Y-61750000D01*
%TO.N,PCAP_CS_N*%
D48*
X55500000Y-58000000D02*
X56990000Y-58000000D01*
X47750000Y-59962500D02*
X47750000Y-60750000D01*
X47750000Y-60750000D02*
X46510000Y-62500000D01*
X46510000Y-62500000D02*
X46500000Y-64000000D01*
%TO.N,Net-(U6-Y3)*%
D49*
X58010000Y-58000000D02*
X59638100Y-59628100D01*
X59638100Y-59628100D02*
X68184400Y-59628100D01*
X68184400Y-59628100D02*
X68862500Y-58950000D01*
%TO.N,Net-(ESD2-K)*%
X34950400Y-23387200D02*
X34537200Y-23387200D01*
X34537200Y-23387200D02*
X32000000Y-20850000D01*
X31360000Y-20850000D02*
X32000000Y-20850000D01*
X46750000Y-55703300D02*
X46750000Y-56037500D01*
X28510000Y-18000000D02*
X31360000Y-20850000D01*
X45248800Y-54424600D02*
X45471300Y-54424600D01*
X45471300Y-54424600D02*
X46750000Y-55703300D01*
%TO.N,Net-(ESD1-K)*%
X45561500Y-53721200D02*
X47250000Y-55409700D01*
X28510000Y-66000000D02*
X40788800Y-53721200D01*
X47250000Y-55409700D02*
X47250000Y-56037500D01*
X40788800Y-53721200D02*
X45561500Y-53721200D01*
X31360000Y-68850000D02*
X28510000Y-66000000D01*
X32000000Y-68850000D02*
X31360000Y-68850000D01*
%TO.N,Net-(J4-CENTER)*%
X12700000Y-18000000D02*
X27490000Y-18000000D01*
%TO.N,+5V_AIN*%
X82225000Y-81050000D02*
X84000000Y-79275000D01*
X86150000Y-79275000D02*
X84000000Y-79275000D01*
X80188300Y-81629800D02*
X80768100Y-81050000D01*
X81137500Y-82950000D02*
X80820500Y-82950000D01*
X81137500Y-81050000D02*
X82225000Y-81050000D01*
X80188300Y-82317800D02*
X80188300Y-81629800D01*
X80820500Y-82950000D02*
X80188300Y-82317800D01*
X88875000Y-82000000D02*
X86150000Y-79275000D01*
X80768100Y-81050000D02*
X81137500Y-81050000D01*
%TO.N,GND*%
X76807300Y-80959100D02*
X75590900Y-80959100D01*
X52180000Y-58750000D02*
X53214000Y-58750000D01*
X43967500Y-58152000D02*
X43520000Y-58599500D01*
X96707800Y-81397000D02*
X95672000Y-81397000D01*
X102958900Y-78278200D02*
X103446800Y-78278200D01*
X51759500Y-74000000D02*
X53862500Y-74000000D01*
X100141600Y-80476300D02*
X100141600Y-81100100D01*
X92153200Y-54326800D02*
X91480000Y-55000000D01*
X103540300Y-25250000D02*
X103955000Y-25250000D01*
X50500000Y-73050000D02*
X51450000Y-74000000D01*
X51450000Y-74000000D02*
X51759500Y-74000000D01*
X86597500Y-49520000D02*
X87500000Y-49520000D01*
X41939800Y-55900900D02*
X42875900Y-55900900D01*
X96575000Y-59575000D02*
X95773300Y-59575000D01*
X104510000Y-15000000D02*
X105169600Y-14340400D01*
X84442600Y-77282400D02*
X84000000Y-77725000D01*
X85044700Y-77282400D02*
X84442600Y-77282400D01*
X95672000Y-81397000D02*
X95500000Y-81225000D01*
X92425000Y-59575000D02*
X91623300Y-59575000D01*
X47226300Y-105451300D02*
X46775000Y-105000000D01*
X48000000Y-58000000D02*
X47250000Y-58750000D01*
X95456900Y-59624600D02*
X95723700Y-59624600D01*
X75590900Y-80959100D02*
X75500000Y-81050000D01*
X47794600Y-105451300D02*
X47226300Y-105451300D01*
X73930200Y-74856900D02*
X73366900Y-74856900D01*
X38860300Y-105035300D02*
X38825000Y-105000000D01*
X103446800Y-78278200D02*
X104000000Y-77725000D01*
X49250000Y-59250000D02*
X48000000Y-58000000D01*
X61184900Y-65825100D02*
X60510000Y-66500000D01*
X53884500Y-61934500D02*
X52950000Y-61000000D01*
X99241700Y-82000000D02*
X98862500Y-82000000D01*
X102879200Y-25911100D02*
X103540300Y-25250000D01*
X77123900Y-50396100D02*
X78000000Y-49520000D01*
X78837500Y-58250000D02*
X80136100Y-58250000D01*
X39798000Y-105035300D02*
X38860300Y-105035300D01*
X81374100Y-82236600D02*
X81137500Y-82000000D01*
X49962500Y-59250000D02*
X49250000Y-59250000D01*
X63137500Y-58950000D02*
X64444600Y-58950000D01*
X47250000Y-58750000D02*
X47250000Y-59962500D01*
X98000000Y-23137500D02*
X98000000Y-24355400D01*
X82394400Y-82236600D02*
X81374100Y-82236600D01*
X103009100Y-32609100D02*
X103000000Y-32600000D01*
X95723700Y-59624600D02*
X95773300Y-59575000D01*
X43480000Y-62000000D02*
X43480000Y-61123400D01*
X100608800Y-80009100D02*
X100141600Y-80476300D01*
X73366900Y-74856900D02*
X73000000Y-74490000D01*
X104131400Y-32609100D02*
X103009100Y-32609100D01*
X91623300Y-59575000D02*
X91623300Y-58724000D01*
X50003400Y-60004300D02*
X50003400Y-59290900D01*
X103321800Y-17182700D02*
X103321800Y-18116800D01*
X43520000Y-58599500D02*
X43520000Y-59000000D01*
X86590100Y-65520000D02*
X87500000Y-65520000D01*
X43268900Y-105443900D02*
X42825000Y-105000000D01*
X47250000Y-57250000D02*
X48000000Y-58000000D01*
X100141600Y-81100100D02*
X99241700Y-82000000D01*
X103321800Y-18116800D02*
X103955000Y-18750000D01*
X42875900Y-55900900D02*
X42975000Y-56000000D01*
X58598500Y-76421500D02*
X58500000Y-76520000D01*
X59405600Y-76421500D02*
X58598500Y-76421500D01*
X43786100Y-105443900D02*
X43268900Y-105443900D01*
X64180900Y-76670900D02*
X63510000Y-76000000D01*
X46037500Y-57250000D02*
X47250000Y-57250000D01*
X50003400Y-59290900D02*
X49962500Y-59250000D01*
X82000000Y-66706000D02*
X82000000Y-67725000D01*
X76663800Y-73856200D02*
X76000000Y-74520000D01*
X101510000Y-15907600D02*
X101510000Y-15000000D01*
%TO.N,+3V3A*%
X74922500Y-82950000D02*
X75500000Y-82950000D01*
X54268900Y-73050000D02*
X55197700Y-73978800D01*
X53862500Y-73050000D02*
X54268900Y-73050000D01*
X75500000Y-82950000D02*
X78862500Y-82950000D01*
X55197700Y-73978800D02*
X55197700Y-75697800D01*
X74264600Y-82292100D02*
X74922500Y-82950000D01*
%TO.N,+3V3D*%
X87978500Y-66001500D02*
X88422400Y-66001500D01*
X78000000Y-50480000D02*
X78000000Y-51729700D01*
X75524600Y-54205100D02*
X78069400Y-56750000D01*
X87500000Y-50480000D02*
X78000000Y-50480000D01*
X87500000Y-66480000D02*
X84795000Y-66480000D01*
X100000000Y-83149700D02*
X99582500Y-83567200D01*
X68862500Y-55050000D02*
X68862500Y-48372500D01*
X80131400Y-56750000D02*
X78837500Y-56750000D01*
X101283200Y-81195700D02*
X101137500Y-81050000D01*
X72786600Y-54648300D02*
X72528100Y-54906800D01*
X78069400Y-56750000D02*
X78837500Y-56750000D01*
X89020000Y-52000000D02*
X87500000Y-50480000D01*
X78837500Y-57750000D02*
X78837500Y-57250000D01*
X74879400Y-54241500D02*
X74472600Y-54648300D01*
X78000000Y-51729700D02*
X75524600Y-54205100D01*
X87500000Y-66480000D02*
X87978500Y-66001500D01*
X84795000Y-66480000D02*
X82000000Y-69275000D01*
X90490000Y-52000000D02*
X89020000Y-52000000D01*
X68862500Y-48372500D02*
X68490000Y-48000000D01*
X70134800Y-54906800D02*
X69991600Y-55050000D01*
X74472600Y-54648300D02*
X72786600Y-54648300D01*
X69991600Y-55050000D02*
X68862500Y-55050000D01*
X107126700Y-81195700D02*
X101283200Y-81195700D01*
X72528100Y-54906800D02*
X70134800Y-54906800D01*
X78837500Y-57250000D02*
X78837500Y-56750000D01*
X75524600Y-54205100D02*
X75488200Y-54241500D01*
X75488200Y-54241500D02*
X74879400Y-54241500D01*
X101283200Y-81195700D02*
X100000000Y-82478900D01*
X99582500Y-83567200D02*
X96292200Y-83567200D01*
X100000000Y-82478900D02*
X100000000Y-83149700D01*
X96292200Y-83567200D02*
X95500000Y-82775000D01*
%TO.N,Net-(ESD4-K)*%
X36000000Y-89225000D02*
X32000000Y-85225000D01*
X31360000Y-84850000D02*
X28510000Y-82000000D01*
X36000000Y-89225000D02*
X42425100Y-89225000D01*
X42425100Y-89225000D02*
X47825200Y-83824900D01*
X32000000Y-85225000D02*
X32000000Y-84850000D01*
X48750000Y-56037500D02*
X48750000Y-55566300D01*
X32000000Y-84850000D02*
X31360000Y-84850000D01*
X48750000Y-55566300D02*
X49280200Y-55036100D01*
X49280200Y-55036100D02*
X49506100Y-55036100D01*
%TO.N,Net-(J1-VBUS_A4)*%
X96600000Y-30500000D02*
X102650000Y-24450000D01*
X105396100Y-20463900D02*
X104482200Y-19550000D01*
X102650000Y-24450000D02*
X103955000Y-24450000D01*
X103955000Y-24450000D02*
X104508000Y-24450000D01*
X105396100Y-23561900D02*
X105396100Y-20463900D01*
X104508000Y-24450000D02*
X105396100Y-23561900D01*
X104482200Y-19550000D02*
X103955000Y-19550000D01*
%TO.N,+5V_USB*%
X96929400Y-21975400D02*
X95641700Y-23263100D01*
X95994000Y-31697800D02*
X99400000Y-31697800D01*
X98000000Y-21221700D02*
X97246300Y-21975400D01*
X99400000Y-31800000D02*
X99400000Y-31697800D01*
X103000000Y-35400000D02*
X96927200Y-41472800D01*
X95641700Y-31345500D02*
X95994000Y-31697800D01*
X96927200Y-41472800D02*
X96927200Y-42656700D01*
X95641700Y-23263100D02*
X95641700Y-31345500D01*
X99400000Y-31697800D02*
X99400000Y-30500000D01*
X97246300Y-21975400D02*
X96929400Y-21975400D01*
X103000000Y-35400000D02*
X99400000Y-31800000D01*
X98000000Y-20862500D02*
X98000000Y-21221700D01*
%TO.N,+5V_IN*%
X96427600Y-82073700D02*
X97503600Y-82073700D01*
X93211800Y-82012600D02*
X96366500Y-82012600D01*
X98527300Y-81050000D02*
X98862500Y-81050000D01*
X98862500Y-82950000D02*
X98502100Y-82950000D01*
X92466800Y-82757600D02*
X92466800Y-91926800D01*
X97564700Y-82012600D02*
X98527300Y-81050000D01*
X87125000Y-82000000D02*
X87882600Y-82757600D01*
X92466800Y-91926800D02*
X97540000Y-97000000D01*
X100344400Y-79275000D02*
X104000000Y-79275000D01*
X98502100Y-82950000D02*
X97564700Y-82012600D01*
X92466800Y-82757600D02*
X93211800Y-82012600D01*
X87882600Y-82757600D02*
X92466800Y-82757600D01*
X98862500Y-80756900D02*
X100344400Y-79275000D01*
X97503600Y-82073700D02*
X97564700Y-82012600D01*
X96366500Y-82012600D02*
X96427600Y-82073700D01*
X98862500Y-81050000D02*
X98862500Y-80756900D01*
%TO.N,Net-(J6-CENTER)*%
X12700000Y-82000000D02*
X27490000Y-82000000D01*
%TO.N,NRST*%
X91623300Y-56103300D02*
X90520000Y-55000000D01*
X96575000Y-57425000D02*
X92425000Y-57425000D01*
X84674000Y-59750000D02*
X78837500Y-59750000D01*
X86101000Y-61177000D02*
X84674000Y-59750000D01*
X92425000Y-57425000D02*
X91623300Y-57425000D01*
X91623300Y-57425000D02*
X91623300Y-56103300D01*
X91623300Y-57587600D02*
X88033900Y-61177000D01*
X96575000Y-57425000D02*
X104002500Y-57425000D01*
X90520000Y-55000000D02*
X90520000Y-52990000D01*
X90520000Y-52990000D02*
X91510000Y-52000000D01*
X104002500Y-57425000D02*
X108461900Y-61884400D01*
X91623300Y-57425000D02*
X91623300Y-57587600D01*
X88033900Y-61177000D02*
X86101000Y-61177000D01*
%TO.N,PCAP_PWR_SENSE*%
X73077000Y-75587000D02*
X75893000Y-75587000D01*
X73000000Y-75510000D02*
X71934800Y-74444800D01*
X77486300Y-60320600D02*
X78766900Y-60320600D01*
X73489400Y-72890200D02*
X71934800Y-74444800D01*
X78766900Y-60320600D02*
X78837500Y-60250000D01*
X75893000Y-75587000D02*
X76000000Y-75480000D01*
X73000000Y-75510000D02*
X73077000Y-75587000D01*
X71934800Y-74444800D02*
X70490000Y-73000000D01*
X70490000Y-73000000D02*
X69510000Y-73000000D01*
%TO.N,UART_TX*%
X80068500Y-61981000D02*
X80250000Y-62162500D01*
X79515400Y-61981000D02*
X80068500Y-61981000D01*
%TO.N,UART_RX*%
X80866700Y-60845300D02*
X80750000Y-60962000D01*
X80750000Y-60962000D02*
X80750000Y-62162500D01*
%TO.N,Net-(U2-PA5-SPI1_SCK)*%
X64337200Y-55700000D02*
X64449600Y-55587600D01*
X79395600Y-63186800D02*
X81460900Y-63186800D01*
X81750000Y-62897700D02*
X81750000Y-62162500D01*
X81460900Y-63186800D02*
X81750000Y-62897700D01*
X75225400Y-58742800D02*
X75225400Y-59016600D01*
X63137500Y-55700000D02*
X64337200Y-55700000D01*
X75225400Y-59016600D02*
X79395600Y-63186800D01*
%TO.N,Net-(U2-PA6-SPI1_MISO)*%
X68862500Y-57000000D02*
X71635400Y-57000000D01*
X82250000Y-62980400D02*
X82250000Y-62162500D01*
X81641900Y-63588500D02*
X82250000Y-62980400D01*
X78223900Y-63588500D02*
X81641900Y-63588500D01*
X71635400Y-57000000D02*
X78223900Y-63588500D01*
%TO.N,Net-(U2-PA7-SPI1_MOSI)*%
X82750000Y-60800800D02*
X82750000Y-62162500D01*
X63137500Y-57650000D02*
X64429800Y-57650000D01*
%TO.N,Net-(U2-PB0-PCAP_CS)*%
X71517600Y-58300000D02*
X77207800Y-63990200D01*
X82224600Y-63990200D02*
X83250000Y-62964800D01*
X68862500Y-58300000D02*
X71517600Y-58300000D01*
X83250000Y-62964800D02*
X83250000Y-62162500D01*
X77207800Y-63990200D02*
X82224600Y-63990200D01*
%TO.N,PCAP_PWR_EN*%
X62490000Y-76000000D02*
X63136000Y-75354000D01*
X76277300Y-76113200D02*
X80406300Y-71984200D01*
X60443800Y-78046200D02*
X62490000Y-76000000D01*
X71769200Y-75354000D02*
X72528400Y-76113200D01*
X80406300Y-71984200D02*
X80406300Y-67340100D01*
X63136000Y-75354000D02*
X71769200Y-75354000D01*
X53862500Y-74950000D02*
X53862500Y-75319500D01*
X56589200Y-78046200D02*
X60443800Y-78046200D01*
X53862500Y-75319500D02*
X56589200Y-78046200D01*
X80406300Y-67340100D02*
X84250000Y-63496400D01*
X72528400Y-76113200D02*
X76277300Y-76113200D01*
X84250000Y-63496400D02*
X84250000Y-62162500D01*
%TO.N,PCAP_SPI_OE_N*%
X67829700Y-57280600D02*
X67829700Y-55700000D01*
X65163800Y-55269800D02*
X64767400Y-54873400D01*
X67829700Y-55700000D02*
X68862500Y-55700000D01*
X65385200Y-55050000D02*
X65165400Y-55269800D01*
X68862500Y-57650000D02*
X68199100Y-57650000D01*
X68199100Y-57650000D02*
X67829700Y-57280600D01*
X66035200Y-55700000D02*
X67829700Y-55700000D01*
X63314100Y-54873400D02*
X63137500Y-55050000D01*
X70911300Y-55602000D02*
X68960500Y-55602000D01*
X65165400Y-55269800D02*
X65163800Y-55269800D01*
X63137500Y-57000000D02*
X63994200Y-57000000D01*
X64767400Y-54873400D02*
X63314100Y-54873400D01*
X63994200Y-57000000D02*
X65163800Y-55830400D01*
X68960500Y-55602000D02*
X68862500Y-55700000D01*
X84750000Y-60783000D02*
X84750000Y-62162500D01*
X65385200Y-50120900D02*
X65385200Y-55050000D01*
X65163800Y-55830400D02*
X65163800Y-55269800D01*
X68858000Y-47348000D02*
X68158100Y-47348000D01*
X68158100Y-47348000D02*
X65385200Y-50120900D01*
X65385200Y-55050000D02*
X66035200Y-55700000D01*
X69510000Y-48000000D02*
X68858000Y-47348000D01*
%TO.N,HOST_READY*%
X101267000Y-64887000D02*
X106000000Y-69620000D01*
X85250000Y-62961100D02*
X87175900Y-64887000D01*
X87175900Y-64887000D02*
X101267000Y-64887000D01*
X85250000Y-62162500D02*
X85250000Y-62961100D01*
%TO.N,MEAS_BUSY*%
X85750000Y-62162500D02*
X99299800Y-62162500D01*
X107155800Y-69126900D02*
X107155800Y-71004200D01*
X107155800Y-71004200D02*
X106000000Y-72160000D01*
X106378900Y-68350000D02*
X107155800Y-69126900D01*
X105487300Y-68350000D02*
X106378900Y-68350000D01*
X99299800Y-62162500D02*
X105487300Y-68350000D01*
%TO.N,USB_DM*%
X98356600Y-19864900D02*
X96568300Y-19864900D01*
X98950000Y-20862500D02*
X98950000Y-20458300D01*
X96568300Y-19864900D02*
X94507100Y-21926100D01*
X88988000Y-56750000D02*
X87162500Y-56750000D01*
X89347200Y-56390800D02*
X88988000Y-56750000D01*
X94507100Y-23612600D02*
X94875300Y-23980800D01*
X98950000Y-20458300D02*
X98356600Y-19864900D01*
X94507100Y-21926100D02*
X94507100Y-23612600D01*
%TO.N,USB_DP*%
X96574600Y-20862500D02*
X95189700Y-22247400D01*
X88128200Y-56250000D02*
X87162500Y-56250000D01*
X89668200Y-54710000D02*
X88128200Y-56250000D01*
X97050000Y-20862500D02*
X96574600Y-20862500D01*
%TO.N,SWDIO*%
X84906600Y-57753000D02*
X84906600Y-57198100D01*
X86354700Y-55750000D02*
X87162500Y-55750000D01*
X84906600Y-57198100D02*
X86354700Y-55750000D01*
%TO.N,SWCLK_BOOT0*%
X87162500Y-55250000D02*
X87162500Y-55057100D01*
X87162500Y-55057100D02*
X87705500Y-54514100D01*
%TO.N,PCAP_MOSI*%
X56990000Y-54000000D02*
X52827200Y-58162800D01*
X50049700Y-58162800D02*
X49962500Y-58250000D01*
X52827200Y-58162800D02*
X50049700Y-58162800D01*
%TO.N,Net-(U6-Y2)*%
X62310000Y-58300000D02*
X58010000Y-54000000D01*
X63137500Y-58300000D02*
X62310000Y-58300000D01*
%TO.N,Net-(ESD5-K)*%
X28775000Y-98000000D02*
X28510000Y-98000000D01*
X36000000Y-90775000D02*
X28775000Y-98000000D01*
X32000000Y-100850000D02*
X31360000Y-100850000D01*
X38804300Y-90090200D02*
X36684800Y-90090200D01*
X31360000Y-100850000D02*
X28510000Y-98000000D01*
X48250000Y-56037500D02*
X48250000Y-54443200D01*
X48250000Y-54443200D02*
X47505700Y-53698900D01*
X36684800Y-90090200D02*
X36000000Y-90775000D01*
%TO.N,Net-(J7-CENTER)*%
X12700000Y-98000000D02*
X27490000Y-98000000D01*
%TO.N,Net-(J2-CENTER)*%
X12700000Y-50000000D02*
X27490000Y-50000000D01*
%TO.N,Net-(ESD0-K)*%
X32000000Y-52850000D02*
X31360000Y-52850000D01*
X47750000Y-55308300D02*
X45291700Y-52850000D01*
X47750000Y-56037500D02*
X47750000Y-55308300D01*
X31360000Y-52850000D02*
X28510000Y-50000000D01*
X45291700Y-52850000D02*
X32000000Y-52850000D01*
%TO.N,Net-(J3-CENTER)*%
X12700000Y-66000000D02*
X27490000Y-66000000D01*
%TO.N,Net-(J1-CC2_B5)*%
X102645100Y-15844900D02*
X102645100Y-19606300D01*
X103288800Y-20250000D02*
X103955000Y-20250000D01*
X102645100Y-19606300D02*
X103288800Y-20250000D01*
X103490000Y-15000000D02*
X102645100Y-15844900D01*
%TO.N,+3V3P*%
D48*
X45490000Y-63847600D02*
X45490000Y-62500000D01*
D49*
X45490000Y-62500000D02*
X45490000Y-61089400D01*
X49497300Y-73947300D02*
X49497300Y-72581600D01*
X49497300Y-72581600D02*
X49810500Y-72268400D01*
X51050000Y-58750000D02*
X51050000Y-61000000D01*
X58500000Y-71990000D02*
X67480000Y-71990000D01*
X49810500Y-72268400D02*
X55355900Y-72268400D01*
X49962500Y-58750000D02*
X51050000Y-58750000D01*
X57440000Y-73050000D02*
X58500000Y-71990000D01*
X45490000Y-61089400D02*
X45490000Y-60010000D01*
X45490000Y-60010000D02*
X44480000Y-59000000D01*
X56137500Y-73050000D02*
X57440000Y-73050000D01*
X51050000Y-58750000D02*
X51220000Y-58750000D01*
D48*
X51050000Y-61000000D02*
X47040000Y-65010000D01*
X46652400Y-65010000D02*
X45490000Y-63847600D01*
X47040000Y-65010000D02*
X49810500Y-66820499D01*
X47040000Y-65010000D02*
X46652400Y-65010000D01*
D49*
X49810500Y-66820500D02*
X49810500Y-72268400D01*
X50500000Y-74950000D02*
X49497300Y-73947300D01*
X55355900Y-72268400D02*
X56137500Y-73050000D01*
X67480000Y-71990000D02*
X68490000Y-73000000D01*
X45230000Y-58250000D02*
X44480000Y-59000000D01*
X46037500Y-58250000D02*
X45230000Y-58250000D01*
%TO.N,/VDD18_LOCAL*%
X46037500Y-57750000D02*
X45392800Y-57750000D01*
X42520000Y-58642600D02*
X42520000Y-62000000D01*
X45392800Y-57750000D02*
X44525000Y-56882200D01*
X44525000Y-56882200D02*
X44280400Y-56882200D01*
X44525000Y-56882200D02*
X44525000Y-56000000D01*
X44280400Y-56882200D02*
X42520000Y-58642600D01*
%TO.N,Net-(U6-Y1)*%
X58010000Y-50000000D02*
X58010000Y-51864600D01*
X58010000Y-51864600D02*
X62495400Y-56350000D01*
X62495400Y-56350000D02*
X63137500Y-56350000D01*
%TO.N,PCAP_MISO*%
X70216600Y-56350000D02*
X68862500Y-56350000D01*
X70262200Y-56304400D02*
X70216600Y-56350000D01*
D48*
X48250000Y-59962500D02*
X48250000Y-61250000D01*
%TO.N,Net-(ESD3-K)*%
D49*
X32000000Y-36850000D02*
X31360000Y-36850000D01*
X32935300Y-36850000D02*
X32000000Y-36850000D01*
X46037500Y-56750000D02*
X46037500Y-55978500D01*
X31360000Y-36850000D02*
X28510000Y-34000000D01*
%TO.N,Net-(J1-CC1_A5)*%
X101009900Y-23250000D02*
X100830000Y-23429900D01*
X100490000Y-15000000D02*
X100312400Y-14822400D01*
X103955000Y-23250000D02*
X101009900Y-23250000D01*
X100312400Y-14822400D02*
X99665500Y-14822400D01*
%TO.N,Net-(J1-D+_A6)*%
X103173100Y-22250000D02*
X103955000Y-22250000D01*
X102941200Y-22018100D02*
X103173100Y-22250000D01*
X97050000Y-22768900D02*
X97800800Y-22018100D01*
X103955000Y-21250000D02*
X103232300Y-21250000D01*
X97050000Y-23137500D02*
X97050000Y-22768900D01*
X102941200Y-21541100D02*
X102941200Y-22018100D01*
X103232300Y-21250000D02*
X102941200Y-21541100D01*
X97800800Y-22018100D02*
X102941200Y-22018100D01*
%TO.N,Net-(J1-D-_A7)*%
X103955000Y-22750000D02*
X104695800Y-22750000D01*
X99337500Y-22750000D02*
X103955000Y-22750000D01*
X104961600Y-22484200D02*
X104961600Y-21976800D01*
X104961600Y-21976800D02*
X104734800Y-21750000D01*
X104695800Y-22750000D02*
X104961600Y-22484200D01*
X98950000Y-23137500D02*
X99337500Y-22750000D01*
X104734800Y-21750000D02*
X103955000Y-21750000D01*
%TO.N,PCAP_SCK*%
X50392400Y-57750000D02*
X56990000Y-51152400D01*
X56990000Y-51152400D02*
X56990000Y-50000000D01*
X49962500Y-57750000D02*
X50392400Y-57750000D01*
%TO.N,Net-(U5-QOD)*%
X57510000Y-74000000D02*
X58500000Y-73010000D01*
X56137500Y-74000000D02*
X57510000Y-74000000D01*
%TO.N,Net-(U5-CT)*%
X56137500Y-75117500D02*
X58500000Y-77480000D01*
X56137500Y-74950000D02*
X56137500Y-75117500D01*
%TD*%
M02*
