%TF.GenerationSoftware,KiCad,Pcbnew,10.0.5*%
%TF.CreationDate,2026-08-25T17:32:45+08:00*%
%TF.ProjectId,PCAP04_Acquisition_3CH_v1.5_100mm_C496550,50434150-3034-45f4-9163-717569736974,v1.5*%
%TF.SameCoordinates,Original*%
%TF.FileFunction,Copper,L2,Inr*%
%TF.FilePolarity,Positive*%
%FSLAX46Y46*%
G04 Gerber Fmt 4.6, Leading zero omitted, Abs format (unit mm)*
G04 Created by KiCad (PCBNEW 10.0.5) date 2026-08-25 17:32:45*
%MOMM*%
%LPD*%
G01*
G04 APERTURE LIST*
%TA.AperFunction,ComponentPad*%
%ADD10R,1.700000X1.700000*%
%TD*%
%TA.AperFunction,ComponentPad*%
%ADD11C,1.700000*%
%TD*%
%TA.AperFunction,ComponentPad*%
%ADD12O,2.100000X1.000000*%
%TD*%
%TA.AperFunction,ComponentPad*%
%ADD13O,1.600000X1.000000*%
%TD*%
%TA.AperFunction,ViaPad*%
%ADD14C,0.650000*%
%TD*%
%TA.AperFunction,ViaPad*%
%ADD15C,0.900000*%
%TD*%
%TA.AperFunction,ViaPad*%
%ADD16C,0.800000*%
%TD*%
%TA.AperFunction,ViaPad*%
%ADD17C,0.600000*%
%TD*%
%TA.AperFunction,Conductor*%
%ADD18C,0.250000*%
%TD*%
G04 APERTURE END LIST*
D10*
%TO.N,+3V3D*%
%TO.C,J9*%
X106000000Y-97000000D03*
D11*
%TO.N,SWDIO*%
X106000000Y-99540000D03*
%TO.N,SWCLK_BOOT0*%
X106000000Y-102080000D03*
%TO.N,NRST*%
X106000000Y-104620000D03*
%TO.N,GND*%
X106000000Y-107160000D03*
%TD*%
D10*
%TO.N,+5V_EXT*%
%TO.C,J8*%
X103000000Y-43000000D03*
D11*
%TO.N,GND*%
X105540000Y-43000000D03*
%TD*%
D10*
%TO.N,+3V3D*%
%TO.C,J10*%
X106000000Y-62000000D03*
D11*
%TO.N,UART_TX*%
X106000000Y-64540000D03*
%TO.N,UART_RX*%
X106000000Y-67080000D03*
%TO.N,HOST_READY*%
X106000000Y-69620000D03*
%TO.N,MEAS_BUSY*%
X106000000Y-72160000D03*
%TO.N,GND*%
X106000000Y-74700000D03*
%TD*%
D10*
%TO.N,+5V_USB*%
%TO.C,J11*%
X95000000Y-97000000D03*
D11*
%TO.N,+5V_IN*%
X97540000Y-97000000D03*
%TO.N,+5V_EXT*%
X100080000Y-97000000D03*
%TD*%
D12*
%TO.N,CHASSIS*%
%TO.C,J1*%
X104870000Y-26320000D03*
D13*
X109050000Y-26320000D03*
D12*
X104870000Y-17680000D03*
D13*
X109050000Y-17680000D03*
%TD*%
D14*
%TO.N,PCAP_IRQ*%
X53239100Y-62813000D03*
X49374300Y-61856200D03*
D15*
%TO.N,CHASSIS*%
X13500000Y-70250000D03*
X13500000Y-22250000D03*
D16*
X32000000Y-35389400D03*
D15*
X13500000Y-54250000D03*
X13500000Y-77750000D03*
X13500000Y-102250000D03*
X13500000Y-38250000D03*
X13500000Y-13750000D03*
D16*
X32000000Y-99370200D03*
X32000000Y-67371000D03*
D15*
X13500000Y-93750000D03*
D16*
X32000000Y-19373500D03*
X34950400Y-27241100D03*
X34898800Y-104319100D03*
D15*
X13500000Y-29750000D03*
D16*
X31329100Y-83479100D03*
X32000000Y-51360400D03*
D15*
X13500000Y-45750000D03*
X13500000Y-61750000D03*
X13500000Y-86250000D03*
D14*
%TO.N,PCAP_CS_N*%
X46500000Y-64000000D03*
X55500000Y-58000000D03*
D16*
%TO.N,Net-(ESD2-K)*%
X45248800Y-54424600D03*
X34950400Y-23387200D03*
%TO.N,GND*%
X82000000Y-66706000D03*
X59405600Y-76421500D03*
X76807300Y-80959100D03*
X43786100Y-105443900D03*
X53214000Y-58750000D03*
X91623300Y-58724000D03*
X103321800Y-17182700D03*
X101510000Y-15907600D03*
X105169600Y-14340400D03*
X82394400Y-82236600D03*
X50003400Y-60004300D03*
X104131400Y-32609100D03*
X51759500Y-74000000D03*
X77123900Y-50396100D03*
X100608800Y-80009100D03*
X86597500Y-49520000D03*
X47794600Y-105451300D03*
X41939800Y-55900900D03*
X98000000Y-24355400D03*
X102879200Y-25911100D03*
X39798000Y-105035300D03*
X102958900Y-78278200D03*
X76663800Y-73856200D03*
X92153200Y-54326800D03*
X43480000Y-61123400D03*
X80136100Y-58250000D03*
X95456900Y-59624600D03*
X73930200Y-74856900D03*
X85044700Y-77282400D03*
X86590100Y-65520000D03*
X96707800Y-81397000D03*
X53884500Y-61934500D03*
X64180900Y-76670900D03*
X64444600Y-58950000D03*
X61184900Y-65825100D03*
X43967500Y-58152000D03*
%TO.N,+3V3A*%
X55197700Y-75697800D03*
X74264600Y-82292100D03*
%TO.N,+3V3D*%
X80131400Y-56750000D03*
X88422400Y-66001500D03*
X107126700Y-81195700D03*
%TO.N,Net-(ESD4-K)*%
X47825200Y-83824900D03*
X49506100Y-55036100D03*
%TO.N,+5V_USB*%
X96927200Y-42656700D03*
%TO.N,NRST*%
X108461900Y-61884400D03*
%TO.N,PCAP_PWR_SENSE*%
X77486300Y-60320600D03*
X73489400Y-72890200D03*
%TO.N,UART_TX*%
X79515400Y-61981000D03*
%TO.N,UART_RX*%
X80866700Y-60845300D03*
%TO.N,Net-(U2-PA5-SPI1_SCK)*%
X75225400Y-58742800D03*
X64449600Y-55587600D03*
%TO.N,Net-(U2-PA7-SPI1_MOSI)*%
X64429800Y-57650000D03*
X82750000Y-60800800D03*
%TO.N,PCAP_SPI_OE_N*%
X70911300Y-55602000D03*
X84750000Y-60783000D03*
%TO.N,USB_DM*%
X94875300Y-23980800D03*
X89347200Y-56390800D03*
%TO.N,USB_DP*%
X89668200Y-54710000D03*
X95189700Y-22247400D03*
%TO.N,SWDIO*%
X84906600Y-57753000D03*
%TO.N,SWCLK_BOOT0*%
X87705500Y-54514100D03*
%TO.N,Net-(ESD5-K)*%
X47505700Y-53698900D03*
X38804300Y-90090200D03*
%TO.N,PCAP_MISO*%
X70262200Y-56304400D03*
D17*
X48250000Y-61250000D03*
D16*
%TO.N,Net-(ESD3-K)*%
X46037500Y-55978500D03*
X32935300Y-36850000D03*
%TO.N,Net-(J1-CC1_A5)*%
X100830000Y-23429900D03*
X99665500Y-14822400D03*
%TD*%
%TO.N,CHASSIS*%
D18*
X109050000Y-26320000D02*
X107973300Y-26320000D01*
X107973300Y-26320000D02*
X107973300Y-17680000D01*
X109050000Y-17680000D02*
X107973300Y-17680000D01*
%TO.N,Net-(ESD2-K)*%
X45248800Y-54424600D02*
X45248800Y-33685600D01*
X45248800Y-33685600D02*
X34950400Y-23387200D01*
%TO.N,+3V3D*%
X106000000Y-97000000D02*
X106000000Y-95873300D01*
X106000000Y-62000000D02*
X106000000Y-63126700D01*
X106000000Y-63126700D02*
X106281700Y-63126700D01*
X107126700Y-94746600D02*
X106000000Y-95873300D01*
X107126700Y-81195700D02*
X107126700Y-94746600D01*
X107126700Y-63971700D02*
X107126700Y-81195700D01*
X106281700Y-63126700D02*
X107126700Y-63971700D01*
%TO.N,+5V_USB*%
X95000000Y-81742100D02*
X95000000Y-97000000D01*
X96927200Y-79814900D02*
X95000000Y-81742100D01*
X96927200Y-42656700D02*
X96927200Y-79814900D01*
%TO.N,NRST*%
X108461900Y-102158100D02*
X108461900Y-61884400D01*
X106000000Y-104620000D02*
X108461900Y-102158100D01*
%TO.N,PCAP_PWR_SENSE*%
X77486300Y-68893300D02*
X77486300Y-60320600D01*
X73489400Y-72890200D02*
X77486300Y-68893300D01*
%TO.N,USB_DM*%
X94875300Y-23980800D02*
X88982300Y-29873800D01*
X88982300Y-56025900D02*
X89347200Y-56390800D01*
X88982300Y-29873800D02*
X88982300Y-56025900D01*
%TO.N,USB_DP*%
X89668200Y-54710000D02*
X95552000Y-48826200D01*
X95552000Y-22609700D02*
X95189700Y-22247400D01*
X95552000Y-48826200D02*
X95552000Y-22609700D01*
%TO.N,SWDIO*%
X106000000Y-99540000D02*
X107131900Y-100671900D01*
X107131900Y-102546100D02*
X106428500Y-103249500D01*
X84028700Y-58630900D02*
X84906600Y-57753000D01*
X84028700Y-88767900D02*
X84028700Y-58630900D01*
X98510300Y-103249500D02*
X84028700Y-88767900D01*
X107131900Y-100671900D02*
X107131900Y-102546100D01*
X106428500Y-103249500D02*
X98510300Y-103249500D01*
%TO.N,SWCLK_BOOT0*%
X97950000Y-102080000D02*
X87705500Y-91835500D01*
X106000000Y-102080000D02*
X97950000Y-102080000D01*
X87705500Y-91835500D02*
X87705500Y-54514100D01*
%TO.N,Net-(ESD5-K)*%
X47115000Y-81779500D02*
X38804300Y-90090200D01*
X47115000Y-54089600D02*
X47115000Y-81779500D01*
X47505700Y-53698900D02*
X47115000Y-54089600D01*
%TO.N,+5V_EXT*%
X99932100Y-47194600D02*
X99932100Y-96852100D01*
X99932100Y-96852100D02*
X100080000Y-97000000D01*
X103000000Y-43000000D02*
X103000000Y-44126700D01*
X103000000Y-44126700D02*
X99932100Y-47194600D01*
%TO.N,Net-(J1-CC1_A5)*%
X100830000Y-15986900D02*
X99665500Y-14822400D01*
X100830000Y-23429900D02*
X100830000Y-15986900D01*
%TD*%
%TA.AperFunction,Conductor*%
%TO.N,GND*%
G36*
X109459191Y-10518907D02*
G01*
X109495155Y-10568407D01*
X109500000Y-10599000D01*
X109500000Y-16880500D01*
X109481093Y-16938691D01*
X109431593Y-16974655D01*
X109401000Y-16979500D01*
X108681004Y-16979500D01*
X108545672Y-17006420D01*
X108545670Y-17006420D01*
X108418193Y-17059222D01*
X108418182Y-17059228D01*
X108303458Y-17135885D01*
X108205889Y-17233454D01*
X108205886Y-17233458D01*
X108175501Y-17278933D01*
X108154407Y-17310502D01*
X108106357Y-17348381D01*
X108072092Y-17354500D01*
X108016153Y-17354500D01*
X107930447Y-17354500D01*
X107847662Y-17376682D01*
X107773438Y-17419535D01*
X107712835Y-17480138D01*
X107669982Y-17554362D01*
X107647800Y-17637147D01*
X107647800Y-26362853D01*
X107669982Y-26445638D01*
X107712835Y-26519862D01*
X107773438Y-26580465D01*
X107847662Y-26623318D01*
X107930447Y-26645500D01*
X108016153Y-26645500D01*
X108072092Y-26645500D01*
X108130283Y-26664407D01*
X108154406Y-26689497D01*
X108205886Y-26766542D01*
X108205889Y-26766545D01*
X108303458Y-26864114D01*
X108418182Y-26940771D01*
X108418193Y-26940777D01*
X108465283Y-26960282D01*
X108545672Y-26993580D01*
X108681007Y-27020500D01*
X108681008Y-27020500D01*
X109401000Y-27020500D01*
X109459191Y-27039407D01*
X109495155Y-27088907D01*
X109500000Y-27119500D01*
X109500000Y-109401000D01*
X109481093Y-109459191D01*
X109431593Y-109495155D01*
X109401000Y-109500000D01*
X10599000Y-109500000D01*
X10540809Y-109481093D01*
X10504845Y-109431593D01*
X10500000Y-109401000D01*
X10500000Y-104240043D01*
X34298300Y-104240043D01*
X34298300Y-104398157D01*
X34339223Y-104550884D01*
X34418280Y-104687816D01*
X34530084Y-104799620D01*
X34667016Y-104878677D01*
X34819743Y-104919600D01*
X34819745Y-104919600D01*
X34977855Y-104919600D01*
X34977857Y-104919600D01*
X35130584Y-104878677D01*
X35267516Y-104799620D01*
X35379320Y-104687816D01*
X35458377Y-104550884D01*
X35499300Y-104398157D01*
X35499300Y-104240043D01*
X35458377Y-104087316D01*
X35379320Y-103950384D01*
X35267516Y-103838580D01*
X35130584Y-103759523D01*
X34977857Y-103718600D01*
X34819743Y-103718600D01*
X34667016Y-103759523D01*
X34530084Y-103838580D01*
X34418280Y-103950384D01*
X34339223Y-104087316D01*
X34298300Y-104240043D01*
X10500000Y-104240043D01*
X10500000Y-102185931D01*
X12849500Y-102185931D01*
X12849500Y-102314069D01*
X12871448Y-102424407D01*
X12874499Y-102439742D01*
X12874500Y-102439747D01*
X12923534Y-102558125D01*
X12923538Y-102558133D01*
X12944132Y-102588953D01*
X12994724Y-102664669D01*
X13085331Y-102755276D01*
X13148848Y-102797717D01*
X13191866Y-102826461D01*
X13191870Y-102826463D01*
X13191873Y-102826465D01*
X13310256Y-102875501D01*
X13435931Y-102900500D01*
X13435932Y-102900500D01*
X13564068Y-102900500D01*
X13564069Y-102900500D01*
X13689744Y-102875501D01*
X13808127Y-102826465D01*
X13914669Y-102755276D01*
X14005276Y-102664669D01*
X14076465Y-102558127D01*
X14125501Y-102439744D01*
X14150500Y-102314069D01*
X14150500Y-102185931D01*
X14125501Y-102060256D01*
X14076465Y-101941873D01*
X14076463Y-101941870D01*
X14076461Y-101941866D01*
X14047717Y-101898848D01*
X14005276Y-101835331D01*
X13914669Y-101744724D01*
X13872226Y-101716365D01*
X13808133Y-101673538D01*
X13808125Y-101673534D01*
X13689747Y-101624500D01*
X13689745Y-101624499D01*
X13689744Y-101624499D01*
X13564069Y-101599500D01*
X13435931Y-101599500D01*
X13435930Y-101599500D01*
X13373093Y-101611999D01*
X13310256Y-101624499D01*
X13310255Y-101624499D01*
X13310252Y-101624500D01*
X13191874Y-101673534D01*
X13191866Y-101673538D01*
X13085331Y-101744724D01*
X13085327Y-101744727D01*
X12994727Y-101835327D01*
X12994724Y-101835331D01*
X12923538Y-101941866D01*
X12923534Y-101941874D01*
X12874500Y-102060252D01*
X12874499Y-102060255D01*
X12874499Y-102060256D01*
X12849500Y-102185931D01*
X10500000Y-102185931D01*
X10500000Y-99291143D01*
X31399500Y-99291143D01*
X31399500Y-99449257D01*
X31440423Y-99601984D01*
X31519480Y-99738916D01*
X31631284Y-99850720D01*
X31768216Y-99929777D01*
X31920943Y-99970700D01*
X31920945Y-99970700D01*
X32079055Y-99970700D01*
X32079057Y-99970700D01*
X32231784Y-99929777D01*
X32368716Y-99850720D01*
X32480520Y-99738916D01*
X32559577Y-99601984D01*
X32600500Y-99449257D01*
X32600500Y-99291143D01*
X32559577Y-99138416D01*
X32480520Y-99001484D01*
X32368716Y-98889680D01*
X32231784Y-98810623D01*
X32079057Y-98769700D01*
X31920943Y-98769700D01*
X31768216Y-98810623D01*
X31631284Y-98889680D01*
X31519480Y-99001484D01*
X31440423Y-99138416D01*
X31399500Y-99291143D01*
X10500000Y-99291143D01*
X10500000Y-93685930D01*
X12849500Y-93685930D01*
X12849500Y-93814069D01*
X12874499Y-93939742D01*
X12874500Y-93939747D01*
X12923534Y-94058125D01*
X12923538Y-94058133D01*
X12966365Y-94122226D01*
X12994724Y-94164669D01*
X13085331Y-94255276D01*
X13148848Y-94297717D01*
X13191866Y-94326461D01*
X13191870Y-94326463D01*
X13191873Y-94326465D01*
X13310256Y-94375501D01*
X13435931Y-94400500D01*
X13435932Y-94400500D01*
X13564068Y-94400500D01*
X13564069Y-94400500D01*
X13689744Y-94375501D01*
X13808127Y-94326465D01*
X13914669Y-94255276D01*
X14005276Y-94164669D01*
X14076465Y-94058127D01*
X14125501Y-93939744D01*
X14150500Y-93814069D01*
X14150500Y-93685931D01*
X14125501Y-93560256D01*
X14076465Y-93441873D01*
X14076463Y-93441870D01*
X14076461Y-93441866D01*
X14047717Y-93398848D01*
X14005276Y-93335331D01*
X13914669Y-93244724D01*
X13872226Y-93216365D01*
X13808133Y-93173538D01*
X13808125Y-93173534D01*
X13689747Y-93124500D01*
X13689745Y-93124499D01*
X13689744Y-93124499D01*
X13564069Y-93099500D01*
X13435931Y-93099500D01*
X13435930Y-93099500D01*
X13373093Y-93111999D01*
X13310256Y-93124499D01*
X13310255Y-93124499D01*
X13310252Y-93124500D01*
X13191874Y-93173534D01*
X13191866Y-93173538D01*
X13085331Y-93244724D01*
X13085327Y-93244727D01*
X12994727Y-93335327D01*
X12994724Y-93335331D01*
X12923538Y-93441866D01*
X12923534Y-93441874D01*
X12874500Y-93560252D01*
X12874499Y-93560257D01*
X12849500Y-93685930D01*
X10500000Y-93685930D01*
X10500000Y-90011143D01*
X38203800Y-90011143D01*
X38203800Y-90169257D01*
X38244723Y-90321984D01*
X38323780Y-90458916D01*
X38435584Y-90570720D01*
X38572516Y-90649777D01*
X38725243Y-90690700D01*
X38725245Y-90690700D01*
X38883355Y-90690700D01*
X38883357Y-90690700D01*
X39036084Y-90649777D01*
X39173016Y-90570720D01*
X39284820Y-90458916D01*
X39363877Y-90321984D01*
X39404800Y-90169257D01*
X39404800Y-90011143D01*
X39404798Y-90011138D01*
X39404062Y-90005544D01*
X39415210Y-89945382D01*
X39432208Y-89922617D01*
X45608982Y-83745843D01*
X47224700Y-83745843D01*
X47224700Y-83903957D01*
X47265623Y-84056684D01*
X47344680Y-84193616D01*
X47456484Y-84305420D01*
X47593416Y-84384477D01*
X47746143Y-84425400D01*
X47746145Y-84425400D01*
X47904255Y-84425400D01*
X47904257Y-84425400D01*
X48056984Y-84384477D01*
X48193916Y-84305420D01*
X48305720Y-84193616D01*
X48384777Y-84056684D01*
X48425700Y-83903957D01*
X48425700Y-83745843D01*
X48384777Y-83593116D01*
X48305720Y-83456184D01*
X48193916Y-83344380D01*
X48056984Y-83265323D01*
X47904257Y-83224400D01*
X47746143Y-83224400D01*
X47593416Y-83265323D01*
X47456484Y-83344380D01*
X47344680Y-83456184D01*
X47265623Y-83593116D01*
X47224700Y-83745843D01*
X45608982Y-83745843D01*
X47141782Y-82213043D01*
X73664100Y-82213043D01*
X73664100Y-82371157D01*
X73705023Y-82523884D01*
X73784080Y-82660816D01*
X73895884Y-82772620D01*
X74032816Y-82851677D01*
X74185543Y-82892600D01*
X74185545Y-82892600D01*
X74343655Y-82892600D01*
X74343657Y-82892600D01*
X74496384Y-82851677D01*
X74633316Y-82772620D01*
X74745120Y-82660816D01*
X74824177Y-82523884D01*
X74865100Y-82371157D01*
X74865100Y-82213043D01*
X74824177Y-82060316D01*
X74745120Y-81923384D01*
X74633316Y-81811580D01*
X74496384Y-81732523D01*
X74343657Y-81691600D01*
X74185543Y-81691600D01*
X74032816Y-81732523D01*
X73895884Y-81811580D01*
X73784080Y-81923384D01*
X73705023Y-82060316D01*
X73664100Y-82213043D01*
X47141782Y-82213043D01*
X47314859Y-82039966D01*
X47314862Y-82039965D01*
X47375465Y-81979362D01*
X47418318Y-81905138D01*
X47440501Y-81822353D01*
X47440501Y-81736647D01*
X47440501Y-81730585D01*
X47440500Y-81730567D01*
X47440500Y-75618743D01*
X54597200Y-75618743D01*
X54597200Y-75776857D01*
X54638123Y-75929584D01*
X54717180Y-76066516D01*
X54828984Y-76178320D01*
X54965916Y-76257377D01*
X55118643Y-76298300D01*
X55118645Y-76298300D01*
X55276755Y-76298300D01*
X55276757Y-76298300D01*
X55429484Y-76257377D01*
X55566416Y-76178320D01*
X55678220Y-76066516D01*
X55757277Y-75929584D01*
X55798200Y-75776857D01*
X55798200Y-75618743D01*
X55757277Y-75466016D01*
X55678220Y-75329084D01*
X55566416Y-75217280D01*
X55429484Y-75138223D01*
X55276757Y-75097300D01*
X55118643Y-75097300D01*
X54965916Y-75138223D01*
X54828984Y-75217280D01*
X54717180Y-75329084D01*
X54638123Y-75466016D01*
X54597200Y-75618743D01*
X47440500Y-75618743D01*
X47440500Y-72811143D01*
X72888900Y-72811143D01*
X72888900Y-72969257D01*
X72929823Y-73121984D01*
X73008880Y-73258916D01*
X73120684Y-73370720D01*
X73257616Y-73449777D01*
X73410343Y-73490700D01*
X73410345Y-73490700D01*
X73568455Y-73490700D01*
X73568457Y-73490700D01*
X73721184Y-73449777D01*
X73858116Y-73370720D01*
X73969920Y-73258916D01*
X74048977Y-73121984D01*
X74089900Y-72969257D01*
X74089900Y-72811143D01*
X74089898Y-72811138D01*
X74089162Y-72805544D01*
X74100310Y-72745382D01*
X74117308Y-72722617D01*
X77746765Y-69093162D01*
X77789618Y-69018939D01*
X77811800Y-68936153D01*
X77811800Y-68850447D01*
X77811800Y-61901943D01*
X78914900Y-61901943D01*
X78914900Y-62060057D01*
X78955823Y-62212784D01*
X79034880Y-62349716D01*
X79146684Y-62461520D01*
X79283616Y-62540577D01*
X79436343Y-62581500D01*
X79436345Y-62581500D01*
X79594455Y-62581500D01*
X79594457Y-62581500D01*
X79747184Y-62540577D01*
X79884116Y-62461520D01*
X79995920Y-62349716D01*
X80074977Y-62212784D01*
X80115900Y-62060057D01*
X80115900Y-61901943D01*
X80074977Y-61749216D01*
X79995920Y-61612284D01*
X79884116Y-61500480D01*
X79747184Y-61421423D01*
X79594457Y-61380500D01*
X79436343Y-61380500D01*
X79283616Y-61421423D01*
X79146684Y-61500480D01*
X79034880Y-61612284D01*
X78955823Y-61749216D01*
X78914900Y-61901943D01*
X77811800Y-61901943D01*
X77811800Y-60883102D01*
X77814406Y-60875079D01*
X77813162Y-60866735D01*
X77821772Y-60852409D01*
X77830707Y-60824911D01*
X77841429Y-60812471D01*
X77850091Y-60803963D01*
X77855016Y-60801120D01*
X77889893Y-60766243D01*
X80266200Y-60766243D01*
X80266200Y-60924357D01*
X80307123Y-61077084D01*
X80386180Y-61214016D01*
X80497984Y-61325820D01*
X80634916Y-61404877D01*
X80787643Y-61445800D01*
X80787645Y-61445800D01*
X80945755Y-61445800D01*
X80945757Y-61445800D01*
X81098484Y-61404877D01*
X81235416Y-61325820D01*
X81347220Y-61214016D01*
X81426277Y-61077084D01*
X81467200Y-60924357D01*
X81467200Y-60766243D01*
X81455276Y-60721743D01*
X82149500Y-60721743D01*
X82149500Y-60879857D01*
X82190423Y-61032584D01*
X82269480Y-61169516D01*
X82381284Y-61281320D01*
X82518216Y-61360377D01*
X82670943Y-61401300D01*
X82670945Y-61401300D01*
X82829055Y-61401300D01*
X82829057Y-61401300D01*
X82981784Y-61360377D01*
X83118716Y-61281320D01*
X83230520Y-61169516D01*
X83309577Y-61032584D01*
X83350500Y-60879857D01*
X83350500Y-60721743D01*
X83309577Y-60569016D01*
X83230520Y-60432084D01*
X83118716Y-60320280D01*
X82981784Y-60241223D01*
X82829057Y-60200300D01*
X82670943Y-60200300D01*
X82518216Y-60241223D01*
X82381284Y-60320280D01*
X82269480Y-60432084D01*
X82190423Y-60569016D01*
X82149500Y-60721743D01*
X81455276Y-60721743D01*
X81426277Y-60613516D01*
X81347220Y-60476584D01*
X81235416Y-60364780D01*
X81098484Y-60285723D01*
X80945757Y-60244800D01*
X80787643Y-60244800D01*
X80634916Y-60285723D01*
X80497984Y-60364780D01*
X80386180Y-60476584D01*
X80307123Y-60613516D01*
X80266200Y-60766243D01*
X77889893Y-60766243D01*
X77966820Y-60689316D01*
X78045877Y-60552384D01*
X78086800Y-60399657D01*
X78086800Y-60241543D01*
X78045877Y-60088816D01*
X77966820Y-59951884D01*
X77855016Y-59840080D01*
X77718084Y-59761023D01*
X77565357Y-59720100D01*
X77407243Y-59720100D01*
X77254516Y-59761023D01*
X77117584Y-59840080D01*
X77005780Y-59951884D01*
X76926723Y-60088816D01*
X76885800Y-60241543D01*
X76885800Y-60399657D01*
X76926723Y-60552384D01*
X77005780Y-60689316D01*
X77117584Y-60801120D01*
X77117586Y-60801121D01*
X77117588Y-60801123D01*
X77122067Y-60804560D01*
X77156723Y-60854984D01*
X77160800Y-60883102D01*
X77160800Y-68717464D01*
X77141893Y-68775655D01*
X77131804Y-68787468D01*
X73656983Y-72262288D01*
X73602466Y-72290065D01*
X73574058Y-72290437D01*
X73568459Y-72289700D01*
X73568457Y-72289700D01*
X73410343Y-72289700D01*
X73257616Y-72330623D01*
X73120684Y-72409680D01*
X73008880Y-72521484D01*
X72929823Y-72658416D01*
X72888900Y-72811143D01*
X47440500Y-72811143D01*
X47440500Y-62743817D01*
X52713600Y-62743817D01*
X52713600Y-62882183D01*
X52749412Y-63015836D01*
X52818595Y-63135665D01*
X52916435Y-63233505D01*
X53036264Y-63302688D01*
X53169917Y-63338500D01*
X53169919Y-63338500D01*
X53308281Y-63338500D01*
X53308283Y-63338500D01*
X53441936Y-63302688D01*
X53561765Y-63233505D01*
X53659605Y-63135665D01*
X53728788Y-63015836D01*
X53764600Y-62882183D01*
X53764600Y-62743817D01*
X53728788Y-62610164D01*
X53659605Y-62490335D01*
X53561765Y-62392495D01*
X53441936Y-62323312D01*
X53308283Y-62287500D01*
X53169917Y-62287500D01*
X53036264Y-62323312D01*
X52916435Y-62392495D01*
X52818595Y-62490335D01*
X52749412Y-62610164D01*
X52713600Y-62743817D01*
X47440500Y-62743817D01*
X47440500Y-61787017D01*
X48848800Y-61787017D01*
X48848800Y-61925383D01*
X48884612Y-62059036D01*
X48953795Y-62178865D01*
X49051635Y-62276705D01*
X49171464Y-62345888D01*
X49305117Y-62381700D01*
X49305119Y-62381700D01*
X49443481Y-62381700D01*
X49443483Y-62381700D01*
X49577136Y-62345888D01*
X49696965Y-62276705D01*
X49794805Y-62178865D01*
X49863988Y-62059036D01*
X49899800Y-61925383D01*
X49899800Y-61787017D01*
X49863988Y-61653364D01*
X49794805Y-61533535D01*
X49696965Y-61435695D01*
X49577136Y-61366512D01*
X49443483Y-61330700D01*
X49305117Y-61330700D01*
X49171464Y-61366512D01*
X49051635Y-61435695D01*
X48953795Y-61533535D01*
X48884612Y-61653364D01*
X48848800Y-61787017D01*
X47440500Y-61787017D01*
X47440500Y-61184108D01*
X47749500Y-61184108D01*
X47749500Y-61315892D01*
X47772385Y-61401300D01*
X47783609Y-61443190D01*
X47849496Y-61557309D01*
X47849498Y-61557311D01*
X47849500Y-61557314D01*
X47942686Y-61650500D01*
X47942688Y-61650501D01*
X47942690Y-61650503D01*
X48056810Y-61716390D01*
X48056808Y-61716390D01*
X48056812Y-61716391D01*
X48056814Y-61716392D01*
X48184108Y-61750500D01*
X48184110Y-61750500D01*
X48315890Y-61750500D01*
X48315892Y-61750500D01*
X48443186Y-61716392D01*
X48480600Y-61694791D01*
X48480603Y-61694790D01*
X48557309Y-61650503D01*
X48557309Y-61650502D01*
X48557314Y-61650500D01*
X48650500Y-61557314D01*
X48716392Y-61443186D01*
X48750500Y-61315892D01*
X48750500Y-61184108D01*
X48716392Y-61056814D01*
X48716390Y-61056811D01*
X48716390Y-61056809D01*
X48650503Y-60942690D01*
X48650501Y-60942688D01*
X48650500Y-60942686D01*
X48557314Y-60849500D01*
X48557311Y-60849498D01*
X48557309Y-60849496D01*
X48443189Y-60783609D01*
X48443191Y-60783609D01*
X48378378Y-60766243D01*
X48315892Y-60749500D01*
X48184108Y-60749500D01*
X48121622Y-60766243D01*
X48056809Y-60783609D01*
X47942690Y-60849496D01*
X47849496Y-60942690D01*
X47783609Y-61056809D01*
X47772170Y-61099500D01*
X47749500Y-61184108D01*
X47440500Y-61184108D01*
X47440500Y-58663743D01*
X74624900Y-58663743D01*
X74624900Y-58821857D01*
X74665823Y-58974584D01*
X74744880Y-59111516D01*
X74856684Y-59223320D01*
X74993616Y-59302377D01*
X75146343Y-59343300D01*
X75146345Y-59343300D01*
X75304455Y-59343300D01*
X75304457Y-59343300D01*
X75457184Y-59302377D01*
X75594116Y-59223320D01*
X75705920Y-59111516D01*
X75784977Y-58974584D01*
X75825900Y-58821857D01*
X75825900Y-58663743D01*
X75805617Y-58588047D01*
X83703200Y-58588047D01*
X83703200Y-88725047D01*
X83703200Y-88810753D01*
X83722762Y-88883763D01*
X83725383Y-88893543D01*
X83768231Y-88967757D01*
X83768233Y-88967759D01*
X83768235Y-88967762D01*
X98310438Y-103509965D01*
X98310440Y-103509966D01*
X98310442Y-103509968D01*
X98384657Y-103552816D01*
X98384655Y-103552816D01*
X98384659Y-103552817D01*
X98384661Y-103552818D01*
X98467447Y-103575000D01*
X105346743Y-103575000D01*
X105404934Y-103593907D01*
X105440898Y-103643407D01*
X105440898Y-103704593D01*
X105404934Y-103754093D01*
X105401744Y-103756316D01*
X105330348Y-103804020D01*
X105184020Y-103950348D01*
X105069058Y-104122402D01*
X104989869Y-104313581D01*
X104949500Y-104516532D01*
X104949500Y-104723467D01*
X104989869Y-104926418D01*
X105069058Y-105117597D01*
X105069059Y-105117598D01*
X105184023Y-105289655D01*
X105330345Y-105435977D01*
X105502402Y-105550941D01*
X105693580Y-105630130D01*
X105742003Y-105639762D01*
X105795386Y-105669657D01*
X105821003Y-105725221D01*
X105809067Y-105785231D01*
X105764138Y-105826765D01*
X105738177Y-105834640D01*
X105683877Y-105843241D01*
X105481784Y-105908904D01*
X105292446Y-106005376D01*
X105292442Y-106005378D01*
X105238282Y-106044728D01*
X105870591Y-106677037D01*
X105807007Y-106694075D01*
X105692993Y-106759901D01*
X105599901Y-106852993D01*
X105534075Y-106967007D01*
X105517037Y-107030591D01*
X104884728Y-106398282D01*
X104845378Y-106452442D01*
X104845376Y-106452446D01*
X104748904Y-106641784D01*
X104683240Y-106843878D01*
X104650000Y-107053749D01*
X104650000Y-107266250D01*
X104683240Y-107476121D01*
X104748904Y-107678215D01*
X104845376Y-107867553D01*
X104845380Y-107867559D01*
X104884728Y-107921716D01*
X104884729Y-107921716D01*
X105517037Y-107289407D01*
X105534075Y-107352993D01*
X105599901Y-107467007D01*
X105692993Y-107560099D01*
X105807007Y-107625925D01*
X105870589Y-107642962D01*
X105238282Y-108275269D01*
X105238282Y-108275270D01*
X105292440Y-108314619D01*
X105292446Y-108314623D01*
X105481784Y-108411095D01*
X105683878Y-108476759D01*
X105893750Y-108510000D01*
X106106250Y-108510000D01*
X106316121Y-108476759D01*
X106518215Y-108411095D01*
X106707556Y-108314620D01*
X106761716Y-108275270D01*
X106129408Y-107642962D01*
X106192993Y-107625925D01*
X106307007Y-107560099D01*
X106400099Y-107467007D01*
X106465925Y-107352993D01*
X106482962Y-107289408D01*
X107115270Y-107921716D01*
X107154620Y-107867556D01*
X107251095Y-107678215D01*
X107316759Y-107476121D01*
X107350000Y-107266250D01*
X107350000Y-107053749D01*
X107316759Y-106843878D01*
X107251095Y-106641784D01*
X107154623Y-106452446D01*
X107154619Y-106452440D01*
X107115270Y-106398282D01*
X107115269Y-106398282D01*
X106482962Y-107030589D01*
X106465925Y-106967007D01*
X106400099Y-106852993D01*
X106307007Y-106759901D01*
X106192993Y-106694075D01*
X106129407Y-106677037D01*
X106761716Y-106044729D01*
X106761716Y-106044728D01*
X106707559Y-106005380D01*
X106707553Y-106005376D01*
X106518215Y-105908904D01*
X106316122Y-105843241D01*
X106261822Y-105834640D01*
X106207306Y-105806862D01*
X106179529Y-105752345D01*
X106189101Y-105691913D01*
X106232366Y-105648649D01*
X106257993Y-105639762D01*
X106306420Y-105630130D01*
X106497598Y-105550941D01*
X106669655Y-105435977D01*
X106815977Y-105289655D01*
X106930941Y-105117598D01*
X107010130Y-104926420D01*
X107050500Y-104723465D01*
X107050500Y-104516535D01*
X107010130Y-104313580D01*
X106964157Y-104202594D01*
X106959357Y-104141601D01*
X106985616Y-104094709D01*
X108722365Y-102357962D01*
X108722367Y-102357957D01*
X108722369Y-102357956D01*
X108747705Y-102314072D01*
X108747706Y-102314069D01*
X108747707Y-102314067D01*
X108765218Y-102283738D01*
X108787400Y-102200953D01*
X108787400Y-62446902D01*
X108806307Y-62388711D01*
X108826133Y-62368360D01*
X108830611Y-62364923D01*
X108830611Y-62364922D01*
X108830616Y-62364920D01*
X108942420Y-62253116D01*
X109021477Y-62116184D01*
X109062400Y-61963457D01*
X109062400Y-61805343D01*
X109021477Y-61652616D01*
X108942420Y-61515684D01*
X108830616Y-61403880D01*
X108693684Y-61324823D01*
X108540957Y-61283900D01*
X108382843Y-61283900D01*
X108230116Y-61324823D01*
X108093184Y-61403880D01*
X107981380Y-61515684D01*
X107902323Y-61652616D01*
X107861400Y-61805343D01*
X107861400Y-61963457D01*
X107902323Y-62116184D01*
X107981380Y-62253116D01*
X108093184Y-62364920D01*
X108093186Y-62364921D01*
X108093188Y-62364923D01*
X108097667Y-62368360D01*
X108132323Y-62418784D01*
X108136400Y-62446902D01*
X108136400Y-101982264D01*
X108117493Y-102040455D01*
X108107404Y-102052268D01*
X107626404Y-102533268D01*
X107571887Y-102561045D01*
X107511455Y-102551474D01*
X107468190Y-102508209D01*
X107457400Y-102463264D01*
X107457400Y-100629048D01*
X107447071Y-100590499D01*
X107435218Y-100546262D01*
X107392365Y-100472038D01*
X107391268Y-100470941D01*
X107331762Y-100411434D01*
X107331762Y-100411435D01*
X106985619Y-100065292D01*
X106957842Y-100010775D01*
X106964159Y-99957402D01*
X106975602Y-99929776D01*
X107010130Y-99846420D01*
X107050500Y-99643465D01*
X107050500Y-99436535D01*
X107010130Y-99233580D01*
X106930941Y-99042402D01*
X106815977Y-98870345D01*
X106669655Y-98724023D01*
X106497598Y-98609059D01*
X106497599Y-98609059D01*
X106497597Y-98609058D01*
X106306418Y-98529869D01*
X106103467Y-98489500D01*
X106103465Y-98489500D01*
X105896535Y-98489500D01*
X105896532Y-98489500D01*
X105693581Y-98529869D01*
X105502402Y-98609058D01*
X105330348Y-98724020D01*
X105184020Y-98870348D01*
X105069058Y-99042402D01*
X104989869Y-99233581D01*
X104949500Y-99436532D01*
X104949500Y-99643467D01*
X104989869Y-99846418D01*
X105069058Y-100037597D01*
X105069059Y-100037598D01*
X105184023Y-100209655D01*
X105330345Y-100355977D01*
X105502402Y-100470941D01*
X105693580Y-100550130D01*
X105896535Y-100590500D01*
X105896536Y-100590500D01*
X106103464Y-100590500D01*
X106103465Y-100590500D01*
X106306420Y-100550130D01*
X106417402Y-100504158D01*
X106478399Y-100499358D01*
X106525292Y-100525619D01*
X106777404Y-100777731D01*
X106805181Y-100832248D01*
X106806400Y-100847735D01*
X106806400Y-101170176D01*
X106787493Y-101228367D01*
X106737993Y-101264331D01*
X106676807Y-101264331D01*
X106652399Y-101252492D01*
X106497597Y-101149058D01*
X106306418Y-101069869D01*
X106103467Y-101029500D01*
X106103465Y-101029500D01*
X105896535Y-101029500D01*
X105896532Y-101029500D01*
X105693581Y-101069869D01*
X105502402Y-101149058D01*
X105330348Y-101264020D01*
X105184020Y-101410348D01*
X105069058Y-101582402D01*
X105023087Y-101693386D01*
X104983350Y-101739912D01*
X104931623Y-101754500D01*
X98125834Y-101754500D01*
X98067643Y-101735593D01*
X98055830Y-101725504D01*
X94549830Y-98219504D01*
X94522053Y-98164987D01*
X94531624Y-98104555D01*
X94574889Y-98061290D01*
X94619834Y-98050500D01*
X95869747Y-98050500D01*
X95869748Y-98050500D01*
X95928231Y-98038867D01*
X95994552Y-97994552D01*
X96038867Y-97928231D01*
X96050500Y-97869748D01*
X96050500Y-96896532D01*
X96489500Y-96896532D01*
X96489500Y-97103467D01*
X96529869Y-97306418D01*
X96609058Y-97497597D01*
X96609059Y-97497598D01*
X96724023Y-97669655D01*
X96870345Y-97815977D01*
X97042402Y-97930941D01*
X97233580Y-98010130D01*
X97436535Y-98050500D01*
X97436536Y-98050500D01*
X97643464Y-98050500D01*
X97643465Y-98050500D01*
X97846420Y-98010130D01*
X98037598Y-97930941D01*
X98209655Y-97815977D01*
X98355977Y-97669655D01*
X98470941Y-97497598D01*
X98550130Y-97306420D01*
X98590500Y-97103465D01*
X98590500Y-96896535D01*
X98590499Y-96896532D01*
X99029500Y-96896532D01*
X99029500Y-97103467D01*
X99069869Y-97306418D01*
X99149058Y-97497597D01*
X99149059Y-97497598D01*
X99264023Y-97669655D01*
X99410345Y-97815977D01*
X99582402Y-97930941D01*
X99773580Y-98010130D01*
X99976535Y-98050500D01*
X99976536Y-98050500D01*
X100183464Y-98050500D01*
X100183465Y-98050500D01*
X100386420Y-98010130D01*
X100577598Y-97930941D01*
X100749655Y-97815977D01*
X100895977Y-97669655D01*
X101010941Y-97497598D01*
X101090130Y-97306420D01*
X101130500Y-97103465D01*
X101130500Y-96896535D01*
X101090130Y-96693580D01*
X101010941Y-96502402D01*
X100895977Y-96330345D01*
X100749655Y-96184023D01*
X100669182Y-96130253D01*
X100577597Y-96069058D01*
X100442413Y-96013063D01*
X100386420Y-95989870D01*
X100386418Y-95989869D01*
X100386417Y-95989869D01*
X100386411Y-95989867D01*
X100337285Y-95980095D01*
X100283901Y-95950198D01*
X100258286Y-95894633D01*
X100257600Y-95882998D01*
X100257600Y-74593749D01*
X104650000Y-74593749D01*
X104650000Y-74806250D01*
X104683240Y-75016121D01*
X104748904Y-75218215D01*
X104845376Y-75407553D01*
X104845380Y-75407559D01*
X104884728Y-75461716D01*
X104884729Y-75461716D01*
X105517037Y-74829407D01*
X105534075Y-74892993D01*
X105599901Y-75007007D01*
X105692993Y-75100099D01*
X105807007Y-75165925D01*
X105870590Y-75182962D01*
X105238282Y-75815269D01*
X105238282Y-75815270D01*
X105292440Y-75854619D01*
X105292446Y-75854623D01*
X105481784Y-75951095D01*
X105683878Y-76016759D01*
X105893750Y-76050000D01*
X106106250Y-76050000D01*
X106316121Y-76016759D01*
X106518215Y-75951095D01*
X106657255Y-75880251D01*
X106717687Y-75870680D01*
X106772204Y-75898457D01*
X106799981Y-75952974D01*
X106801200Y-75968461D01*
X106801200Y-80633197D01*
X106782293Y-80691388D01*
X106762472Y-80711736D01*
X106757987Y-80715177D01*
X106757984Y-80715180D01*
X106646180Y-80826984D01*
X106567123Y-80963916D01*
X106526200Y-81116643D01*
X106526200Y-81274757D01*
X106567123Y-81427484D01*
X106646180Y-81564416D01*
X106757984Y-81676220D01*
X106757986Y-81676221D01*
X106757988Y-81676223D01*
X106762467Y-81679660D01*
X106797123Y-81730084D01*
X106801200Y-81758202D01*
X106801200Y-94570765D01*
X106782293Y-94628956D01*
X106772204Y-94640769D01*
X105739531Y-95673442D01*
X105696682Y-95747660D01*
X105696681Y-95747660D01*
X105696682Y-95747661D01*
X105674500Y-95830447D01*
X105674500Y-95850500D01*
X105655593Y-95908691D01*
X105606093Y-95944655D01*
X105575500Y-95949500D01*
X105130252Y-95949500D01*
X105130251Y-95949500D01*
X105130241Y-95949501D01*
X105071772Y-95961132D01*
X105071766Y-95961134D01*
X105005451Y-96005445D01*
X105005445Y-96005451D01*
X104961134Y-96071766D01*
X104961132Y-96071772D01*
X104949501Y-96130241D01*
X104949500Y-96130253D01*
X104949500Y-97869746D01*
X104949501Y-97869758D01*
X104961132Y-97928227D01*
X104961134Y-97928233D01*
X105005445Y-97994548D01*
X105005448Y-97994552D01*
X105071769Y-98038867D01*
X105116231Y-98047711D01*
X105130241Y-98050498D01*
X105130246Y-98050498D01*
X105130252Y-98050500D01*
X105130253Y-98050500D01*
X106869747Y-98050500D01*
X106869748Y-98050500D01*
X106928231Y-98038867D01*
X106994552Y-97994552D01*
X107038867Y-97928231D01*
X107050500Y-97869748D01*
X107050500Y-96130252D01*
X107038867Y-96071769D01*
X106994552Y-96005448D01*
X106994548Y-96005445D01*
X106928233Y-95961134D01*
X106928231Y-95961133D01*
X106928228Y-95961132D01*
X106928227Y-95961132D01*
X106869758Y-95949501D01*
X106869748Y-95949500D01*
X106869747Y-95949500D01*
X106623135Y-95949500D01*
X106564944Y-95930593D01*
X106528980Y-95881093D01*
X106528980Y-95819907D01*
X106553131Y-95780496D01*
X106660189Y-95673438D01*
X107387165Y-94946462D01*
X107430017Y-94872239D01*
X107430018Y-94872238D01*
X107452200Y-94789453D01*
X107452200Y-81758202D01*
X107471107Y-81700011D01*
X107490933Y-81679660D01*
X107495411Y-81676223D01*
X107495411Y-81676222D01*
X107495416Y-81676220D01*
X107607220Y-81564416D01*
X107686277Y-81427484D01*
X107727200Y-81274757D01*
X107727200Y-81116643D01*
X107686277Y-80963916D01*
X107607220Y-80826984D01*
X107495416Y-80715180D01*
X107495413Y-80715178D01*
X107495412Y-80715177D01*
X107490928Y-80711736D01*
X107456275Y-80661309D01*
X107452200Y-80633197D01*
X107452200Y-63928848D01*
X107436525Y-63870348D01*
X107430018Y-63846062D01*
X107387165Y-63771838D01*
X107387162Y-63771835D01*
X107326562Y-63711234D01*
X107326562Y-63711235D01*
X106830627Y-63215300D01*
X106802850Y-63160783D01*
X106812421Y-63100351D01*
X106855686Y-63057086D01*
X106881311Y-63048199D01*
X106928231Y-63038867D01*
X106994552Y-62994552D01*
X107038867Y-62928231D01*
X107050500Y-62869748D01*
X107050500Y-61130252D01*
X107038867Y-61071769D01*
X106994552Y-61005448D01*
X106994548Y-61005445D01*
X106928233Y-60961134D01*
X106928231Y-60961133D01*
X106928228Y-60961132D01*
X106928227Y-60961132D01*
X106869758Y-60949501D01*
X106869748Y-60949500D01*
X105130252Y-60949500D01*
X105130251Y-60949500D01*
X105130241Y-60949501D01*
X105071772Y-60961132D01*
X105071766Y-60961134D01*
X105005451Y-61005445D01*
X105005445Y-61005451D01*
X104961134Y-61071766D01*
X104961132Y-61071772D01*
X104949501Y-61130241D01*
X104949500Y-61130253D01*
X104949500Y-62869746D01*
X104949501Y-62869758D01*
X104951973Y-62882183D01*
X104961133Y-62928231D01*
X105005448Y-62994552D01*
X105071769Y-63038867D01*
X105116231Y-63047711D01*
X105130241Y-63050498D01*
X105130246Y-63050498D01*
X105130252Y-63050500D01*
X105575500Y-63050500D01*
X105633691Y-63069407D01*
X105669655Y-63118907D01*
X105674500Y-63149500D01*
X105674500Y-63169553D01*
X105696682Y-63252338D01*
X105739535Y-63326562D01*
X105770521Y-63357548D01*
X105798297Y-63412063D01*
X105788726Y-63472495D01*
X105745461Y-63515760D01*
X105719832Y-63524647D01*
X105693587Y-63529868D01*
X105693582Y-63529869D01*
X105502402Y-63609058D01*
X105330348Y-63724020D01*
X105184020Y-63870348D01*
X105069058Y-64042402D01*
X104989869Y-64233581D01*
X104949500Y-64436532D01*
X104949500Y-64643467D01*
X104989869Y-64846418D01*
X105069058Y-65037597D01*
X105069059Y-65037598D01*
X105184023Y-65209655D01*
X105330345Y-65355977D01*
X105502402Y-65470941D01*
X105693580Y-65550130D01*
X105896535Y-65590500D01*
X105896536Y-65590500D01*
X106103464Y-65590500D01*
X106103465Y-65590500D01*
X106306420Y-65550130D01*
X106497598Y-65470941D01*
X106647200Y-65370980D01*
X106706087Y-65354373D01*
X106763490Y-65375551D01*
X106797483Y-65426425D01*
X106801200Y-65453297D01*
X106801200Y-66166702D01*
X106782293Y-66224893D01*
X106732793Y-66260857D01*
X106671607Y-66260857D01*
X106647199Y-66249018D01*
X106497597Y-66149058D01*
X106306418Y-66069869D01*
X106103467Y-66029500D01*
X106103465Y-66029500D01*
X105896535Y-66029500D01*
X105896532Y-66029500D01*
X105693581Y-66069869D01*
X105502402Y-66149058D01*
X105330348Y-66264020D01*
X105184020Y-66410348D01*
X105069058Y-66582402D01*
X104989869Y-66773581D01*
X104949500Y-66976532D01*
X104949500Y-67183467D01*
X104989869Y-67386418D01*
X105069058Y-67577597D01*
X105177381Y-67739715D01*
X105184023Y-67749655D01*
X105330345Y-67895977D01*
X105502402Y-68010941D01*
X105693580Y-68090130D01*
X105896535Y-68130500D01*
X105896536Y-68130500D01*
X106103464Y-68130500D01*
X106103465Y-68130500D01*
X106306420Y-68090130D01*
X106497598Y-68010941D01*
X106647200Y-67910980D01*
X106706087Y-67894373D01*
X106763490Y-67915551D01*
X106797483Y-67966425D01*
X106801200Y-67993297D01*
X106801200Y-68706702D01*
X106782293Y-68764893D01*
X106732793Y-68800857D01*
X106671607Y-68800857D01*
X106647199Y-68789018D01*
X106497597Y-68689058D01*
X106306418Y-68609869D01*
X106103467Y-68569500D01*
X106103465Y-68569500D01*
X105896535Y-68569500D01*
X105896532Y-68569500D01*
X105693581Y-68609869D01*
X105502402Y-68689058D01*
X105330348Y-68804020D01*
X105184020Y-68950348D01*
X105069058Y-69122402D01*
X104989869Y-69313581D01*
X104949500Y-69516532D01*
X104949500Y-69723467D01*
X104989869Y-69926418D01*
X105069058Y-70117597D01*
X105114717Y-70185931D01*
X105184023Y-70289655D01*
X105330345Y-70435977D01*
X105502402Y-70550941D01*
X105693580Y-70630130D01*
X105896535Y-70670500D01*
X105896536Y-70670500D01*
X106103464Y-70670500D01*
X106103465Y-70670500D01*
X106306420Y-70630130D01*
X106497598Y-70550941D01*
X106647200Y-70450980D01*
X106706087Y-70434373D01*
X106763490Y-70455551D01*
X106797483Y-70506425D01*
X106801200Y-70533297D01*
X106801200Y-71246702D01*
X106782293Y-71304893D01*
X106732793Y-71340857D01*
X106671607Y-71340857D01*
X106647199Y-71329018D01*
X106497597Y-71229058D01*
X106306418Y-71149869D01*
X106103467Y-71109500D01*
X106103465Y-71109500D01*
X105896535Y-71109500D01*
X105896532Y-71109500D01*
X105693581Y-71149869D01*
X105502402Y-71229058D01*
X105330348Y-71344020D01*
X105184020Y-71490348D01*
X105069058Y-71662402D01*
X104989869Y-71853581D01*
X104949500Y-72056532D01*
X104949500Y-72263467D01*
X104989869Y-72466418D01*
X105069058Y-72657597D01*
X105171654Y-72811144D01*
X105184023Y-72829655D01*
X105330345Y-72975977D01*
X105502402Y-73090941D01*
X105693580Y-73170130D01*
X105742003Y-73179762D01*
X105795386Y-73209657D01*
X105821003Y-73265221D01*
X105809067Y-73325231D01*
X105764138Y-73366765D01*
X105738177Y-73374640D01*
X105683877Y-73383241D01*
X105481784Y-73448904D01*
X105292446Y-73545376D01*
X105292442Y-73545378D01*
X105238282Y-73584728D01*
X105870591Y-74217037D01*
X105807007Y-74234075D01*
X105692993Y-74299901D01*
X105599901Y-74392993D01*
X105534075Y-74507007D01*
X105517037Y-74570591D01*
X104884728Y-73938282D01*
X104845378Y-73992442D01*
X104845376Y-73992446D01*
X104748904Y-74181784D01*
X104683240Y-74383878D01*
X104650000Y-74593749D01*
X100257600Y-74593749D01*
X100257600Y-47370433D01*
X100276507Y-47312242D01*
X100286590Y-47300435D01*
X103199859Y-44387166D01*
X103199862Y-44387165D01*
X103260465Y-44326562D01*
X103281891Y-44289450D01*
X103303318Y-44252339D01*
X103325500Y-44169553D01*
X103325500Y-44134962D01*
X103329681Y-44121035D01*
X103339225Y-44107255D01*
X103344407Y-44091309D01*
X103356213Y-44082730D01*
X103364521Y-44070738D01*
X103380342Y-44065200D01*
X103393907Y-44055345D01*
X103420559Y-44051124D01*
X103422271Y-44050525D01*
X103422986Y-44050739D01*
X103424500Y-44050500D01*
X103869747Y-44050500D01*
X103869748Y-44050500D01*
X103928231Y-44038867D01*
X103994552Y-43994552D01*
X104038867Y-43928231D01*
X104050500Y-43869748D01*
X104050500Y-43409543D01*
X104069407Y-43351352D01*
X104118907Y-43315388D01*
X104180093Y-43315388D01*
X104229593Y-43351352D01*
X104243655Y-43378951D01*
X104288903Y-43518213D01*
X104385376Y-43707553D01*
X104385380Y-43707559D01*
X104424728Y-43761716D01*
X104424729Y-43761716D01*
X105057037Y-43129407D01*
X105074075Y-43192993D01*
X105139901Y-43307007D01*
X105232993Y-43400099D01*
X105347007Y-43465925D01*
X105410589Y-43482962D01*
X104778282Y-44115269D01*
X104778282Y-44115270D01*
X104832440Y-44154619D01*
X104832446Y-44154623D01*
X105021784Y-44251095D01*
X105223878Y-44316759D01*
X105433750Y-44350000D01*
X105646250Y-44350000D01*
X105856121Y-44316759D01*
X106058215Y-44251095D01*
X106247556Y-44154620D01*
X106301716Y-44115270D01*
X105669408Y-43482962D01*
X105732993Y-43465925D01*
X105847007Y-43400099D01*
X105940099Y-43307007D01*
X106005925Y-43192993D01*
X106022962Y-43129408D01*
X106655270Y-43761716D01*
X106694620Y-43707556D01*
X106791095Y-43518215D01*
X106856759Y-43316121D01*
X106890000Y-43106250D01*
X106890000Y-42893749D01*
X106856759Y-42683878D01*
X106791095Y-42481784D01*
X106694623Y-42292446D01*
X106694619Y-42292440D01*
X106655270Y-42238282D01*
X106655269Y-42238282D01*
X106022962Y-42870589D01*
X106005925Y-42807007D01*
X105940099Y-42692993D01*
X105847007Y-42599901D01*
X105732993Y-42534075D01*
X105669407Y-42517037D01*
X106301716Y-41884729D01*
X106301716Y-41884728D01*
X106247559Y-41845380D01*
X106247553Y-41845376D01*
X106058215Y-41748904D01*
X105856121Y-41683240D01*
X105646250Y-41650000D01*
X105433750Y-41650000D01*
X105223878Y-41683240D01*
X105021784Y-41748904D01*
X104832446Y-41845376D01*
X104832442Y-41845378D01*
X104778282Y-41884728D01*
X105410591Y-42517037D01*
X105347007Y-42534075D01*
X105232993Y-42599901D01*
X105139901Y-42692993D01*
X105074075Y-42807007D01*
X105057037Y-42870591D01*
X104424728Y-42238282D01*
X104385378Y-42292442D01*
X104385376Y-42292446D01*
X104288904Y-42481784D01*
X104243655Y-42621049D01*
X104207691Y-42670549D01*
X104149500Y-42689456D01*
X104091309Y-42670549D01*
X104055345Y-42621049D01*
X104050500Y-42590456D01*
X104050500Y-42130253D01*
X104050498Y-42130241D01*
X104043910Y-42097123D01*
X104038867Y-42071769D01*
X103994552Y-42005448D01*
X103993542Y-42004773D01*
X103928233Y-41961134D01*
X103928231Y-41961133D01*
X103928228Y-41961132D01*
X103928227Y-41961132D01*
X103869758Y-41949501D01*
X103869748Y-41949500D01*
X102130252Y-41949500D01*
X102130251Y-41949500D01*
X102130241Y-41949501D01*
X102071772Y-41961132D01*
X102071766Y-41961134D01*
X102005451Y-42005445D01*
X102005445Y-42005451D01*
X101961134Y-42071766D01*
X101961132Y-42071772D01*
X101949501Y-42130241D01*
X101949500Y-42130253D01*
X101949500Y-43869746D01*
X101949501Y-43869758D01*
X101961132Y-43928227D01*
X101961133Y-43928231D01*
X102005448Y-43994552D01*
X102071769Y-44038867D01*
X102116231Y-44047711D01*
X102130241Y-44050498D01*
X102130246Y-44050498D01*
X102130252Y-44050500D01*
X102376866Y-44050500D01*
X102435057Y-44069407D01*
X102471021Y-44118907D01*
X102471021Y-44180093D01*
X102446870Y-44219503D01*
X100980443Y-45685930D01*
X99671632Y-46994741D01*
X99671631Y-46994742D01*
X99628782Y-47068960D01*
X99628781Y-47068960D01*
X99628782Y-47068961D01*
X99606600Y-47151747D01*
X99606600Y-95999973D01*
X99587693Y-96058164D01*
X99562601Y-96082289D01*
X99410348Y-96184020D01*
X99264020Y-96330348D01*
X99149058Y-96502402D01*
X99069869Y-96693581D01*
X99029500Y-96896532D01*
X98590499Y-96896532D01*
X98550130Y-96693580D01*
X98470941Y-96502402D01*
X98355977Y-96330345D01*
X98209655Y-96184023D01*
X98129182Y-96130253D01*
X98037597Y-96069058D01*
X97846418Y-95989869D01*
X97643467Y-95949500D01*
X97643465Y-95949500D01*
X97436535Y-95949500D01*
X97436532Y-95949500D01*
X97233581Y-95989869D01*
X97042402Y-96069058D01*
X96870348Y-96184020D01*
X96724020Y-96330348D01*
X96609058Y-96502402D01*
X96529869Y-96693581D01*
X96489500Y-96896532D01*
X96050500Y-96896532D01*
X96050500Y-96130252D01*
X96038867Y-96071769D01*
X95994552Y-96005448D01*
X95994548Y-96005445D01*
X95928233Y-95961134D01*
X95928231Y-95961133D01*
X95928228Y-95961132D01*
X95928227Y-95961132D01*
X95869758Y-95949501D01*
X95869748Y-95949500D01*
X95869747Y-95949500D01*
X95424500Y-95949500D01*
X95366309Y-95930593D01*
X95330345Y-95881093D01*
X95325500Y-95850500D01*
X95325500Y-81917934D01*
X95344407Y-81859743D01*
X95354490Y-81847936D01*
X97187665Y-80014762D01*
X97230517Y-79940539D01*
X97230518Y-79940538D01*
X97252700Y-79857753D01*
X97252700Y-43219202D01*
X97271607Y-43161011D01*
X97291433Y-43140660D01*
X97295911Y-43137223D01*
X97295911Y-43137222D01*
X97295916Y-43137220D01*
X97407720Y-43025416D01*
X97486777Y-42888484D01*
X97527700Y-42735757D01*
X97527700Y-42577643D01*
X97486777Y-42424916D01*
X97407720Y-42287984D01*
X97295916Y-42176180D01*
X97158984Y-42097123D01*
X97006257Y-42056200D01*
X96848143Y-42056200D01*
X96695416Y-42097123D01*
X96558484Y-42176180D01*
X96446680Y-42287984D01*
X96367623Y-42424916D01*
X96326700Y-42577643D01*
X96326700Y-42735757D01*
X96367623Y-42888484D01*
X96446680Y-43025416D01*
X96558484Y-43137220D01*
X96558486Y-43137221D01*
X96558488Y-43137223D01*
X96562967Y-43140660D01*
X96597623Y-43191084D01*
X96601700Y-43219202D01*
X96601700Y-79639065D01*
X96582793Y-79697256D01*
X96572704Y-79709069D01*
X94739531Y-81542242D01*
X94696682Y-81616460D01*
X94696681Y-81616460D01*
X94696682Y-81616461D01*
X94674500Y-81699247D01*
X94674500Y-95850500D01*
X94655593Y-95908691D01*
X94606093Y-95944655D01*
X94575500Y-95949500D01*
X94130252Y-95949500D01*
X94130251Y-95949500D01*
X94130241Y-95949501D01*
X94071772Y-95961132D01*
X94071766Y-95961134D01*
X94005451Y-96005445D01*
X94005445Y-96005451D01*
X93961134Y-96071766D01*
X93961132Y-96071772D01*
X93949501Y-96130241D01*
X93949500Y-96130253D01*
X93949500Y-97380165D01*
X93930593Y-97438356D01*
X93881093Y-97474320D01*
X93819907Y-97474320D01*
X93780496Y-97450169D01*
X88059996Y-91729669D01*
X88032219Y-91675152D01*
X88031000Y-91659665D01*
X88031000Y-66640395D01*
X88049907Y-66582204D01*
X88099407Y-66546240D01*
X88160593Y-66546240D01*
X88179499Y-66554658D01*
X88190616Y-66561077D01*
X88343343Y-66602000D01*
X88343345Y-66602000D01*
X88501455Y-66602000D01*
X88501457Y-66602000D01*
X88654184Y-66561077D01*
X88791116Y-66482020D01*
X88902920Y-66370216D01*
X88981977Y-66233284D01*
X89022900Y-66080557D01*
X89022900Y-65922443D01*
X88981977Y-65769716D01*
X88902920Y-65632784D01*
X88791116Y-65520980D01*
X88654184Y-65441923D01*
X88501457Y-65401000D01*
X88343343Y-65401000D01*
X88241525Y-65428282D01*
X88190615Y-65441923D01*
X88179498Y-65448342D01*
X88119649Y-65461061D01*
X88063754Y-65436174D01*
X88033163Y-65383185D01*
X88031000Y-65362604D01*
X88031000Y-55076602D01*
X88049907Y-55018411D01*
X88069733Y-54998060D01*
X88074211Y-54994623D01*
X88074211Y-54994622D01*
X88074216Y-54994620D01*
X88186020Y-54882816D01*
X88265077Y-54745884D01*
X88306000Y-54593157D01*
X88306000Y-54435043D01*
X88265077Y-54282316D01*
X88186020Y-54145384D01*
X88074216Y-54033580D01*
X87937284Y-53954523D01*
X87784557Y-53913600D01*
X87626443Y-53913600D01*
X87473716Y-53954523D01*
X87336784Y-54033580D01*
X87224980Y-54145384D01*
X87145923Y-54282316D01*
X87105000Y-54435043D01*
X87105000Y-54593157D01*
X87145923Y-54745884D01*
X87224980Y-54882816D01*
X87336784Y-54994620D01*
X87336786Y-54994621D01*
X87336788Y-54994623D01*
X87341267Y-54998060D01*
X87375923Y-55048484D01*
X87380000Y-55076602D01*
X87380000Y-91419865D01*
X87361093Y-91478056D01*
X87311593Y-91514020D01*
X87250407Y-91514020D01*
X87210996Y-91489869D01*
X84383196Y-88662069D01*
X84355419Y-88607552D01*
X84354200Y-88592065D01*
X84354200Y-61419355D01*
X84373107Y-61361164D01*
X84422607Y-61325200D01*
X84483793Y-61325200D01*
X84502700Y-61333619D01*
X84505665Y-61335331D01*
X84518216Y-61342577D01*
X84670943Y-61383500D01*
X84670945Y-61383500D01*
X84829055Y-61383500D01*
X84829057Y-61383500D01*
X84981784Y-61342577D01*
X85118716Y-61263520D01*
X85230520Y-61151716D01*
X85309577Y-61014784D01*
X85350500Y-60862057D01*
X85350500Y-60703943D01*
X85309577Y-60551216D01*
X85230520Y-60414284D01*
X85118716Y-60302480D01*
X84981784Y-60223423D01*
X84829057Y-60182500D01*
X84670943Y-60182500D01*
X84518216Y-60223423D01*
X84518214Y-60223424D01*
X84518213Y-60223424D01*
X84502697Y-60232382D01*
X84442849Y-60245101D01*
X84386954Y-60220213D01*
X84356363Y-60167224D01*
X84354200Y-60146644D01*
X84354200Y-58806733D01*
X84373107Y-58748542D01*
X84383190Y-58736736D01*
X84739015Y-58380910D01*
X84793530Y-58353134D01*
X84821941Y-58352762D01*
X84827540Y-58353499D01*
X84827543Y-58353500D01*
X84827546Y-58353500D01*
X84985655Y-58353500D01*
X84985657Y-58353500D01*
X85138384Y-58312577D01*
X85275316Y-58233520D01*
X85387120Y-58121716D01*
X85466177Y-57984784D01*
X85507100Y-57832057D01*
X85507100Y-57673943D01*
X85466177Y-57521216D01*
X85387120Y-57384284D01*
X85275316Y-57272480D01*
X85138384Y-57193423D01*
X84985657Y-57152500D01*
X84827543Y-57152500D01*
X84674816Y-57193423D01*
X84537884Y-57272480D01*
X84426080Y-57384284D01*
X84347023Y-57521216D01*
X84333699Y-57570944D01*
X84306100Y-57673944D01*
X84306100Y-57832059D01*
X84306837Y-57837658D01*
X84295686Y-57897819D01*
X84278688Y-57920582D01*
X83768235Y-58431037D01*
X83768231Y-58431042D01*
X83725382Y-58505260D01*
X83725381Y-58505260D01*
X83725382Y-58505261D01*
X83725382Y-58505262D01*
X83703200Y-58588047D01*
X75805617Y-58588047D01*
X75784977Y-58511016D01*
X75705920Y-58374084D01*
X75594116Y-58262280D01*
X75457184Y-58183223D01*
X75304457Y-58142300D01*
X75146343Y-58142300D01*
X74993616Y-58183223D01*
X74856684Y-58262280D01*
X74744880Y-58374084D01*
X74665823Y-58511016D01*
X74624900Y-58663743D01*
X47440500Y-58663743D01*
X47440500Y-57930817D01*
X54974500Y-57930817D01*
X54974500Y-58069183D01*
X55010312Y-58202836D01*
X55079495Y-58322665D01*
X55177335Y-58420505D01*
X55297164Y-58489688D01*
X55430817Y-58525500D01*
X55430819Y-58525500D01*
X55569181Y-58525500D01*
X55569183Y-58525500D01*
X55702836Y-58489688D01*
X55822665Y-58420505D01*
X55920505Y-58322665D01*
X55989688Y-58202836D01*
X56025500Y-58069183D01*
X56025500Y-57930817D01*
X55989688Y-57797164D01*
X55920505Y-57677335D01*
X55822665Y-57579495D01*
X55807852Y-57570943D01*
X63829300Y-57570943D01*
X63829300Y-57729057D01*
X63870223Y-57881784D01*
X63949280Y-58018716D01*
X64061084Y-58130520D01*
X64198016Y-58209577D01*
X64350743Y-58250500D01*
X64350745Y-58250500D01*
X64508855Y-58250500D01*
X64508857Y-58250500D01*
X64661584Y-58209577D01*
X64798516Y-58130520D01*
X64910320Y-58018716D01*
X64989377Y-57881784D01*
X65030300Y-57729057D01*
X65030300Y-57570943D01*
X64989377Y-57418216D01*
X64910320Y-57281284D01*
X64798516Y-57169480D01*
X64661584Y-57090423D01*
X64508857Y-57049500D01*
X64350743Y-57049500D01*
X64198016Y-57090423D01*
X64061084Y-57169480D01*
X63949280Y-57281284D01*
X63870223Y-57418216D01*
X63829300Y-57570943D01*
X55807852Y-57570943D01*
X55702836Y-57510312D01*
X55569183Y-57474500D01*
X55430817Y-57474500D01*
X55297164Y-57510312D01*
X55177335Y-57579495D01*
X55079495Y-57677335D01*
X55010312Y-57797164D01*
X54974500Y-57930817D01*
X47440500Y-57930817D01*
X47440500Y-56225343D01*
X69661700Y-56225343D01*
X69661700Y-56383457D01*
X69702623Y-56536184D01*
X69781680Y-56673116D01*
X69893484Y-56784920D01*
X70030416Y-56863977D01*
X70183143Y-56904900D01*
X70183145Y-56904900D01*
X70341255Y-56904900D01*
X70341257Y-56904900D01*
X70493984Y-56863977D01*
X70630916Y-56784920D01*
X70742720Y-56673116D01*
X70743975Y-56670943D01*
X79530900Y-56670943D01*
X79530900Y-56829057D01*
X79571823Y-56981784D01*
X79650880Y-57118716D01*
X79762684Y-57230520D01*
X79899616Y-57309577D01*
X80052343Y-57350500D01*
X80052345Y-57350500D01*
X80210455Y-57350500D01*
X80210457Y-57350500D01*
X80363184Y-57309577D01*
X80500116Y-57230520D01*
X80611920Y-57118716D01*
X80690977Y-56981784D01*
X80731900Y-56829057D01*
X80731900Y-56670943D01*
X80690977Y-56518216D01*
X80611920Y-56381284D01*
X80500116Y-56269480D01*
X80363184Y-56190423D01*
X80210457Y-56149500D01*
X80052343Y-56149500D01*
X79899616Y-56190423D01*
X79762684Y-56269480D01*
X79650880Y-56381284D01*
X79571823Y-56518216D01*
X79530900Y-56670943D01*
X70743975Y-56670943D01*
X70821777Y-56536184D01*
X70862700Y-56383457D01*
X70862700Y-56301500D01*
X70881607Y-56243309D01*
X70931107Y-56207345D01*
X70961700Y-56202500D01*
X70990355Y-56202500D01*
X70990357Y-56202500D01*
X71143084Y-56161577D01*
X71280016Y-56082520D01*
X71391820Y-55970716D01*
X71470877Y-55833784D01*
X71511800Y-55681057D01*
X71511800Y-55522943D01*
X71470877Y-55370216D01*
X71391820Y-55233284D01*
X71280016Y-55121480D01*
X71143084Y-55042423D01*
X70990357Y-55001500D01*
X70832243Y-55001500D01*
X70679516Y-55042423D01*
X70542584Y-55121480D01*
X70430780Y-55233284D01*
X70351723Y-55370216D01*
X70314659Y-55508543D01*
X70310800Y-55522944D01*
X70310800Y-55604900D01*
X70291893Y-55663091D01*
X70242393Y-55699055D01*
X70211800Y-55703900D01*
X70183143Y-55703900D01*
X70030416Y-55744823D01*
X69893484Y-55823880D01*
X69781680Y-55935684D01*
X69702623Y-56072616D01*
X69661700Y-56225343D01*
X47440500Y-56225343D01*
X47440500Y-54957043D01*
X48905600Y-54957043D01*
X48905600Y-55115157D01*
X48946523Y-55267884D01*
X49025580Y-55404816D01*
X49137384Y-55516620D01*
X49274316Y-55595677D01*
X49427043Y-55636600D01*
X49427045Y-55636600D01*
X49585155Y-55636600D01*
X49585157Y-55636600D01*
X49737884Y-55595677D01*
X49874816Y-55516620D01*
X49882893Y-55508543D01*
X63849100Y-55508543D01*
X63849100Y-55666657D01*
X63890023Y-55819384D01*
X63969080Y-55956316D01*
X64080884Y-56068120D01*
X64217816Y-56147177D01*
X64370543Y-56188100D01*
X64370545Y-56188100D01*
X64528655Y-56188100D01*
X64528657Y-56188100D01*
X64681384Y-56147177D01*
X64818316Y-56068120D01*
X64930120Y-55956316D01*
X65009177Y-55819384D01*
X65050100Y-55666657D01*
X65050100Y-55508543D01*
X65009177Y-55355816D01*
X64930120Y-55218884D01*
X64818316Y-55107080D01*
X64681384Y-55028023D01*
X64528657Y-54987100D01*
X64370543Y-54987100D01*
X64217816Y-55028023D01*
X64080884Y-55107080D01*
X63969080Y-55218884D01*
X63890023Y-55355816D01*
X63849100Y-55508543D01*
X49882893Y-55508543D01*
X49986620Y-55404816D01*
X50065677Y-55267884D01*
X50106600Y-55115157D01*
X50106600Y-54957043D01*
X50065677Y-54804316D01*
X49986620Y-54667384D01*
X49874816Y-54555580D01*
X49737884Y-54476523D01*
X49585157Y-54435600D01*
X49427043Y-54435600D01*
X49274316Y-54476523D01*
X49137384Y-54555580D01*
X49025580Y-54667384D01*
X48946523Y-54804316D01*
X48905600Y-54957043D01*
X47440500Y-54957043D01*
X47440500Y-54398400D01*
X47459407Y-54340209D01*
X47508907Y-54304245D01*
X47539500Y-54299400D01*
X47584755Y-54299400D01*
X47584757Y-54299400D01*
X47737484Y-54258477D01*
X47874416Y-54179420D01*
X47986220Y-54067616D01*
X48065277Y-53930684D01*
X48106200Y-53777957D01*
X48106200Y-53619843D01*
X48065277Y-53467116D01*
X47986220Y-53330184D01*
X47874416Y-53218380D01*
X47737484Y-53139323D01*
X47584757Y-53098400D01*
X47426643Y-53098400D01*
X47273916Y-53139323D01*
X47136984Y-53218380D01*
X47025180Y-53330184D01*
X46946123Y-53467116D01*
X46905200Y-53619844D01*
X46905200Y-53777954D01*
X46905938Y-53783562D01*
X46894785Y-53843723D01*
X46877789Y-53866483D01*
X46854536Y-53889736D01*
X46854531Y-53889742D01*
X46811684Y-53963955D01*
X46796833Y-54019380D01*
X46789500Y-54046747D01*
X46789500Y-55713559D01*
X46770593Y-55771750D01*
X46721093Y-55807714D01*
X46659907Y-55807714D01*
X46610407Y-55771750D01*
X46599037Y-55751447D01*
X46597079Y-55746721D01*
X46597077Y-55746718D01*
X46597077Y-55746716D01*
X46518020Y-55609784D01*
X46406216Y-55497980D01*
X46269284Y-55418923D01*
X46116557Y-55378000D01*
X45958443Y-55378000D01*
X45805716Y-55418923D01*
X45668784Y-55497980D01*
X45556980Y-55609784D01*
X45477923Y-55746716D01*
X45437000Y-55899443D01*
X45437000Y-56057557D01*
X45477923Y-56210284D01*
X45556980Y-56347216D01*
X45668784Y-56459020D01*
X45805716Y-56538077D01*
X45958443Y-56579000D01*
X45958445Y-56579000D01*
X46116555Y-56579000D01*
X46116557Y-56579000D01*
X46269284Y-56538077D01*
X46406216Y-56459020D01*
X46518020Y-56347216D01*
X46597077Y-56210284D01*
X46597079Y-56210278D01*
X46599036Y-56205555D01*
X46638772Y-56159029D01*
X46698267Y-56144745D01*
X46754795Y-56168160D01*
X46786765Y-56220329D01*
X46789500Y-56243440D01*
X46789500Y-63404514D01*
X46770593Y-63462705D01*
X46721093Y-63498669D01*
X46664877Y-63500141D01*
X46569183Y-63474500D01*
X46430817Y-63474500D01*
X46297164Y-63510312D01*
X46177335Y-63579495D01*
X46079495Y-63677335D01*
X46010312Y-63797164D01*
X45974500Y-63930817D01*
X45974500Y-64069183D01*
X46010312Y-64202836D01*
X46079495Y-64322665D01*
X46177335Y-64420505D01*
X46297164Y-64489688D01*
X46430817Y-64525500D01*
X46430819Y-64525500D01*
X46569181Y-64525500D01*
X46569183Y-64525500D01*
X46664880Y-64499858D01*
X46725978Y-64503060D01*
X46773528Y-64541565D01*
X46789500Y-64595485D01*
X46789500Y-81603664D01*
X46770593Y-81661855D01*
X46760504Y-81673668D01*
X38971883Y-89462288D01*
X38917366Y-89490065D01*
X38888958Y-89490437D01*
X38883359Y-89489700D01*
X38883357Y-89489700D01*
X38725243Y-89489700D01*
X38572516Y-89530623D01*
X38435584Y-89609680D01*
X38323780Y-89721484D01*
X38244723Y-89858416D01*
X38203800Y-90011143D01*
X10500000Y-90011143D01*
X10500000Y-86185930D01*
X12849500Y-86185930D01*
X12849500Y-86314069D01*
X12874499Y-86439742D01*
X12874500Y-86439747D01*
X12923534Y-86558125D01*
X12923538Y-86558133D01*
X12966365Y-86622226D01*
X12994724Y-86664669D01*
X13085331Y-86755276D01*
X13148848Y-86797717D01*
X13191866Y-86826461D01*
X13191870Y-86826463D01*
X13191873Y-86826465D01*
X13310256Y-86875501D01*
X13435931Y-86900500D01*
X13435932Y-86900500D01*
X13564068Y-86900500D01*
X13564069Y-86900500D01*
X13689744Y-86875501D01*
X13808127Y-86826465D01*
X13914669Y-86755276D01*
X14005276Y-86664669D01*
X14076465Y-86558127D01*
X14125501Y-86439744D01*
X14150500Y-86314069D01*
X14150500Y-86185931D01*
X14125501Y-86060256D01*
X14076465Y-85941873D01*
X14076463Y-85941870D01*
X14076461Y-85941866D01*
X14047717Y-85898848D01*
X14005276Y-85835331D01*
X13914669Y-85744724D01*
X13872226Y-85716365D01*
X13808133Y-85673538D01*
X13808125Y-85673534D01*
X13689747Y-85624500D01*
X13689745Y-85624499D01*
X13689744Y-85624499D01*
X13564069Y-85599500D01*
X13435931Y-85599500D01*
X13435930Y-85599500D01*
X13373093Y-85611999D01*
X13310256Y-85624499D01*
X13310255Y-85624499D01*
X13310252Y-85624500D01*
X13191874Y-85673534D01*
X13191866Y-85673538D01*
X13085331Y-85744724D01*
X13085327Y-85744727D01*
X12994727Y-85835327D01*
X12994724Y-85835331D01*
X12923538Y-85941866D01*
X12923534Y-85941874D01*
X12874500Y-86060252D01*
X12874499Y-86060257D01*
X12849500Y-86185930D01*
X10500000Y-86185930D01*
X10500000Y-83400043D01*
X30728600Y-83400043D01*
X30728600Y-83558157D01*
X30769523Y-83710884D01*
X30848580Y-83847816D01*
X30960384Y-83959620D01*
X31097316Y-84038677D01*
X31250043Y-84079600D01*
X31250045Y-84079600D01*
X31408155Y-84079600D01*
X31408157Y-84079600D01*
X31560884Y-84038677D01*
X31697816Y-83959620D01*
X31809620Y-83847816D01*
X31888677Y-83710884D01*
X31929600Y-83558157D01*
X31929600Y-83400043D01*
X31888677Y-83247316D01*
X31809620Y-83110384D01*
X31697816Y-82998580D01*
X31560884Y-82919523D01*
X31408157Y-82878600D01*
X31250043Y-82878600D01*
X31097316Y-82919523D01*
X30960384Y-82998580D01*
X30848580Y-83110384D01*
X30769523Y-83247316D01*
X30728600Y-83400043D01*
X10500000Y-83400043D01*
X10500000Y-77685930D01*
X12849500Y-77685930D01*
X12849500Y-77814069D01*
X12874499Y-77939742D01*
X12874500Y-77939747D01*
X12923534Y-78058125D01*
X12923538Y-78058133D01*
X12966365Y-78122226D01*
X12994724Y-78164669D01*
X13085331Y-78255276D01*
X13148848Y-78297717D01*
X13191866Y-78326461D01*
X13191870Y-78326463D01*
X13191873Y-78326465D01*
X13310256Y-78375501D01*
X13435931Y-78400500D01*
X13435932Y-78400500D01*
X13564068Y-78400500D01*
X13564069Y-78400500D01*
X13689744Y-78375501D01*
X13808127Y-78326465D01*
X13914669Y-78255276D01*
X14005276Y-78164669D01*
X14076465Y-78058127D01*
X14125501Y-77939744D01*
X14150500Y-77814069D01*
X14150500Y-77685931D01*
X14125501Y-77560256D01*
X14076465Y-77441873D01*
X14076463Y-77441870D01*
X14076461Y-77441866D01*
X14047717Y-77398848D01*
X14005276Y-77335331D01*
X13914669Y-77244724D01*
X13872226Y-77216365D01*
X13808133Y-77173538D01*
X13808125Y-77173534D01*
X13689747Y-77124500D01*
X13689745Y-77124499D01*
X13689744Y-77124499D01*
X13564069Y-77099500D01*
X13435931Y-77099500D01*
X13435930Y-77099500D01*
X13373093Y-77111999D01*
X13310256Y-77124499D01*
X13310255Y-77124499D01*
X13310252Y-77124500D01*
X13191874Y-77173534D01*
X13191866Y-77173538D01*
X13085331Y-77244724D01*
X13085327Y-77244727D01*
X12994727Y-77335327D01*
X12994724Y-77335331D01*
X12923538Y-77441866D01*
X12923534Y-77441874D01*
X12874500Y-77560252D01*
X12874499Y-77560257D01*
X12849500Y-77685930D01*
X10500000Y-77685930D01*
X10500000Y-70185930D01*
X12849500Y-70185930D01*
X12849500Y-70314069D01*
X12874499Y-70439742D01*
X12874500Y-70439747D01*
X12923534Y-70558125D01*
X12923538Y-70558133D01*
X12966365Y-70622226D01*
X12994724Y-70664669D01*
X13085331Y-70755276D01*
X13148848Y-70797717D01*
X13191866Y-70826461D01*
X13191870Y-70826463D01*
X13191873Y-70826465D01*
X13310256Y-70875501D01*
X13435931Y-70900500D01*
X13435932Y-70900500D01*
X13564068Y-70900500D01*
X13564069Y-70900500D01*
X13689744Y-70875501D01*
X13808127Y-70826465D01*
X13914669Y-70755276D01*
X14005276Y-70664669D01*
X14076465Y-70558127D01*
X14125501Y-70439744D01*
X14150500Y-70314069D01*
X14150500Y-70185931D01*
X14125501Y-70060256D01*
X14076465Y-69941873D01*
X14076463Y-69941870D01*
X14076461Y-69941866D01*
X14047717Y-69898848D01*
X14005276Y-69835331D01*
X13914669Y-69744724D01*
X13872226Y-69716365D01*
X13808133Y-69673538D01*
X13808125Y-69673534D01*
X13689747Y-69624500D01*
X13689745Y-69624499D01*
X13689744Y-69624499D01*
X13564069Y-69599500D01*
X13435931Y-69599500D01*
X13435930Y-69599500D01*
X13373093Y-69611999D01*
X13310256Y-69624499D01*
X13310255Y-69624499D01*
X13310252Y-69624500D01*
X13191874Y-69673534D01*
X13191866Y-69673538D01*
X13085331Y-69744724D01*
X13085327Y-69744727D01*
X12994727Y-69835327D01*
X12994724Y-69835331D01*
X12923538Y-69941866D01*
X12923534Y-69941874D01*
X12874500Y-70060252D01*
X12874499Y-70060257D01*
X12849500Y-70185930D01*
X10500000Y-70185930D01*
X10500000Y-67291943D01*
X31399500Y-67291943D01*
X31399500Y-67450057D01*
X31440423Y-67602784D01*
X31519480Y-67739716D01*
X31631284Y-67851520D01*
X31768216Y-67930577D01*
X31920943Y-67971500D01*
X31920945Y-67971500D01*
X32079055Y-67971500D01*
X32079057Y-67971500D01*
X32231784Y-67930577D01*
X32368716Y-67851520D01*
X32480520Y-67739716D01*
X32559577Y-67602784D01*
X32600500Y-67450057D01*
X32600500Y-67291943D01*
X32559577Y-67139216D01*
X32480520Y-67002284D01*
X32368716Y-66890480D01*
X32231784Y-66811423D01*
X32079057Y-66770500D01*
X31920943Y-66770500D01*
X31768216Y-66811423D01*
X31631284Y-66890480D01*
X31519480Y-67002284D01*
X31440423Y-67139216D01*
X31399500Y-67291943D01*
X10500000Y-67291943D01*
X10500000Y-61685931D01*
X12849500Y-61685931D01*
X12849500Y-61814069D01*
X12871642Y-61925383D01*
X12874499Y-61939742D01*
X12874500Y-61939747D01*
X12923534Y-62058125D01*
X12923538Y-62058133D01*
X12962327Y-62116183D01*
X12994724Y-62164669D01*
X13085331Y-62255276D01*
X13133558Y-62287500D01*
X13191866Y-62326461D01*
X13191870Y-62326463D01*
X13191873Y-62326465D01*
X13310256Y-62375501D01*
X13435931Y-62400500D01*
X13435932Y-62400500D01*
X13564068Y-62400500D01*
X13564069Y-62400500D01*
X13689744Y-62375501D01*
X13808127Y-62326465D01*
X13914669Y-62255276D01*
X14005276Y-62164669D01*
X14076465Y-62058127D01*
X14125501Y-61939744D01*
X14150500Y-61814069D01*
X14150500Y-61685931D01*
X14125501Y-61560256D01*
X14076465Y-61441873D01*
X14076463Y-61441870D01*
X14076461Y-61441866D01*
X14026110Y-61366512D01*
X14005276Y-61335331D01*
X13914669Y-61244724D01*
X13868710Y-61214015D01*
X13808133Y-61173538D01*
X13808125Y-61173534D01*
X13689747Y-61124500D01*
X13689745Y-61124499D01*
X13689744Y-61124499D01*
X13564069Y-61099500D01*
X13435931Y-61099500D01*
X13435930Y-61099500D01*
X13373093Y-61111999D01*
X13310256Y-61124499D01*
X13310255Y-61124499D01*
X13310252Y-61124500D01*
X13191874Y-61173534D01*
X13191866Y-61173538D01*
X13085331Y-61244724D01*
X13085327Y-61244727D01*
X12994727Y-61335327D01*
X12994724Y-61335331D01*
X12923538Y-61441866D01*
X12923534Y-61441874D01*
X12874500Y-61560252D01*
X12874499Y-61560255D01*
X12874499Y-61560256D01*
X12849500Y-61685931D01*
X10500000Y-61685931D01*
X10500000Y-54185930D01*
X12849500Y-54185930D01*
X12849500Y-54314069D01*
X12874499Y-54439742D01*
X12874500Y-54439747D01*
X12923534Y-54558125D01*
X12923538Y-54558133D01*
X12946941Y-54593157D01*
X12994724Y-54664669D01*
X13085331Y-54755276D01*
X13142262Y-54793316D01*
X13191866Y-54826461D01*
X13191870Y-54826463D01*
X13191873Y-54826465D01*
X13310256Y-54875501D01*
X13435931Y-54900500D01*
X13435932Y-54900500D01*
X13564068Y-54900500D01*
X13564069Y-54900500D01*
X13689744Y-54875501D01*
X13808127Y-54826465D01*
X13914669Y-54755276D01*
X14005276Y-54664669D01*
X14076465Y-54558127D01*
X14125501Y-54439744D01*
X14150500Y-54314069D01*
X14150500Y-54185931D01*
X14125501Y-54060256D01*
X14076465Y-53941873D01*
X14076463Y-53941870D01*
X14076461Y-53941866D01*
X14041632Y-53889742D01*
X14005276Y-53835331D01*
X13914669Y-53744724D01*
X13872226Y-53716365D01*
X13808133Y-53673538D01*
X13808125Y-53673534D01*
X13689747Y-53624500D01*
X13689745Y-53624499D01*
X13689744Y-53624499D01*
X13564069Y-53599500D01*
X13435931Y-53599500D01*
X13435930Y-53599500D01*
X13373093Y-53611999D01*
X13310256Y-53624499D01*
X13310255Y-53624499D01*
X13310252Y-53624500D01*
X13191874Y-53673534D01*
X13191866Y-53673538D01*
X13085331Y-53744724D01*
X13085327Y-53744727D01*
X12994727Y-53835327D01*
X12994724Y-53835331D01*
X12923538Y-53941866D01*
X12923534Y-53941874D01*
X12874500Y-54060252D01*
X12874499Y-54060255D01*
X12874499Y-54060256D01*
X12864647Y-54109785D01*
X12849500Y-54185930D01*
X10500000Y-54185930D01*
X10500000Y-51281343D01*
X31399500Y-51281343D01*
X31399500Y-51439457D01*
X31440423Y-51592184D01*
X31519480Y-51729116D01*
X31631284Y-51840920D01*
X31768216Y-51919977D01*
X31920943Y-51960900D01*
X31920945Y-51960900D01*
X32079055Y-51960900D01*
X32079057Y-51960900D01*
X32231784Y-51919977D01*
X32368716Y-51840920D01*
X32480520Y-51729116D01*
X32559577Y-51592184D01*
X32600500Y-51439457D01*
X32600500Y-51281343D01*
X32559577Y-51128616D01*
X32480520Y-50991684D01*
X32368716Y-50879880D01*
X32231784Y-50800823D01*
X32079057Y-50759900D01*
X31920943Y-50759900D01*
X31768216Y-50800823D01*
X31631284Y-50879880D01*
X31519480Y-50991684D01*
X31440423Y-51128616D01*
X31399500Y-51281343D01*
X10500000Y-51281343D01*
X10500000Y-45685930D01*
X12849500Y-45685930D01*
X12849500Y-45814069D01*
X12874499Y-45939742D01*
X12874500Y-45939747D01*
X12923534Y-46058125D01*
X12923538Y-46058133D01*
X12966365Y-46122226D01*
X12994724Y-46164669D01*
X13085331Y-46255276D01*
X13148848Y-46297717D01*
X13191866Y-46326461D01*
X13191870Y-46326463D01*
X13191873Y-46326465D01*
X13310256Y-46375501D01*
X13435931Y-46400500D01*
X13435932Y-46400500D01*
X13564068Y-46400500D01*
X13564069Y-46400500D01*
X13689744Y-46375501D01*
X13808127Y-46326465D01*
X13914669Y-46255276D01*
X14005276Y-46164669D01*
X14076465Y-46058127D01*
X14125501Y-45939744D01*
X14150500Y-45814069D01*
X14150500Y-45685931D01*
X14125501Y-45560256D01*
X14076465Y-45441873D01*
X14076463Y-45441870D01*
X14076461Y-45441866D01*
X14047717Y-45398848D01*
X14005276Y-45335331D01*
X13914669Y-45244724D01*
X13872226Y-45216365D01*
X13808133Y-45173538D01*
X13808125Y-45173534D01*
X13689747Y-45124500D01*
X13689745Y-45124499D01*
X13689744Y-45124499D01*
X13564069Y-45099500D01*
X13435931Y-45099500D01*
X13435930Y-45099500D01*
X13373093Y-45111999D01*
X13310256Y-45124499D01*
X13310255Y-45124499D01*
X13310252Y-45124500D01*
X13191874Y-45173534D01*
X13191866Y-45173538D01*
X13085331Y-45244724D01*
X13085327Y-45244727D01*
X12994727Y-45335327D01*
X12994724Y-45335331D01*
X12923538Y-45441866D01*
X12923534Y-45441874D01*
X12874500Y-45560252D01*
X12874499Y-45560257D01*
X12849500Y-45685930D01*
X10500000Y-45685930D01*
X10500000Y-38185930D01*
X12849500Y-38185930D01*
X12849500Y-38314069D01*
X12874499Y-38439742D01*
X12874500Y-38439747D01*
X12923534Y-38558125D01*
X12923538Y-38558133D01*
X12966365Y-38622226D01*
X12994724Y-38664669D01*
X13085331Y-38755276D01*
X13148848Y-38797717D01*
X13191866Y-38826461D01*
X13191870Y-38826463D01*
X13191873Y-38826465D01*
X13310256Y-38875501D01*
X13435931Y-38900500D01*
X13435932Y-38900500D01*
X13564068Y-38900500D01*
X13564069Y-38900500D01*
X13689744Y-38875501D01*
X13808127Y-38826465D01*
X13914669Y-38755276D01*
X14005276Y-38664669D01*
X14076465Y-38558127D01*
X14125501Y-38439744D01*
X14150500Y-38314069D01*
X14150500Y-38185931D01*
X14125501Y-38060256D01*
X14076465Y-37941873D01*
X14076463Y-37941870D01*
X14076461Y-37941866D01*
X14047717Y-37898848D01*
X14005276Y-37835331D01*
X13914669Y-37744724D01*
X13872226Y-37716365D01*
X13808133Y-37673538D01*
X13808125Y-37673534D01*
X13689747Y-37624500D01*
X13689745Y-37624499D01*
X13689744Y-37624499D01*
X13564069Y-37599500D01*
X13435931Y-37599500D01*
X13435930Y-37599500D01*
X13373093Y-37611999D01*
X13310256Y-37624499D01*
X13310255Y-37624499D01*
X13310252Y-37624500D01*
X13191874Y-37673534D01*
X13191866Y-37673538D01*
X13085331Y-37744724D01*
X13085327Y-37744727D01*
X12994727Y-37835327D01*
X12994724Y-37835331D01*
X12923538Y-37941866D01*
X12923534Y-37941874D01*
X12874500Y-38060252D01*
X12874499Y-38060257D01*
X12849500Y-38185930D01*
X10500000Y-38185930D01*
X10500000Y-36770943D01*
X32334800Y-36770943D01*
X32334800Y-36929057D01*
X32375723Y-37081784D01*
X32454780Y-37218716D01*
X32566584Y-37330520D01*
X32703516Y-37409577D01*
X32856243Y-37450500D01*
X32856245Y-37450500D01*
X33014355Y-37450500D01*
X33014357Y-37450500D01*
X33167084Y-37409577D01*
X33304016Y-37330520D01*
X33415820Y-37218716D01*
X33494877Y-37081784D01*
X33535800Y-36929057D01*
X33535800Y-36770943D01*
X33494877Y-36618216D01*
X33415820Y-36481284D01*
X33304016Y-36369480D01*
X33167084Y-36290423D01*
X33014357Y-36249500D01*
X32856243Y-36249500D01*
X32703516Y-36290423D01*
X32566584Y-36369480D01*
X32454780Y-36481284D01*
X32375723Y-36618216D01*
X32334800Y-36770943D01*
X10500000Y-36770943D01*
X10500000Y-35310343D01*
X31399500Y-35310343D01*
X31399500Y-35468457D01*
X31440423Y-35621184D01*
X31519480Y-35758116D01*
X31631284Y-35869920D01*
X31768216Y-35948977D01*
X31920943Y-35989900D01*
X31920945Y-35989900D01*
X32079055Y-35989900D01*
X32079057Y-35989900D01*
X32231784Y-35948977D01*
X32368716Y-35869920D01*
X32480520Y-35758116D01*
X32559577Y-35621184D01*
X32600500Y-35468457D01*
X32600500Y-35310343D01*
X32559577Y-35157616D01*
X32480520Y-35020684D01*
X32368716Y-34908880D01*
X32231784Y-34829823D01*
X32079057Y-34788900D01*
X31920943Y-34788900D01*
X31768216Y-34829823D01*
X31631284Y-34908880D01*
X31519480Y-35020684D01*
X31440423Y-35157616D01*
X31399500Y-35310343D01*
X10500000Y-35310343D01*
X10500000Y-29685930D01*
X12849500Y-29685930D01*
X12849500Y-29814069D01*
X12874499Y-29939742D01*
X12874500Y-29939747D01*
X12923534Y-30058125D01*
X12923538Y-30058133D01*
X12966365Y-30122226D01*
X12994724Y-30164669D01*
X13085331Y-30255276D01*
X13148848Y-30297717D01*
X13191866Y-30326461D01*
X13191870Y-30326463D01*
X13191873Y-30326465D01*
X13310256Y-30375501D01*
X13435931Y-30400500D01*
X13435932Y-30400500D01*
X13564068Y-30400500D01*
X13564069Y-30400500D01*
X13689744Y-30375501D01*
X13808127Y-30326465D01*
X13914669Y-30255276D01*
X14005276Y-30164669D01*
X14076465Y-30058127D01*
X14125501Y-29939744D01*
X14150500Y-29814069D01*
X14150500Y-29685931D01*
X14125501Y-29560256D01*
X14076465Y-29441873D01*
X14076463Y-29441870D01*
X14076461Y-29441866D01*
X14047717Y-29398848D01*
X14005276Y-29335331D01*
X13914669Y-29244724D01*
X13872226Y-29216365D01*
X13808133Y-29173538D01*
X13808125Y-29173534D01*
X13689747Y-29124500D01*
X13689745Y-29124499D01*
X13689744Y-29124499D01*
X13564069Y-29099500D01*
X13435931Y-29099500D01*
X13435930Y-29099500D01*
X13373093Y-29111999D01*
X13310256Y-29124499D01*
X13310255Y-29124499D01*
X13310252Y-29124500D01*
X13191874Y-29173534D01*
X13191866Y-29173538D01*
X13085331Y-29244724D01*
X13085327Y-29244727D01*
X12994727Y-29335327D01*
X12994724Y-29335331D01*
X12923538Y-29441866D01*
X12923534Y-29441874D01*
X12874500Y-29560252D01*
X12874499Y-29560257D01*
X12849500Y-29685930D01*
X10500000Y-29685930D01*
X10500000Y-27162043D01*
X34349900Y-27162043D01*
X34349900Y-27320157D01*
X34390823Y-27472884D01*
X34469880Y-27609816D01*
X34581684Y-27721620D01*
X34718616Y-27800677D01*
X34871343Y-27841600D01*
X34871345Y-27841600D01*
X35029455Y-27841600D01*
X35029457Y-27841600D01*
X35182184Y-27800677D01*
X35319116Y-27721620D01*
X35430920Y-27609816D01*
X35509977Y-27472884D01*
X35550900Y-27320157D01*
X35550900Y-27162043D01*
X35509977Y-27009316D01*
X35430920Y-26872384D01*
X35319116Y-26760580D01*
X35182184Y-26681523D01*
X35029457Y-26640600D01*
X34871343Y-26640600D01*
X34718616Y-26681523D01*
X34581684Y-26760580D01*
X34469880Y-26872384D01*
X34390823Y-27009316D01*
X34349900Y-27162043D01*
X10500000Y-27162043D01*
X10500000Y-23308143D01*
X34349900Y-23308143D01*
X34349900Y-23466257D01*
X34390823Y-23618984D01*
X34469880Y-23755916D01*
X34581684Y-23867720D01*
X34718616Y-23946777D01*
X34871343Y-23987700D01*
X34871345Y-23987700D01*
X35029456Y-23987700D01*
X35029457Y-23987700D01*
X35029457Y-23987699D01*
X35035052Y-23986963D01*
X35095214Y-23998109D01*
X35117984Y-24015111D01*
X44894304Y-33791431D01*
X44922081Y-33845948D01*
X44923300Y-33861435D01*
X44923300Y-53862097D01*
X44904393Y-53920288D01*
X44884572Y-53940636D01*
X44880087Y-53944077D01*
X44880084Y-53944080D01*
X44768280Y-54055884D01*
X44689223Y-54192816D01*
X44648300Y-54345543D01*
X44648300Y-54503657D01*
X44689223Y-54656384D01*
X44768280Y-54793316D01*
X44880084Y-54905120D01*
X45017016Y-54984177D01*
X45169743Y-55025100D01*
X45169745Y-55025100D01*
X45327855Y-55025100D01*
X45327857Y-55025100D01*
X45480584Y-54984177D01*
X45617516Y-54905120D01*
X45729320Y-54793316D01*
X45808377Y-54656384D01*
X45849300Y-54503657D01*
X45849300Y-54345543D01*
X45808377Y-54192816D01*
X45729320Y-54055884D01*
X45617516Y-53944080D01*
X45617513Y-53944078D01*
X45617512Y-53944077D01*
X45613028Y-53940636D01*
X45578375Y-53890209D01*
X45574300Y-53862097D01*
X45574300Y-33642748D01*
X45574300Y-33642747D01*
X45552118Y-33559962D01*
X45552118Y-33559961D01*
X45552118Y-33559960D01*
X45509268Y-33485742D01*
X45509266Y-33485740D01*
X45509265Y-33485738D01*
X41854474Y-29830947D01*
X88656800Y-29830947D01*
X88656800Y-55983047D01*
X88656800Y-56068753D01*
X88660489Y-56082519D01*
X88678983Y-56151543D01*
X88721831Y-56225757D01*
X88725784Y-56230908D01*
X88723932Y-56232328D01*
X88747065Y-56277731D01*
X88747438Y-56306136D01*
X88746700Y-56311743D01*
X88746700Y-56469857D01*
X88787623Y-56622584D01*
X88866680Y-56759516D01*
X88978484Y-56871320D01*
X89115416Y-56950377D01*
X89268143Y-56991300D01*
X89268145Y-56991300D01*
X89426255Y-56991300D01*
X89426257Y-56991300D01*
X89578984Y-56950377D01*
X89715916Y-56871320D01*
X89827720Y-56759516D01*
X89906777Y-56622584D01*
X89947700Y-56469857D01*
X89947700Y-56311743D01*
X89906777Y-56159016D01*
X89827720Y-56022084D01*
X89715916Y-55910280D01*
X89578984Y-55831223D01*
X89426257Y-55790300D01*
X89426255Y-55790300D01*
X89406800Y-55790300D01*
X89348609Y-55771393D01*
X89312645Y-55721893D01*
X89307800Y-55691300D01*
X89307800Y-55364133D01*
X89326707Y-55305942D01*
X89376207Y-55269978D01*
X89432423Y-55268506D01*
X89436412Y-55269575D01*
X89436416Y-55269577D01*
X89589143Y-55310500D01*
X89589145Y-55310500D01*
X89747255Y-55310500D01*
X89747257Y-55310500D01*
X89899984Y-55269577D01*
X90036916Y-55190520D01*
X90148720Y-55078716D01*
X90227777Y-54941784D01*
X90268700Y-54789057D01*
X90268700Y-54630943D01*
X90268698Y-54630938D01*
X90267962Y-54625344D01*
X90279110Y-54565182D01*
X90296108Y-54542417D01*
X95751859Y-49086666D01*
X95751862Y-49086665D01*
X95812465Y-49026062D01*
X95833891Y-48988950D01*
X95855318Y-48951839D01*
X95877501Y-48869053D01*
X95877501Y-48783347D01*
X95877501Y-48777285D01*
X95877500Y-48777267D01*
X95877500Y-26251004D01*
X103619500Y-26251004D01*
X103619500Y-26251007D01*
X103619500Y-26388993D01*
X103645531Y-26519861D01*
X103646420Y-26524327D01*
X103646420Y-26524329D01*
X103699222Y-26651806D01*
X103699228Y-26651817D01*
X103775885Y-26766541D01*
X103873458Y-26864114D01*
X103988182Y-26940771D01*
X103988193Y-26940777D01*
X104035283Y-26960282D01*
X104115672Y-26993580D01*
X104251007Y-27020500D01*
X104251008Y-27020500D01*
X105488992Y-27020500D01*
X105488993Y-27020500D01*
X105624328Y-26993580D01*
X105751811Y-26940775D01*
X105866542Y-26864114D01*
X105964114Y-26766542D01*
X106040775Y-26651811D01*
X106093580Y-26524328D01*
X106120500Y-26388993D01*
X106120500Y-26251007D01*
X106093580Y-26115672D01*
X106040775Y-25988189D01*
X106040774Y-25988187D01*
X106040771Y-25988182D01*
X105964114Y-25873458D01*
X105866541Y-25775885D01*
X105751817Y-25699228D01*
X105751806Y-25699222D01*
X105624328Y-25646420D01*
X105488995Y-25619500D01*
X105488993Y-25619500D01*
X104251007Y-25619500D01*
X104251004Y-25619500D01*
X104115672Y-25646420D01*
X104115670Y-25646420D01*
X103988193Y-25699222D01*
X103988182Y-25699228D01*
X103873458Y-25775885D01*
X103775885Y-25873458D01*
X103699228Y-25988182D01*
X103699222Y-25988193D01*
X103646420Y-26115670D01*
X103646420Y-26115672D01*
X103619500Y-26251004D01*
X95877500Y-26251004D01*
X95877500Y-24847147D01*
X105074500Y-24847147D01*
X105074500Y-24932853D01*
X105096682Y-25015638D01*
X105139535Y-25089862D01*
X105200138Y-25150465D01*
X105274362Y-25193318D01*
X105357147Y-25215500D01*
X105357149Y-25215500D01*
X105442851Y-25215500D01*
X105442853Y-25215500D01*
X105525638Y-25193318D01*
X105599862Y-25150465D01*
X105660465Y-25089862D01*
X105703318Y-25015638D01*
X105725500Y-24932853D01*
X105725500Y-24847147D01*
X105703318Y-24764362D01*
X105660465Y-24690138D01*
X105599862Y-24629535D01*
X105525638Y-24586682D01*
X105442853Y-24564500D01*
X105357147Y-24564500D01*
X105274362Y-24586682D01*
X105200138Y-24629535D01*
X105139535Y-24690138D01*
X105096682Y-24764362D01*
X105074500Y-24847147D01*
X95877500Y-24847147D01*
X95877500Y-22660540D01*
X95877501Y-22660527D01*
X95877501Y-22566847D01*
X95877500Y-22566845D01*
X95875163Y-22558125D01*
X95855318Y-22484062D01*
X95855313Y-22484053D01*
X95852498Y-22479176D01*
X95852498Y-22479175D01*
X95812470Y-22409845D01*
X95809057Y-22405398D01*
X95788630Y-22347723D01*
X95789443Y-22332200D01*
X95790198Y-22326462D01*
X95790200Y-22326457D01*
X95790200Y-22168343D01*
X95749277Y-22015616D01*
X95670220Y-21878684D01*
X95558416Y-21766880D01*
X95421484Y-21687823D01*
X95268757Y-21646900D01*
X95110643Y-21646900D01*
X94957916Y-21687823D01*
X94820984Y-21766880D01*
X94709180Y-21878684D01*
X94630123Y-22015616D01*
X94589200Y-22168343D01*
X94589200Y-22326457D01*
X94630123Y-22479184D01*
X94709180Y-22616116D01*
X94820984Y-22727920D01*
X94957916Y-22806977D01*
X95110643Y-22847900D01*
X95127500Y-22847900D01*
X95185691Y-22866807D01*
X95221655Y-22916307D01*
X95226500Y-22946900D01*
X95226500Y-23324201D01*
X95207593Y-23382392D01*
X95158093Y-23418356D01*
X95101877Y-23419827D01*
X94954357Y-23380300D01*
X94796243Y-23380300D01*
X94643516Y-23421223D01*
X94506584Y-23500280D01*
X94394780Y-23612084D01*
X94315723Y-23749016D01*
X94283917Y-23867720D01*
X94274800Y-23901744D01*
X94274800Y-24059860D01*
X94275537Y-24065460D01*
X94264386Y-24125621D01*
X94247388Y-24148384D01*
X88721832Y-29673941D01*
X88721831Y-29673942D01*
X88678982Y-29748160D01*
X88678981Y-29748160D01*
X88678982Y-29748161D01*
X88678982Y-29748162D01*
X88656800Y-29830947D01*
X41854474Y-29830947D01*
X35578311Y-23554784D01*
X35550534Y-23500267D01*
X35550163Y-23471852D01*
X35550900Y-23466256D01*
X35550900Y-23308144D01*
X35521418Y-23198116D01*
X35509977Y-23155416D01*
X35430920Y-23018484D01*
X35319116Y-22906680D01*
X35182184Y-22827623D01*
X35029457Y-22786700D01*
X34871343Y-22786700D01*
X34718616Y-22827623D01*
X34581684Y-22906680D01*
X34469880Y-23018484D01*
X34390823Y-23155416D01*
X34349900Y-23308143D01*
X10500000Y-23308143D01*
X10500000Y-22185930D01*
X12849500Y-22185930D01*
X12849500Y-22314069D01*
X12874499Y-22439742D01*
X12874500Y-22439747D01*
X12923534Y-22558125D01*
X12923538Y-22558133D01*
X12962281Y-22616115D01*
X12994724Y-22664669D01*
X13085331Y-22755276D01*
X13148848Y-22797717D01*
X13191866Y-22826461D01*
X13191870Y-22826463D01*
X13191873Y-22826465D01*
X13310256Y-22875501D01*
X13435931Y-22900500D01*
X13435932Y-22900500D01*
X13564068Y-22900500D01*
X13564069Y-22900500D01*
X13689744Y-22875501D01*
X13808127Y-22826465D01*
X13914669Y-22755276D01*
X14005276Y-22664669D01*
X14076465Y-22558127D01*
X14125501Y-22439744D01*
X14150500Y-22314069D01*
X14150500Y-22185931D01*
X14125501Y-22060256D01*
X14076465Y-21941873D01*
X14076463Y-21941870D01*
X14076461Y-21941866D01*
X14047717Y-21898848D01*
X14005276Y-21835331D01*
X13914669Y-21744724D01*
X13872226Y-21716365D01*
X13808133Y-21673538D01*
X13808125Y-21673534D01*
X13689747Y-21624500D01*
X13689745Y-21624499D01*
X13689744Y-21624499D01*
X13564069Y-21599500D01*
X13435931Y-21599500D01*
X13435930Y-21599500D01*
X13373093Y-21611999D01*
X13310256Y-21624499D01*
X13310255Y-21624499D01*
X13310252Y-21624500D01*
X13191874Y-21673534D01*
X13191866Y-21673538D01*
X13085331Y-21744724D01*
X13085327Y-21744727D01*
X12994727Y-21835327D01*
X12994724Y-21835331D01*
X12923538Y-21941866D01*
X12923534Y-21941874D01*
X12874500Y-22060252D01*
X12874499Y-22060257D01*
X12849500Y-22185930D01*
X10500000Y-22185930D01*
X10500000Y-19294443D01*
X31399500Y-19294443D01*
X31399500Y-19452557D01*
X31440423Y-19605284D01*
X31519480Y-19742216D01*
X31631284Y-19854020D01*
X31768216Y-19933077D01*
X31920943Y-19974000D01*
X31920945Y-19974000D01*
X32079055Y-19974000D01*
X32079057Y-19974000D01*
X32231784Y-19933077D01*
X32368716Y-19854020D01*
X32480520Y-19742216D01*
X32559577Y-19605284D01*
X32600500Y-19452557D01*
X32600500Y-19294443D01*
X32559577Y-19141716D01*
X32480520Y-19004784D01*
X32368716Y-18892980D01*
X32231784Y-18813923D01*
X32079057Y-18773000D01*
X31920943Y-18773000D01*
X31768216Y-18813923D01*
X31631284Y-18892980D01*
X31519480Y-19004784D01*
X31440423Y-19141716D01*
X31399500Y-19294443D01*
X10500000Y-19294443D01*
X10500000Y-14743343D01*
X99065000Y-14743343D01*
X99065000Y-14901457D01*
X99105923Y-15054184D01*
X99184980Y-15191116D01*
X99296784Y-15302920D01*
X99433716Y-15381977D01*
X99586443Y-15422900D01*
X99586445Y-15422900D01*
X99744556Y-15422900D01*
X99744557Y-15422900D01*
X99744557Y-15422899D01*
X99750152Y-15422163D01*
X99810314Y-15433309D01*
X99833084Y-15450311D01*
X100475504Y-16092730D01*
X100503281Y-16147247D01*
X100504500Y-16162734D01*
X100504500Y-22867397D01*
X100485593Y-22925588D01*
X100465772Y-22945936D01*
X100461287Y-22949377D01*
X100461284Y-22949380D01*
X100349480Y-23061184D01*
X100270423Y-23198116D01*
X100229500Y-23350843D01*
X100229500Y-23508957D01*
X100270423Y-23661684D01*
X100349480Y-23798616D01*
X100461284Y-23910420D01*
X100598216Y-23989477D01*
X100750943Y-24030400D01*
X100750945Y-24030400D01*
X100909055Y-24030400D01*
X100909057Y-24030400D01*
X101061784Y-23989477D01*
X101198716Y-23910420D01*
X101310520Y-23798616D01*
X101389577Y-23661684D01*
X101430500Y-23508957D01*
X101430500Y-23350843D01*
X101389577Y-23198116D01*
X101310520Y-23061184D01*
X101198716Y-22949380D01*
X101198713Y-22949378D01*
X101198712Y-22949377D01*
X101194228Y-22945936D01*
X101159575Y-22895509D01*
X101155500Y-22867397D01*
X101155500Y-19067147D01*
X105074500Y-19067147D01*
X105074500Y-19152853D01*
X105096682Y-19235638D01*
X105139535Y-19309862D01*
X105200138Y-19370465D01*
X105274362Y-19413318D01*
X105357147Y-19435500D01*
X105357149Y-19435500D01*
X105442851Y-19435500D01*
X105442853Y-19435500D01*
X105525638Y-19413318D01*
X105599862Y-19370465D01*
X105660465Y-19309862D01*
X105703318Y-19235638D01*
X105725500Y-19152853D01*
X105725500Y-19067147D01*
X105703318Y-18984362D01*
X105660465Y-18910138D01*
X105599862Y-18849535D01*
X105525638Y-18806682D01*
X105442853Y-18784500D01*
X105357147Y-18784500D01*
X105274362Y-18806682D01*
X105200138Y-18849535D01*
X105139535Y-18910138D01*
X105096682Y-18984362D01*
X105074500Y-19067147D01*
X101155500Y-19067147D01*
X101155500Y-17611004D01*
X103619500Y-17611004D01*
X103619500Y-17748995D01*
X103646420Y-17884327D01*
X103646420Y-17884329D01*
X103699222Y-18011806D01*
X103699228Y-18011817D01*
X103775885Y-18126541D01*
X103873458Y-18224114D01*
X103988182Y-18300771D01*
X103988193Y-18300777D01*
X104035283Y-18320282D01*
X104115672Y-18353580D01*
X104251007Y-18380500D01*
X104251008Y-18380500D01*
X105488992Y-18380500D01*
X105488993Y-18380500D01*
X105624328Y-18353580D01*
X105751811Y-18300775D01*
X105866542Y-18224114D01*
X105964114Y-18126542D01*
X106040775Y-18011811D01*
X106093580Y-17884328D01*
X106120500Y-17748993D01*
X106120500Y-17611007D01*
X106093580Y-17475672D01*
X106040775Y-17348189D01*
X106040774Y-17348187D01*
X106040771Y-17348182D01*
X105964114Y-17233458D01*
X105866541Y-17135885D01*
X105751817Y-17059228D01*
X105751806Y-17059222D01*
X105624328Y-17006420D01*
X105488995Y-16979500D01*
X105488993Y-16979500D01*
X104251007Y-16979500D01*
X104251004Y-16979500D01*
X104115672Y-17006420D01*
X104115670Y-17006420D01*
X103988193Y-17059222D01*
X103988182Y-17059228D01*
X103873458Y-17135885D01*
X103775885Y-17233458D01*
X103699228Y-17348182D01*
X103699222Y-17348193D01*
X103646420Y-17475670D01*
X103646420Y-17475672D01*
X103619500Y-17611004D01*
X101155500Y-17611004D01*
X101155500Y-16037740D01*
X101155501Y-16037727D01*
X101155501Y-15944049D01*
X101155501Y-15944047D01*
X101133318Y-15861261D01*
X101131737Y-15858522D01*
X101111893Y-15824151D01*
X101111889Y-15824147D01*
X101090465Y-15787038D01*
X101029862Y-15726435D01*
X101029859Y-15726433D01*
X100293411Y-14989984D01*
X100265634Y-14935467D01*
X100265263Y-14907052D01*
X100266000Y-14901456D01*
X100266000Y-14743344D01*
X100266000Y-14743343D01*
X100225077Y-14590616D01*
X100146020Y-14453684D01*
X100034216Y-14341880D01*
X99897284Y-14262823D01*
X99744557Y-14221900D01*
X99586443Y-14221900D01*
X99433716Y-14262823D01*
X99296784Y-14341880D01*
X99184980Y-14453684D01*
X99105923Y-14590616D01*
X99065000Y-14743343D01*
X10500000Y-14743343D01*
X10500000Y-13685930D01*
X12849500Y-13685930D01*
X12849500Y-13814069D01*
X12874499Y-13939742D01*
X12874500Y-13939747D01*
X12923534Y-14058125D01*
X12923538Y-14058133D01*
X12966365Y-14122226D01*
X12994724Y-14164669D01*
X13085331Y-14255276D01*
X13148848Y-14297717D01*
X13191866Y-14326461D01*
X13191870Y-14326463D01*
X13191873Y-14326465D01*
X13310256Y-14375501D01*
X13435931Y-14400500D01*
X13435932Y-14400500D01*
X13564068Y-14400500D01*
X13564069Y-14400500D01*
X13689744Y-14375501D01*
X13808127Y-14326465D01*
X13914669Y-14255276D01*
X14005276Y-14164669D01*
X14076465Y-14058127D01*
X14125501Y-13939744D01*
X14150500Y-13814069D01*
X14150500Y-13685931D01*
X14125501Y-13560256D01*
X14076465Y-13441873D01*
X14076463Y-13441870D01*
X14076461Y-13441866D01*
X14047717Y-13398848D01*
X14005276Y-13335331D01*
X13914669Y-13244724D01*
X13872226Y-13216365D01*
X13808133Y-13173538D01*
X13808125Y-13173534D01*
X13689747Y-13124500D01*
X13689745Y-13124499D01*
X13689744Y-13124499D01*
X13564069Y-13099500D01*
X13435931Y-13099500D01*
X13435930Y-13099500D01*
X13373093Y-13111999D01*
X13310256Y-13124499D01*
X13310255Y-13124499D01*
X13310252Y-13124500D01*
X13191874Y-13173534D01*
X13191866Y-13173538D01*
X13085331Y-13244724D01*
X13085327Y-13244727D01*
X12994727Y-13335327D01*
X12994724Y-13335331D01*
X12923538Y-13441866D01*
X12923534Y-13441874D01*
X12874500Y-13560252D01*
X12874499Y-13560257D01*
X12849500Y-13685930D01*
X10500000Y-13685930D01*
X10500000Y-10599000D01*
X10518907Y-10540809D01*
X10568407Y-10504845D01*
X10599000Y-10500000D01*
X109401000Y-10500000D01*
X109459191Y-10518907D01*
G37*
%TD.AperFunction*%
%TD*%
M02*
