%TF.GenerationSoftware,KiCad,Pcbnew,10.0.5*%
%TF.CreationDate,2026-08-25T17:32:45+08:00*%
%TF.ProjectId,PCAP04_Acquisition_3CH_v1.5_100mm_C496550,50434150-3034-45f4-9163-717569736974,v1.5*%
%TF.SameCoordinates,Original*%
%TF.FileFunction,Copper,L4,Bot*%
%TF.FilePolarity,Positive*%
%FSLAX46Y46*%
G04 Gerber Fmt 4.6, Leading zero omitted, Abs format (unit mm)*
G04 Created by KiCad (PCBNEW 10.0.5) date 2026-08-25 17:32:45*
%MOMM*%
%LPD*%
G01*
G04 APERTURE LIST*
G04 Aperture macros list*
%AMRoundRect*
0 Rectangle with rounded corners*
0 $1 Rounding radius*
0 $2 $3 $4 $5 $6 $7 $8 $9 X,Y pos of 4 corners*
0 Add a 4 corners polygon primitive as box body*
4,1,4,$2,$3,$4,$5,$6,$7,$8,$9,$2,$3,0*
0 Add four circle primitives for the rounded corners*
1,1,$1+$1,$2,$3*
1,1,$1+$1,$4,$5*
1,1,$1+$1,$6,$7*
1,1,$1+$1,$8,$9*
0 Add four rect primitives between the rounded corners*
20,1,$1+$1,$2,$3,$4,$5,0*
20,1,$1+$1,$4,$5,$6,$7,0*
20,1,$1+$1,$6,$7,$8,$9,0*
20,1,$1+$1,$8,$9,$2,$3,0*%
G04 Aperture macros list end*
%TA.AperFunction,SMDPad,CuDef*%
%ADD10RoundRect,0.300000X-2.100000X-0.300000X2.100000X-0.300000X2.100000X0.300000X-2.100000X0.300000X0*%
%TD*%
%TA.AperFunction,ComponentPad*%
%ADD11R,1.700000X1.700000*%
%TD*%
%TA.AperFunction,ComponentPad*%
%ADD12C,1.700000*%
%TD*%
%TA.AperFunction,ComponentPad*%
%ADD13O,2.100000X1.000000*%
%TD*%
%TA.AperFunction,ComponentPad*%
%ADD14O,1.600000X1.000000*%
%TD*%
%TA.AperFunction,ViaPad*%
%ADD15C,0.650000*%
%TD*%
%TA.AperFunction,ViaPad*%
%ADD16C,0.900000*%
%TD*%
%TA.AperFunction,ViaPad*%
%ADD17C,0.800000*%
%TD*%
%TA.AperFunction,ViaPad*%
%ADD18C,0.600000*%
%TD*%
%TA.AperFunction,Conductor*%
%ADD19C,0.200000*%
%TD*%
%TA.AperFunction,Conductor*%
%ADD20C,0.800000*%
%TD*%
G04 APERTURE END LIST*
D10*
%TO.P,J5,2,SHIELD*%
%TO.N,CHASSIS*%
X12700000Y-31450000D03*
X12700000Y-36550000D03*
%TD*%
D11*
%TO.P,J9,1,1*%
%TO.N,+3V3D*%
X106000000Y-97000000D03*
D12*
%TO.P,J9,2,2*%
%TO.N,SWDIO*%
X106000000Y-99540000D03*
%TO.P,J9,3,3*%
%TO.N,SWCLK_BOOT0*%
X106000000Y-102080000D03*
%TO.P,J9,4,4*%
%TO.N,NRST*%
X106000000Y-104620000D03*
%TO.P,J9,5,5*%
%TO.N,GND*%
X106000000Y-107160000D03*
%TD*%
D10*
%TO.P,J7,2,SHIELD*%
%TO.N,CHASSIS*%
X12700000Y-95450000D03*
X12700000Y-100550000D03*
%TD*%
%TO.P,J2,2,SHIELD*%
%TO.N,CHASSIS*%
X12700000Y-47450000D03*
X12700000Y-52550000D03*
%TD*%
D11*
%TO.P,J8,1,1*%
%TO.N,+5V_EXT*%
X103000000Y-43000000D03*
D12*
%TO.P,J8,2,2*%
%TO.N,GND*%
X105540000Y-43000000D03*
%TD*%
D10*
%TO.P,J3,2,SHIELD*%
%TO.N,CHASSIS*%
X12700000Y-63450000D03*
X12700000Y-68550000D03*
%TD*%
%TO.P,J6,2,SHIELD*%
%TO.N,CHASSIS*%
X12700000Y-79450000D03*
X12700000Y-84550000D03*
%TD*%
D11*
%TO.P,J10,1,1*%
%TO.N,+3V3D*%
X106000000Y-62000000D03*
D12*
%TO.P,J10,2,2*%
%TO.N,UART_TX*%
X106000000Y-64540000D03*
%TO.P,J10,3,3*%
%TO.N,UART_RX*%
X106000000Y-67080000D03*
%TO.P,J10,4,4*%
%TO.N,HOST_READY*%
X106000000Y-69620000D03*
%TO.P,J10,5,5*%
%TO.N,MEAS_BUSY*%
X106000000Y-72160000D03*
%TO.P,J10,6,6*%
%TO.N,GND*%
X106000000Y-74700000D03*
%TD*%
D11*
%TO.P,J11,1,1*%
%TO.N,+5V_USB*%
X95000000Y-97000000D03*
D12*
%TO.P,J11,2,2*%
%TO.N,+5V_IN*%
X97540000Y-97000000D03*
%TO.P,J11,3,3*%
%TO.N,+5V_EXT*%
X100080000Y-97000000D03*
%TD*%
D13*
%TO.P,J1,SH,SHIELD*%
%TO.N,CHASSIS*%
X104870000Y-26320000D03*
D14*
X109050000Y-26320000D03*
D13*
X104870000Y-17680000D03*
D14*
X109050000Y-17680000D03*
%TD*%
D10*
%TO.P,J4,2,SHIELD*%
%TO.N,CHASSIS*%
X12700000Y-15450000D03*
X12700000Y-20550000D03*
%TD*%
D15*
%TO.N,PCAP_IRQ*%
X53239100Y-62813000D03*
X49374300Y-61856200D03*
D16*
%TO.N,CHASSIS*%
X13500000Y-70250000D03*
X13500000Y-22250000D03*
D17*
X32000000Y-35389400D03*
D16*
X13500000Y-54250000D03*
X13500000Y-77750000D03*
X13500000Y-102250000D03*
X13500000Y-38250000D03*
X13500000Y-13750000D03*
D17*
X32000000Y-99370200D03*
X32000000Y-67371000D03*
D16*
X13500000Y-93750000D03*
D17*
X32000000Y-19373500D03*
X34950400Y-27241100D03*
X34898800Y-104319100D03*
D16*
X13500000Y-29750000D03*
D17*
X31329100Y-83479100D03*
X32000000Y-51360400D03*
D16*
X13500000Y-45750000D03*
X13500000Y-61750000D03*
X13500000Y-86250000D03*
D15*
%TO.N,PCAP_CS_N*%
X46500000Y-64000000D03*
X55500000Y-58000000D03*
D17*
%TO.N,Net-(ESD2-K)*%
X45248800Y-54424600D03*
X34950400Y-23387200D03*
%TO.N,GND*%
X82000000Y-66706000D03*
X59405600Y-76421500D03*
X76807300Y-80959100D03*
X43786100Y-105443900D03*
X53214000Y-58750000D03*
X91623300Y-58724000D03*
X103321800Y-17182700D03*
X101510000Y-15907600D03*
X105169600Y-14340400D03*
X82394400Y-82236600D03*
X50003400Y-60004300D03*
X104131400Y-32609100D03*
X51759500Y-74000000D03*
X77123900Y-50396100D03*
X100608800Y-80009100D03*
X86597500Y-49520000D03*
X47794600Y-105451300D03*
X41939800Y-55900900D03*
X98000000Y-24355400D03*
X102879200Y-25911100D03*
X39798000Y-105035300D03*
X102958900Y-78278200D03*
X76663800Y-73856200D03*
X92153200Y-54326800D03*
X43480000Y-61123400D03*
X80136100Y-58250000D03*
X95456900Y-59624600D03*
X73930200Y-74856900D03*
X85044700Y-77282400D03*
X86590100Y-65520000D03*
X96707800Y-81397000D03*
X53884500Y-61934500D03*
X64180900Y-76670900D03*
X64444600Y-58950000D03*
X61184900Y-65825100D03*
X43967500Y-58152000D03*
%TO.N,+3V3A*%
X55197700Y-75697800D03*
X74264600Y-82292100D03*
%TO.N,+3V3D*%
X80131400Y-56750000D03*
X88422400Y-66001500D03*
X107126700Y-81195700D03*
%TO.N,Net-(ESD4-K)*%
X47825200Y-83824900D03*
X49506100Y-55036100D03*
%TO.N,+5V_USB*%
X96927200Y-42656700D03*
%TO.N,NRST*%
X108461900Y-61884400D03*
%TO.N,PCAP_PWR_SENSE*%
X77486300Y-60320600D03*
X73489400Y-72890200D03*
%TO.N,UART_TX*%
X79515400Y-61981000D03*
%TO.N,UART_RX*%
X80866700Y-60845300D03*
%TO.N,Net-(U2-PA5-SPI1_SCK)*%
X75225400Y-58742800D03*
X64449600Y-55587600D03*
%TO.N,Net-(U2-PA7-SPI1_MOSI)*%
X64429800Y-57650000D03*
X82750000Y-60800800D03*
%TO.N,PCAP_SPI_OE_N*%
X70911300Y-55602000D03*
X84750000Y-60783000D03*
%TO.N,USB_DM*%
X94875300Y-23980800D03*
X89347200Y-56390800D03*
%TO.N,USB_DP*%
X89668200Y-54710000D03*
X95189700Y-22247400D03*
%TO.N,SWDIO*%
X84906600Y-57753000D03*
%TO.N,SWCLK_BOOT0*%
X87705500Y-54514100D03*
%TO.N,Net-(ESD5-K)*%
X47505700Y-53698900D03*
X38804300Y-90090200D03*
%TO.N,PCAP_MISO*%
X70262200Y-56304400D03*
D18*
X48250000Y-61250000D03*
D17*
%TO.N,Net-(ESD3-K)*%
X46037500Y-55978500D03*
X32935300Y-36850000D03*
%TO.N,Net-(J1-CC1_A5)*%
X100830000Y-23429900D03*
X99665500Y-14822400D03*
%TD*%
%TO.N,PCAP_IRQ*%
D19*
X52282300Y-61856200D02*
X49374300Y-61856200D01*
X53239100Y-62813000D02*
X52282300Y-61856200D01*
%TO.N,CHASSIS*%
D20*
X12700000Y-95450000D02*
X13500000Y-93750000D01*
X12700000Y-63450000D02*
X13500000Y-61750000D01*
X12700000Y-84550000D02*
X13500000Y-86250000D01*
X12700000Y-31450000D02*
X13500000Y-29750000D01*
X12700000Y-36550000D02*
X13500000Y-38250000D01*
X12700000Y-52550000D02*
X13500000Y-54250000D01*
X12700000Y-47450000D02*
X13500000Y-45750000D01*
X12700000Y-79450000D02*
X13500000Y-77750000D01*
X12700000Y-68550000D02*
X13500000Y-70250000D01*
X12700000Y-100550000D02*
X13500000Y-102250000D01*
X12700000Y-20550000D02*
X13500000Y-22250000D01*
X12700000Y-15450000D02*
X13500000Y-13750000D01*
%TO.N,PCAP_CS_N*%
D19*
X46500000Y-64000000D02*
X55500000Y-64000000D01*
X55500000Y-64000000D02*
X55500000Y-58000000D01*
%TO.N,Net-(ESD4-K)*%
X56500000Y-80000000D02*
X47825200Y-83824900D01*
X56500000Y-55500000D02*
X56500000Y-80000000D01*
X49506100Y-55036100D02*
X56500000Y-55500000D01*
%TD*%
%TA.AperFunction,Conductor*%
%TO.N,CHASSIS*%
G36*
X34959191Y-10518907D02*
G01*
X34995155Y-10568407D01*
X35000000Y-10599000D01*
X35000000Y-22687700D01*
X34981093Y-22745891D01*
X34931593Y-22781855D01*
X34901000Y-22786700D01*
X34871343Y-22786700D01*
X34718616Y-22827623D01*
X34581684Y-22906680D01*
X34469880Y-23018484D01*
X34390823Y-23155416D01*
X34349900Y-23308143D01*
X34349900Y-23466257D01*
X34390823Y-23618984D01*
X34469880Y-23755916D01*
X34581684Y-23867720D01*
X34718616Y-23946777D01*
X34871343Y-23987700D01*
X34871345Y-23987700D01*
X34901000Y-23987700D01*
X34959191Y-24006607D01*
X34995155Y-24056107D01*
X35000000Y-24086700D01*
X35000000Y-109401000D01*
X34981093Y-109459191D01*
X34931593Y-109495155D01*
X34901000Y-109500000D01*
X10599000Y-109500000D01*
X10540809Y-109481093D01*
X10504845Y-109431593D01*
X10500000Y-109401000D01*
X10500000Y-36770943D01*
X32334800Y-36770943D01*
X32334800Y-36929057D01*
X32375723Y-37081784D01*
X32454780Y-37218716D01*
X32566584Y-37330520D01*
X32703516Y-37409577D01*
X32856243Y-37450500D01*
X32856245Y-37450500D01*
X33014355Y-37450500D01*
X33014357Y-37450500D01*
X33167084Y-37409577D01*
X33304016Y-37330520D01*
X33415820Y-37218716D01*
X33494877Y-37081784D01*
X33535800Y-36929057D01*
X33535800Y-36770943D01*
X33494877Y-36618216D01*
X33415820Y-36481284D01*
X33304016Y-36369480D01*
X33167084Y-36290423D01*
X33014357Y-36249500D01*
X32856243Y-36249500D01*
X32703516Y-36290423D01*
X32566584Y-36369480D01*
X32454780Y-36481284D01*
X32375723Y-36618216D01*
X32334800Y-36770943D01*
X10500000Y-36770943D01*
X10500000Y-10599000D01*
X10518907Y-10540809D01*
X10568407Y-10504845D01*
X10599000Y-10500000D01*
X34901000Y-10500000D01*
X34959191Y-10518907D01*
G37*
%TD.AperFunction*%
%TD*%
M02*
