%TF.GenerationSoftware,KiCad,Pcbnew,10.0.5*%
%TF.CreationDate,2026-08-25T17:32:45+08:00*%
%TF.ProjectId,PCAP04_Acquisition_3CH_v1.5_100mm_C496550,50434150-3034-45f4-9163-717569736974,v1.5*%
%TF.SameCoordinates,Original*%
%TF.FileFunction,Paste,Top*%
%TF.FilePolarity,Positive*%
%FSLAX46Y46*%
G04 Gerber Fmt 4.6, Leading zero omitted, Abs format (unit mm)*
G04 Created by KiCad (PCBNEW 10.0.5) date 2026-08-25 17:32:45*
%MOMM*%
%LPD*%
G01*
G04 APERTURE LIST*
G04 Aperture macros list*
%AMRoundRect*
0 Rectangle with rounded corners*
0 $1 Rounding radius*
0 $2 $3 $4 $5 $6 $7 $8 $9 X,Y pos of 4 corners*
0 Add a 4 corners polygon primitive as box body*
4,1,4,$2,$3,$4,$5,$6,$7,$8,$9,$2,$3,0*
0 Add four circle primitives for the rounded corners*
1,1,$1+$1,$2,$3*
1,1,$1+$1,$4,$5*
1,1,$1+$1,$6,$7*
1,1,$1+$1,$8,$9*
0 Add four rect primitives between the rounded corners*
20,1,$1+$1,$2,$3,$4,$5,0*
20,1,$1+$1,$4,$5,$6,$7,0*
20,1,$1+$1,$6,$7,$8,$9,0*
20,1,$1+$1,$8,$9,$2,$3,0*%
G04 Aperture macros list end*
%ADD10RoundRect,0.135000X-0.135000X-0.185000X0.135000X-0.185000X0.135000X0.185000X-0.135000X0.185000X0*%
%ADD11RoundRect,0.300000X-2.100000X-0.300000X2.100000X-0.300000X2.100000X0.300000X-2.100000X0.300000X0*%
%ADD12RoundRect,0.050000X0.250000X-0.100000X0.250000X0.100000X-0.250000X0.100000X-0.250000X-0.100000X0*%
%ADD13RoundRect,0.225000X0.250000X-0.225000X0.250000X0.225000X-0.250000X0.225000X-0.250000X-0.225000X0*%
%ADD14RoundRect,0.150000X0.512500X0.150000X-0.512500X0.150000X-0.512500X-0.150000X0.512500X-0.150000X0*%
%ADD15RoundRect,0.225000X-0.225000X-0.250000X0.225000X-0.250000X0.225000X0.250000X-0.225000X0.250000X0*%
%ADD16RoundRect,0.250000X-0.375000X-0.625000X0.375000X-0.625000X0.375000X0.625000X-0.375000X0.625000X0*%
%ADD17RoundRect,0.140000X0.170000X-0.140000X0.170000X0.140000X-0.170000X0.140000X-0.170000X-0.140000X0*%
%ADD18RoundRect,0.150000X-0.512500X-0.150000X0.512500X-0.150000X0.512500X0.150000X-0.512500X0.150000X0*%
%ADD19RoundRect,0.075000X-0.662500X-0.075000X0.662500X-0.075000X0.662500X0.075000X-0.662500X0.075000X0*%
%ADD20RoundRect,0.075000X-0.075000X-0.662500X0.075000X-0.662500X0.075000X0.662500X-0.075000X0.662500X0*%
%ADD21RoundRect,0.135000X0.185000X-0.135000X0.185000X0.135000X-0.185000X0.135000X-0.185000X-0.135000X0*%
%ADD22RoundRect,0.250000X0.475000X-0.250000X0.475000X0.250000X-0.475000X0.250000X-0.475000X-0.250000X0*%
%ADD23RoundRect,0.225000X-0.250000X0.225000X-0.250000X-0.225000X0.250000X-0.225000X0.250000X0.225000X0*%
%ADD24RoundRect,0.250000X-0.250000X-0.475000X0.250000X-0.475000X0.250000X0.475000X-0.250000X0.475000X0*%
%ADD25RoundRect,0.140000X-0.140000X-0.170000X0.140000X-0.170000X0.140000X0.170000X-0.140000X0.170000X0*%
%ADD26RoundRect,0.200000X-0.200000X-0.275000X0.200000X-0.275000X0.200000X0.275000X-0.200000X0.275000X0*%
%ADD27RoundRect,0.100000X-0.637500X-0.100000X0.637500X-0.100000X0.637500X0.100000X-0.637500X0.100000X0*%
%ADD28RoundRect,0.140000X0.140000X0.170000X-0.140000X0.170000X-0.140000X-0.170000X0.140000X-0.170000X0*%
%ADD29RoundRect,0.135000X0.135000X0.185000X-0.135000X0.185000X-0.135000X-0.185000X0.135000X-0.185000X0*%
%ADD30RoundRect,0.150000X0.575000X-0.150000X0.575000X0.150000X-0.575000X0.150000X-0.575000X-0.150000X0*%
%ADD31RoundRect,0.075000X0.650000X-0.075000X0.650000X0.075000X-0.650000X0.075000X-0.650000X-0.075000X0*%
%ADD32RoundRect,0.150000X0.150000X-0.512500X0.150000X0.512500X-0.150000X0.512500X-0.150000X-0.512500X0*%
%ADD33RoundRect,0.225000X0.225000X0.250000X-0.225000X0.250000X-0.225000X-0.250000X0.225000X-0.250000X0*%
%ADD34RoundRect,0.250000X0.300000X-0.300000X0.300000X0.300000X-0.300000X0.300000X-0.300000X-0.300000X0*%
%ADD35RoundRect,0.237500X-0.287500X-0.237500X0.287500X-0.237500X0.287500X0.237500X-0.287500X0.237500X0*%
%ADD36R,1.050000X0.650000*%
%ADD37RoundRect,0.250000X-0.295000X-0.295000X0.295000X-0.295000X0.295000X0.295000X-0.295000X0.295000X0*%
%ADD38RoundRect,0.062500X-0.350000X-0.062500X0.350000X-0.062500X0.350000X0.062500X-0.350000X0.062500X0*%
%ADD39RoundRect,0.062500X-0.062500X-0.350000X0.062500X-0.350000X0.062500X0.350000X-0.062500X0.350000X0*%
G04 APERTURE END LIST*
D10*
%TO.C,RIRQ1*%
X56990000Y-63000000D03*
X58010000Y-63000000D03*
%TD*%
D11*
%TO.C,J5*%
X12700000Y-34000000D03*
X12700000Y-31450000D03*
X12700000Y-36550000D03*
%TD*%
D10*
%TO.C,RCS1*%
X56990000Y-58000000D03*
X58010000Y-58000000D03*
%TD*%
D12*
%TO.C,ESD2*%
X32000000Y-20850000D03*
X32000000Y-20150000D03*
%TD*%
%TO.C,ESD1*%
X32000000Y-68850000D03*
X32000000Y-68150000D03*
%TD*%
D10*
%TO.C,RPC2*%
X27490000Y-18000000D03*
X28510000Y-18000000D03*
%TD*%
D13*
%TO.C,C13*%
X84000000Y-79275000D03*
X84000000Y-77725000D03*
%TD*%
D14*
%TO.C,U4*%
X81137500Y-82950000D03*
X81137500Y-82000000D03*
X81137500Y-81050000D03*
X78862500Y-81050000D03*
X78862500Y-82950000D03*
%TD*%
D13*
%TO.C,C10*%
X82000000Y-69275000D03*
X82000000Y-67725000D03*
%TD*%
D12*
%TO.C,ESD4*%
X32000000Y-84850000D03*
X32000000Y-84150000D03*
%TD*%
D15*
%TO.C,CCH0*%
X45225000Y-105000000D03*
X46775000Y-105000000D03*
%TD*%
D16*
%TO.C,F1*%
X96600000Y-30500000D03*
X99400000Y-30500000D03*
%TD*%
D17*
%TO.C,C8*%
X87500000Y-50480000D03*
X87500000Y-49520000D03*
%TD*%
D18*
%TO.C,U3*%
X98862500Y-81050000D03*
X98862500Y-82000000D03*
X98862500Y-82950000D03*
X101137500Y-82950000D03*
X101137500Y-81050000D03*
%TD*%
D10*
%TO.C,RPC4*%
X27490000Y-82000000D03*
X28510000Y-82000000D03*
%TD*%
D19*
%TO.C,U2*%
X78837500Y-55250000D03*
X78837500Y-55750000D03*
X78837500Y-56250000D03*
X78837500Y-56750000D03*
X78837500Y-57250000D03*
X78837500Y-57750000D03*
X78837500Y-58250000D03*
X78837500Y-58750000D03*
X78837500Y-59250000D03*
X78837500Y-59750000D03*
X78837500Y-60250000D03*
X78837500Y-60750000D03*
D20*
X80250000Y-62162500D03*
X80750000Y-62162500D03*
X81250000Y-62162500D03*
X81750000Y-62162500D03*
X82250000Y-62162500D03*
X82750000Y-62162500D03*
X83250000Y-62162500D03*
X83750000Y-62162500D03*
X84250000Y-62162500D03*
X84750000Y-62162500D03*
X85250000Y-62162500D03*
X85750000Y-62162500D03*
D19*
X87162500Y-60750000D03*
X87162500Y-60250000D03*
X87162500Y-59750000D03*
X87162500Y-59250000D03*
X87162500Y-58750000D03*
X87162500Y-58250000D03*
X87162500Y-57750000D03*
X87162500Y-57250000D03*
X87162500Y-56750000D03*
X87162500Y-56250000D03*
X87162500Y-55750000D03*
X87162500Y-55250000D03*
D20*
X85750000Y-53837500D03*
X85250000Y-53837500D03*
X84750000Y-53837500D03*
X84250000Y-53837500D03*
X83750000Y-53837500D03*
X83250000Y-53837500D03*
X82750000Y-53837500D03*
X82250000Y-53837500D03*
X81750000Y-53837500D03*
X81250000Y-53837500D03*
X80750000Y-53837500D03*
X80250000Y-53837500D03*
%TD*%
D21*
%TO.C,RPS2*%
X73000000Y-75510000D03*
X73000000Y-74490000D03*
%TD*%
D22*
%TO.C,C14*%
X75500000Y-82950000D03*
X75500000Y-81050000D03*
%TD*%
D10*
%TO.C,RIRQPD1*%
X59490000Y-66500000D03*
X60510000Y-66500000D03*
%TD*%
%TO.C,RMOSI1*%
X56990000Y-54000000D03*
X58010000Y-54000000D03*
%TD*%
D23*
%TO.C,CTEST1*%
X36000000Y-89225000D03*
X36000000Y-90775000D03*
%TD*%
D11*
%TO.C,J7*%
X12700000Y-98000000D03*
X12700000Y-95450000D03*
X12700000Y-100550000D03*
%TD*%
%TO.C,J2*%
X12700000Y-50000000D03*
X12700000Y-47450000D03*
X12700000Y-52550000D03*
%TD*%
D12*
%TO.C,ESD0*%
X32000000Y-52850000D03*
X32000000Y-52150000D03*
%TD*%
D11*
%TO.C,J3*%
X12700000Y-66000000D03*
X12700000Y-63450000D03*
X12700000Y-68550000D03*
%TD*%
D10*
%TO.C,ROEPU1*%
X68490000Y-48000000D03*
X69510000Y-48000000D03*
%TD*%
%TO.C,RCC2*%
X103490000Y-15000000D03*
X104510000Y-15000000D03*
%TD*%
D24*
%TO.C,C3*%
X51050000Y-61000000D03*
X52950000Y-61000000D03*
%TD*%
D25*
%TO.C,C5*%
X42520000Y-62000000D03*
X43480000Y-62000000D03*
%TD*%
D26*
%TO.C,RCH0*%
X37175000Y-105000000D03*
X38825000Y-105000000D03*
%TD*%
D27*
%TO.C,U6*%
X63137500Y-55050000D03*
X63137500Y-55700000D03*
X63137500Y-56350000D03*
X63137500Y-57000000D03*
X63137500Y-57650000D03*
X63137500Y-58300000D03*
X63137500Y-58950000D03*
X68862500Y-58950000D03*
X68862500Y-58300000D03*
X68862500Y-57650000D03*
X68862500Y-57000000D03*
X68862500Y-56350000D03*
X68862500Y-55700000D03*
X68862500Y-55050000D03*
%TD*%
D28*
%TO.C,C1*%
X44480000Y-59000000D03*
X43520000Y-59000000D03*
%TD*%
D17*
%TO.C,C15*%
X76000000Y-75480000D03*
X76000000Y-74520000D03*
%TD*%
%TO.C,C6*%
X78000000Y-50480000D03*
X78000000Y-49520000D03*
%TD*%
D12*
%TO.C,ESD3*%
X32000000Y-36850000D03*
X32000000Y-36150000D03*
%TD*%
D10*
%TO.C,RENPD1*%
X62490000Y-76000000D03*
X63510000Y-76000000D03*
%TD*%
%TO.C,RPC1*%
X27490000Y-66000000D03*
X28510000Y-66000000D03*
%TD*%
%TO.C,RNRST1*%
X90490000Y-52000000D03*
X91510000Y-52000000D03*
%TD*%
D11*
%TO.C,J6*%
X12700000Y-82000000D03*
X12700000Y-79450000D03*
X12700000Y-84550000D03*
%TD*%
D25*
%TO.C,CNRST1*%
X90520000Y-55000000D03*
X91480000Y-55000000D03*
%TD*%
D29*
%TO.C,RCS_PU1*%
X46510000Y-62500000D03*
X45490000Y-62500000D03*
%TD*%
D10*
%TO.C,RCC1*%
X100490000Y-15000000D03*
X101510000Y-15000000D03*
%TD*%
D25*
%TO.C,C2*%
X51220000Y-58750000D03*
X52180000Y-58750000D03*
%TD*%
D30*
%TO.C,J1*%
X103955000Y-25250000D03*
X103955000Y-24450000D03*
D31*
X103955000Y-23250000D03*
X103955000Y-22250000D03*
X103955000Y-21750000D03*
X103955000Y-20750000D03*
D30*
X103955000Y-19550000D03*
X103955000Y-18750000D03*
X103955000Y-18750000D03*
X103955000Y-19550000D03*
D31*
X103955000Y-20250000D03*
X103955000Y-21250000D03*
X103955000Y-22750000D03*
X103955000Y-23750000D03*
D30*
X103955000Y-24450000D03*
X103955000Y-25250000D03*
%TD*%
D10*
%TO.C,RPC3*%
X27490000Y-34000000D03*
X28510000Y-34000000D03*
%TD*%
D32*
%TO.C,U7*%
X97050000Y-23137500D03*
X98000000Y-23137500D03*
X98950000Y-23137500D03*
X98950000Y-20862500D03*
X98000000Y-20862500D03*
X97050000Y-20862500D03*
%TD*%
D13*
%TO.C,C11*%
X104000000Y-79275000D03*
X104000000Y-77725000D03*
%TD*%
D10*
%TO.C,RPC5*%
X27490000Y-98000000D03*
X28510000Y-98000000D03*
%TD*%
D13*
%TO.C,C12*%
X95500000Y-82775000D03*
X95500000Y-81225000D03*
%TD*%
D26*
%TO.C,RCH1*%
X41175000Y-105000000D03*
X42825000Y-105000000D03*
%TD*%
D33*
%TO.C,C4*%
X44525000Y-56000000D03*
X42975000Y-56000000D03*
%TD*%
D34*
%TO.C,D1*%
X103000000Y-35400000D03*
X103000000Y-32600000D03*
%TD*%
D22*
%TO.C,C7*%
X50500000Y-74950000D03*
X50500000Y-73050000D03*
%TD*%
D10*
%TO.C,RPS1*%
X68490000Y-73000000D03*
X69510000Y-73000000D03*
%TD*%
D12*
%TO.C,ESD5*%
X32000000Y-100850000D03*
X32000000Y-100150000D03*
%TD*%
D17*
%TO.C,C9*%
X87500000Y-66480000D03*
X87500000Y-65520000D03*
%TD*%
D10*
%TO.C,RSCK1*%
X56990000Y-50000000D03*
X58010000Y-50000000D03*
%TD*%
D35*
%TO.C,FB1*%
X87125000Y-82000000D03*
X88875000Y-82000000D03*
%TD*%
D21*
%TO.C,RQOD1*%
X58500000Y-73010000D03*
X58500000Y-71990000D03*
%TD*%
D36*
%TO.C,SW1*%
X92425000Y-57425000D03*
X96575000Y-57425000D03*
X92425000Y-59575000D03*
X96575000Y-59575000D03*
%TD*%
D18*
%TO.C,U5*%
X53862500Y-73050000D03*
X53862500Y-74000000D03*
X53862500Y-74950000D03*
X56137500Y-74950000D03*
X56137500Y-74000000D03*
X56137500Y-73050000D03*
%TD*%
D37*
%TO.C,U1*%
X47325000Y-57325000D03*
X47325000Y-58675000D03*
X48675000Y-57325000D03*
X48675000Y-58675000D03*
D38*
X46037500Y-56750000D03*
X46037500Y-57250000D03*
X46037500Y-57750000D03*
X46037500Y-58250000D03*
X46037500Y-58750000D03*
X46037500Y-59250000D03*
D39*
X46750000Y-59962500D03*
X47250000Y-59962500D03*
X47750000Y-59962500D03*
X48250000Y-59962500D03*
X48750000Y-59962500D03*
X49250000Y-59962500D03*
D38*
X49962500Y-59250000D03*
X49962500Y-58750000D03*
X49962500Y-58250000D03*
X49962500Y-57750000D03*
X49962500Y-57250000D03*
X49962500Y-56750000D03*
D39*
X49250000Y-56037500D03*
X48750000Y-56037500D03*
X48250000Y-56037500D03*
X47750000Y-56037500D03*
X47250000Y-56037500D03*
X46750000Y-56037500D03*
%TD*%
D17*
%TO.C,CCT1*%
X58500000Y-77480000D03*
X58500000Y-76520000D03*
%TD*%
D11*
%TO.C,J4*%
X12700000Y-18000000D03*
X12700000Y-15450000D03*
X12700000Y-20550000D03*
%TD*%
D10*
%TO.C,RPC0*%
X27490000Y-50000000D03*
X28510000Y-50000000D03*
%TD*%
M02*
